{
.appVersion = "3108";
.formatVersion = 3;
DisplayStrings = (
"/dotaccentcomb.case/dieresiscomb.case/gravecomb.case/acutecomb.case/hungarumlautcomb.case/circumflexcomb.case/caroncomb.case/brevecomb.case/ringcomb.case/tildecomb.case/macroncomb.case/hookabovecomb.case/dblgravecomb.case/breveinvertedcomb.case/horncomb.case 
AÁĂẮẶẰẲẴÂẤẬ/circumflexcomb_gravecomb.case ẦẨẪ/dblgravecomb.case Ȁ/dieresiscomb.case ÄẠÀẢ/breveinvertedcomb.case Ȃ/macroncomb.case Ā
/ringcomb.case ÅǺÃÆǼBCĆÇ̌CÇĈĊD/caroncomb.case ŽǄD̵ÐĎĐǅEÉĔĚÊẾỆỀỂỄȄ/dieresiscomb.case Ë/dotaccentcomb.case ĖẸÈẺȆĒĘẼFG/brevecomb.case ĞǦĜĢĠHĦĤIÍĬÎȈÏİỊÌỈȊĪĮ/tildecomb.case ĨJĴKĶLǇĹĽĻĿǈŁMNǊŃŇŅǋÑŊOÓŎ/circumflexcomb.case ÔỐỘỒỔỖȌ/dieresiscomb.case ÖȪȰỌÒỎOƠỚỢỜỞỠŐȎŌǪ0ØǾÕȬŒPÞQRŔŘŖȐȒSŚŞ̌SŞŜȘẞƏT̵ŦŤŢȚUÚŬÛȔÜỤÙỦƯỨỰỪỬỮŰȖŪŲ/ringcomb.case UŮŨVWẂŴẄẀXYÝŶŸỴỲỶȲỸZŹŽŻ",
"̈̇̀́̋/caroncomb.alt ̛̣̤̂̌̆̊̃̄̉̏̑̒,̵̧̨̦̮̱
áá̆ă/brevecomb_acutecomb ắặằ/brevecomb_hookabovecomb ẳẵâấậầẩẫȁäạà̉ảȃāąåǻãæǽbcćčçĉċdð/caroncomb.alt dď̵đǆeé̆ĕěêếệềểễȅëėẹèẻȇ̄ēęẽeəfgğǧĝģġh̵ħ/circumflexcomb.case/circumflexcomb.case h/circumflexcomb.case hĥıíĭdîbdȉbdïb/idotaccent ịìỉȋīįĩȷĵkķĸllllĺ/caroncomb.alt ľļŀǉłmnńňņǌñŋoóŏôốộồổỗ
oöȫȱọòỏơớợờờởỡőȏōǫøǿõȭœpþqrŕřŗȑȓsśšşŝșscheißetŧtťţțuúŭûȕüụùửưứựừửữűȗūųůũvwẃŵẅẁxyýŷÿỵỳỷȳỹzźžż",
"ẮẰẲẴẤẦẨẪẢǺẾỀỂỄẺỈỐỒỔỖỎƠỚỜỞỠȬƯỨỪỬỮỶ/brevecomb_acutecomb ắ/brevecomb_gravecomb ằ/brevecomb_tildecomb ẵấầẫ
̉ảẻỏởủử ǻ/circumflexcomb_acutecomb ế/circumflexcomb_gravecomb ềễĥồỗȫȱoớờỡȭứừữ
̆/brevecomb_hookabovecomb ẳ/circumflexcomb_hookabovecomb ẩểổ
",
"Diacritics Lowercase

̈̇̀́̋/caroncomb.alt ̵̧̨̛̣̤̦̮̱̂̌̆̊̃̄̉̏̑̒

̆̀́̃̂̉
/brevecomb_acutecomb/brevecomb_gravecomb/brevecomb_hookabovecomb/brevecomb_tildecomb/circumflexcomb_acutecomb/circumflexcomb_gravecomb/circumflexcomb_hookabovecomb/circumflexcomb_tildecomb 

Diacritics
Uppercase


glyphs = (
{
glyphname = A;
lastChange = "2022-04-06 11:27:52 +0000";
layers = (
{
attr = {
color = "1";
};
layerId = "33AE93C6-B8B3-427A-A53B-F24970E840CE";
shapes = (
{
attr = {
gradient = {
colors = (
(
(64,255),
0
),
(
(191,255),
1
)
);
end = (0.5074,0.9658);
start = (0.6091,0.0797);
};
};
closed = 1;
nodes = (
(76,700,l),
(77,700,l),
(77,0,l),
(53,0,l),
(53,677,l)
);
},
{
attr = {
gradient = {
colors = (
(
(64,255),
0
),
(
(191,255),
1
)
);
end = (0.8878,0.5878);
start = (0.0693,0.513);
};
};
closed = 1;
nodes = (
(220,677,l),
(220,676,l),
(77,676,l),
(77,700,l),
(197,700,l)
);
},
{
attr = {
gradient = {
colors = (
(
(64,255),
0
),
(
(191,255),
0.50056
),
(
(64,255),
1
)
);
end = (1.2582,0.0143);
start = (-0.3003,0.8873);
};
};
closed = 1;
nodes = (
(197,0,l),
(196,0,l),
(196,676,l),
(220,676,l),
(220,0,l)
);
},
{
attr = {
gradient = {
colors = (
(
(191,255),
0
),
(
(64,255),
1
)
);
end = (0.8878,0.5878);
start = (0.0693,0.513);
};
};
closed = 1;
nodes = (
(77,353,l),
(77,376,l),
(77,377,l),
(196,377,l),
(196,353,l)
);
}
);
width = 273;
},
{
attr = {
color = "1";
};
layerId = "E87239EE-82B8-404C-B23A-53843E270889";
shapes = (
{
attr = {
gradient = {
colors = (
(
(64,255),
0
),
(
(191,255),
1
)
);
end = (0.4877,0.9217);
start = (0.4155,-0.0037);
};
};
closed = 1;
nodes = (
(278,730,l),
(279,730,l),
(279,0,l),
(25,0,l),
(25,523,l)
);
},
{
attr = {
gradient = {
colors = (
(
(64,255),
0
),
(
(191,255),
1
)
);
end = (0.8878,0.5878);
start = (0.0693,0.513);
};
};
closed = 1;
nodes = (
(882,487,l),
(882,486,l),
(279,486,l),
(279,730,l),
(680,730,l)
);
},
{
attr = {
gradient = {
colors = (
(
(64,255),
0
),
(
(191,255),
1
)
);
end = (0.3691,0.1797);
start = (0.4192,0.8964);
};
};
closed = 1;
nodes = (
(628,0,l),
(628,486,l),
(629,486,l),
(882,486,l),
(882,0,l)
);
},
{
attr = {
gradient = {
colors = (
(
(64,255),
0
),
(
(191,255),
1
)
);
end = (0.0383,0.0895);
start = (0.8943,0.4519);
};
};
closed = 1;
nodes = (
(279,173,l),
(279,417,l),
(628,417,l),
(628,416,l),
(628,173,l)
);
}
);
width = 907;
}
);
metricRight = "=|";
unicode = 65;
},
{
glyphname = Aacute;
lastChange = "2022-04-06 11:27:52 +0000";
layers = (
{
attr = {
color = 1;
};
layerId = "33AE93C6-B8B3-427A-A53B-F24970E840CE";
shapes = (
{
attr = {
gradient = {
colors = (
(
(64,255),
0
),
(
(191,255),
1
)
);
end = (0.5074,0.9658);
start = (0.6091,0.0797);
};
identifier = ID0x600013384620;
};
closed = 1;
nodes = (
(76,700,l),
(77,700,l),
(77,0,l),
(53,0,l),
(53,677,l)
);
},
{
attr = {
gradient = {
colors = (
(
(64,255),
0
),
(
(191,255),
1
)
);
end = (0.8878,0.5878);
start = (0.0693,0.513);
};
identifier = ID0x600013384620;
};
closed = 1;
nodes = (
(220,677,l),
(220,676,l),
(77,676,l),
(77,700,l),
(197,700,l)
);
},
{
attr = {
gradient = {
colors = (
(
(64,255),
0
),
(
(191,255),
0.50056
),
(
(64,255),
1
)
);
end = (1.2582,0.0143);
start = (-0.3003,0.8873);
};
identifier = ID0x600013384620;
};
closed = 1;
nodes = (
(197,0,l),
(196,0,l),
(196,676,l),
(220,676,l),
(220,0,l)
);
},
{
attr = {
gradient = {
colors = (
(
(191,255),
0
),
(
(64,255),
1
)
);
end = (0.8878,0.5878);
start = (0.0693,0.513);
};
identifier = ID0x600013384620;
};
closed = 1;
nodes = (
(77,353,l),
(77,376,l),
(77,377,l),
(196,377,l),
(196,353,l)
);
},
{
attr = {
gradient = {
colors = (
(
(191,255),
0
),
(
(64,255),
1
)
);
end = (0.7053,1.0789);
start = (0.3543,0.0329);
};
identifier = ID0x600013384700;
};
closed = 1;
nodes = (
(145,855,l),
(176,855,l),
(176,854,l),
(144,765,l),
(120,765,l)
);
}
);
width = 273;
},
{
attr = {
color = 1;
};
layerId = "E87239EE-82B8-404C-B23A-53843E270889";
shapes = (
{
attr = {
gradient = {
colors = (
(
(64,255),
0
),
(
(191,255),
1
)
);
end = (0.4877,0.9217);
start = (0.4155,-0.0037);
};
identifier = ID0x6000133847e0;
};
closed = 1;
nodes = (
(278,730,l),
(279,730,l),
(279,0,l),
(25,0,l),
(25,523,l)
);
},
{
attr = {
gradient = {
colors = (
(
(64,255),
0
),
(
(191,255),
1
)
);
end = (0.8878,0.5878);
start = (0.0693,0.513);
};
identifier = ID0x6000133847e0;
};
closed = 1;
nodes = (
(882,487,l),
(882,486,l),
(279,486,l),
(279,730,l),
(680,730,l)
);
},
{
attr = {
gradient = {
colors = (
(
(64,255),
0
),
(
(191,255),
1
)
);
end = (0.3691,0.1797);
start = (0.4192,0.8964);
};
identifier = ID0x6000133847e0;
};
closed = 1;
nodes = (
(628,0,l),
(628,486,l),
(629,486,l),
(882,486,l),
(882,0,l)
);
},
{
attr = {
gradient = {
colors = (
(
(64,255),
0
),
(
(191,255),
1
)
);
end = (0.0383,0.0895);
start = (0.8943,0.4519);
};
identifier = ID0x6000133847e0;
};
closed = 1;
nodes = (
(279,173,l),
(279,417,l),
(628,417,l),
(628,416,l),
(628,173,l)
);
},
{
attr = {
gradient = {
colors = (
(
(191,255),
0
),
(
(64,255),
1
)
);
end = (0.7053,1.0789);
start = (0.3543,0.0329);
};
identifier = ID0x600013384a80;
};
closed = 1;
nodes = (
(428,900,l),
(634,900,l),
(634,899,l),
(519,760,l),
(393,760,l)
);
}
);
width = 907;
}
);
unicode = 193;
},
{
glyphname = Abreve;
lastChange = "2022-04-06 11:27:52 +0000";
layers = (
{
attr = {
color = 1;
};
layerId = "33AE93C6-B8B3-427A-A53B-F24970E840CE";
shapes = (
{
attr = {
gradient = {
colors = (
(
(64,255),
0
),
(
(191,255),
1
)
);
end = (0.5074,0.9658);
start = (0.6091,0.0797);
};
identifier = ID0x6000133849a0;
};
closed = 1;
nodes = (
(76,700,l),
(77,700,l),
(77,0,l),
(53,0,l),
(53,677,l)
);
},
{
attr = {
gradient = {
colors = (
(
(64,255),
0
),
(
(191,255),
1
)
);
end = (0.8878,0.5878);
start = (0.0693,0.513);
};
identifier = ID0x6000133849a0;
};
closed = 1;
nodes = (
(220,677,l),
(220,676,l),
(77,676,l),
(77,700,l),
(197,700,l)
);
},
{
attr = {
gradient = {
colors = (
(
(64,255),
0
),
(
(191,255),
0.50056
),
(
(64,255),
1
)
);
end = (1.2582,0.0143);
start = (-0.3003,0.8873);
};
identifier = ID0x6000133849a0;
};
closed = 1;
nodes = (
(197,0,l),
(196,0,l),
(196,676,l),
(220,676,l),
(220,0,l)
);
},
{
attr = {
gradient = {
colors = (
(
(191,255),
0
),
(
(64,255),
1
)
);
end = (0.8878,0.5878);
start = (0.0693,0.513);
};
identifier = ID0x6000133849a0;
};
closed = 1;
nodes = (
(77,353,l),
(77,376,l),
(77,377,l),
(196,377,l),
(196,353,l)
);
},
{
attr = {
gradient = {
colors = (
(
(191,255),
0
),
(
(64,255),
1
)
);
end = (0.8593,0.0383);
start = (0.1213,0.9446);
};
identifier = ID0x600013384b60;
};
closed = 1;
nodes = (
(91,803,l),
(60,839,l),
(60,840,l),
(92,840,l),
(123,803,l)
);
},
{
attr = {
gradient = {
colors = (
(
(191,255),
0
),
(
(64,255),
1
)
);
end = (0.107,0.0319);
start = (0.5888,0.9521);
};
identifier = ID0x600013384b60;
};
closed = 1;
nodes = (
(184,840,l),
(216,840,l),
(216,839,l),
(185,803,l),
(153,803,l)
);
},
{
attr = {
gradient = {
colors = (
(
(191,255),
0
),
(
(64,255),
1
)
);
end = (0.7849,0.1074);
start = (0.2241,0.0674);
};
identifier = ID0x600013384b60;
};
closed = 1;
nodes = (
(110,781,l),
(91,803,l),
(185,803,l),
(166,781,l)
);
}
);
width = 273;
},
{
attr = {
color = 1;
};
layerId = "E87239EE-82B8-404C-B23A-53843E270889";
shapes = (
{
attr = {
gradient = {
colors = (
(
(64,255),
0
),
(
(191,255),
1
)
);
end = (0.4877,0.9217);
start = (0.4155,-0.0037);
};
identifier = ID0x600013384c40;
};
closed = 1;
nodes = (
(278,730,l),
(279,730,l),
(279,0,l),
(25,0,l),
(25,523,l)
);
},
{
attr = {
gradient = {
colors = (
(
(64,255),
0
),
(
(191,255),
1
)
);
end = (0.8878,0.5878);
start = (0.0693,0.513);
};
identifier = ID0x600013384c40;
};
closed = 1;
nodes = (
(882,487,l),
(882,486,l),
(279,486,l),
(279,730,l),
(680,730,l)
);
},
{
attr = {
gradient = {
colors = (
(
(64,255),
0
),
(
(191,255),
1
)
);
end = (0.3691,0.1797);
start = (0.4192,0.8964);
};
identifier = ID0x600013384c40;
};
closed = 1;
nodes = (
(628,0,l),
(628,486,l),
(629,486,l),
(882,486,l),
(882,0,l)
);
},
{
attr = {
gradient = {
colors = (
(
(64,255),
0
),
(
(191,255),
1
)
);
end = (0.0383,0.0895);
start = (0.8943,0.4519);
};
identifier = ID0x600013384c40;
};
closed = 1;
nodes = (
(279,173,l),
(279,417,l),
(628,417,l),
(628,416,l),
(628,173,l)
);
},
{
attr = {
gradient = {
colors = (
(
(191,255),
0
),
(
(64,255),
1
)
);
end = (0.9062,0.0359);
start = (0.411,0.9896);
};
identifier = ID0x600013384d20;
};
closed = 1;
nodes = (
(270,840,l),
(216,898,l),
(216,900,l),
(372,900,l),
(429,840,l)
);
},
{
attr = {
gradient = {
colors = (
(
(191,255),
0
),
(
(64,255),
1
)
);
end = (0.0683,0.0486);
start = (0.9695,0.9699);
};
identifier = ID0x600013384d20;
};
closed = 1;
nodes = (
(561,900,l),
(717,900,l),
(717,899,l),
(663,840,l),
(504,840,l)
);
},
{
attr = {
gradient = {
colors = (
(
(64,255),
0
),
(
(191,255),
1
)
);
end = (0.0709,0.837);
start = (0.799,0.0857);
};
identifier = ID0x600013384d20;
};
closed = 1;
nodes = (
(344,760,l),
(270,840,l),
(663,840,l),
(589,760,l)
);
}
);
width = 907;
}
);
unicode = 258;
},
{
glyphname = Abreveacute;
lastChange = "2022-04-06 11:27:52 +0000";
layers = (
{
attr = {
color = 1;
};
layerId = "33AE93C6-B8B3-427A-A53B-F24970E840CE";
shapes = (
{
attr = {
gradient = {
colors = (
(
(64,255),
0
),
(
(191,255),
1
)
);
end = (0.5074,0.9658);
start = (0.6091,0.0797);
};
identifier = ID0x600013384e00;
};
closed = 1;
nodes = (
(76,700,l),
(77,700,l),
(77,0,l),
(53,0,l),
(53,677,l)
);
},
{
attr = {
gradient = {
colors = (
(
(64,255),
0
),
(
(191,255),
1
)
);
end = (0.8878,0.5878);
start = (0.0693,0.513);
};
identifier = ID0x600013384e00;
};
closed = 1;
nodes = (
(220,677,l),
(220,676,l),
(77,676,l),
(77,700,l),
(197,700,l)
);
},
{
attr = {
gradient = {
colors = (
(
(64,255),
0
),
(
(191,255),
0.50056
),
(
(64,255),
1
)
);
end = (1.2582,0.0143);
start = (-0.3003,0.8873);
};
identifier = ID0x600013384e00;
};
closed = 1;
nodes = (
(197,0,l),
(196,0,l),
(196,676,l),
(220,676,l),
(220,0,l)
);
},
{
attr = {
gradient = {
colors = (
(
(191,255),
0
),
(
(64,255),
1
)
);
end = (0.8878,0.5878);
start = (0.0693,0.513);
};
identifier = ID0x600013384e00;
};
closed = 1;
nodes = (
(77,353,l),
(77,376,l),
(77,377,l),
(196,377,l),
(196,353,l)
);
},
{
attr = {
gradient = {
colors = (
(
(191,255),
0
),
(
(64,255),
1
)
);
end = (0.8593,0.0383);
start = (0.1213,0.9446);
};
identifier = ID0x600013384ee0;
};
closed = 1;
nodes = (
(91,783,l),
(60,819,l),
(60,820,l),
(92,820,l),
(123,783,l)
);
},
{
attr = {
gradient = {
colors = (
(
(191,255),
0
),
(
(64,255),
1
)
);
end = (0.107,0.0319);
start = (0.5888,0.9521);
};
identifier = ID0x600013384ee0;
};
closed = 1;
nodes = (
(184,820,l),
(216,820,l),
(216,819,l),
(185,783,l),
(153,783,l)
);
},
{
attr = {
gradient = {
colors = (
(
(191,255),
0
),
(
(64,255),
1
)
);
end = (0.7849,0.1074);
start = (0.2241,0.0674);
};
identifier = ID0x600013384ee0;
};
closed = 1;
nodes = (
(110,761,l),
(91,783,l),
(185,783,l),
(166,761,l)
);
},
{
attr = {
gradient = {
colors = (
(
(191,255),
0
),
(
(64,255),
1
)
);
end = (0.7053,1.0789);
start = (0.3543,0.0329);
};
identifier = ID0x600013384ee0;
};
closed = 1;
nodes = (
(147,900,l),
(180,900,l),
(180,899,l),
(145,815,l),
(122,815,l)
);
}
);
width = 273;
},
{
attr = {
color = 1;
};
layerId = "E87239EE-82B8-404C-B23A-53843E270889";
shapes = (
{
attr = {
gradient = {
colors = (
(
(64,255),
0
),
(
(191,255),
1
)
);
end = (0.4877,0.9217);
start = (0.4155,-0.0037);
};
identifier = ID0x600013384fc0;
};
closed = 1;
nodes = (
(278,730,l),
(279,730,l),
(279,0,l),
(25,0,l),
(25,523,l)
);
},
{
attr = {
gradient = {
colors = (
(
(64,255),
0
),
(
(191,255),
1
)
);
end = (0.8878,0.5878);
start = (0.0693,0.513);
};
identifier = ID0x600013384fc0;
};
closed = 1;
nodes = (
(882,487,l),
(882,486,l),
(279,486,l),
(279,730,l),
(680,730,l)
);
},
{
attr = {
gradient = {
colors = (
(
(64,255),
0
),
(
(191,255),
1
)
);
end = (0.3691,0.1797);
start = (0.4192,0.8964);
};
identifier = ID0x600013384fc0;
};
closed = 1;
nodes = (
(628,0,l),
(628,486,l),
(629,486,l),
(882,486,l),
(882,0,l)
);
},
{
attr = {
gradient = {
colors = (
(
(64,255),
0
),
(
(191,255),
1
)
);
end = (0.0383,0.0895);
start = (0.8943,0.4519);
};
identifier = ID0x600013384fc0;
};
closed = 1;
nodes = (
(279,173,l),
(279,417,l),
(628,417,l),
(628,416,l),
(628,173,l)
);
},
{
attr = {
gradient = {
colors = (
(
(191,255),
0
),
(
(64,255),
1
)
);
end = (0.6682,0.0394);
start = (0.411,0.9896);
};
identifier = ID0x6000133850a0;
};
closed = 1;
nodes = (
(293,822,l),
(226,890,l),
(226,892,l),
(342,892,l),
(409,822,l)
);
},
{
attr = {
gradient = {
colors = (
(
(191,255),
0
),
(
(64,255),
1
)
);
end = (0.7225,0.108);
start = (0.5671,0.9572);
};
identifier = ID0x6000133850a0;
};
closed = 1;
nodes = (
(611,892,l),
(727,892,l),
(727,891,l),
(660,822,l),
(544,822,l)
);
},
{
attr = {
gradient = {
colors = (
(
(64,255),
0
),
(
(191,255),
1
)
);
end = (0.1437,0.437);
start = (0.8674,0.4621);
};
identifier = ID0x6000133850a0;
};
closed = 1;
nodes = (
(354,760,l),
(293,822,l),
(660,822,l),
(599,760,l)
);
},
{
attr = {
gradient = {
colors = (
(
(191,255),
0
),
(
(64,255),
1
)
);
end = (0.9356,0.1167);
start = (0.1313,0.8899);
};
identifier = ID0x6000133850a0;
};
closed = 1;
nodes = (
(445,980,l),
(611,980,l),
(611,979,l),
(508,870,l),
(412,870,l)
);
}
);
width = 907;
}
);
unicode = 7854;
},
{
glyphname = Abrevedotbelow;
lastChange = "2022-04-06 11:27:52 +0000";
layers = (
{
attr = {
color = 1;
};
layerId = "33AE93C6-B8B3-427A-A53B-F24970E840CE";
shapes = (
{
attr = {
gradient = {
colors = (
(
(64,255),
0
),
(
(191,255),
1
)
);
end = (0.5074,0.9658);
start = (0.6091,0.0797);
};
identifier = ID0x600013385180;
};
closed = 1;
nodes = (
(76,700,l),
(77,700,l),
(77,0,l),
(53,0,l),
(53,677,l)
);
},
{
attr = {
gradient = {
colors = (
(
(64,255),
0
),
(
(191,255),
1
)
);
end = (0.8878,0.5878);
start = (0.0693,0.513);
};
identifier = ID0x600013385180;
};
closed = 1;
nodes = (
(220,677,l),
(220,676,l),
(77,676,l),
(77,700,l),
(197,700,l)
);
},
{
attr = {
gradient = {
colors = (
(
(64,255),
0
),
(
(191,255),
0.50056
),
(
(64,255),
1
)
);
end = (1.2582,0.0143);
start = (-0.3003,0.8873);
};
identifier = ID0x600013385180;
};
closed = 1;
nodes = (
(197,0,l),
(196,0,l),
(196,676,l),
(220,676,l),
(220,0,l)
);
},
{
attr = {
gradient = {
colors = (
(
(191,255),
0
),
(
(64,255),
1
)
);
end = (0.8878,0.5878);
start = (0.0693,0.513);
};
identifier = ID0x600013385180;
};
closed = 1;
nodes = (
(77,353,l),
(77,376,l),
(77,377,l),
(196,377,l),
(196,353,l)
);
},
{
attr = {
gradient = {
colors = (
(
(191,255),
0
),
(
(64,255),
1
)
);
end = (1.0106,0.0609);
start = (0.045,0.9981);
};
identifier = ID0x600013385260;
};
closed = 1;
nodes = (
(121,-119,l),
(121,-85,l),
(151,-85,l),
(151,-119,l)
);
},
{
attr = {
gradient = {
colors = (
(
(191,255),
0
),
(
(64,255),
1
)
);
end = (0.8593,0.0383);
start = (0.1213,0.9446);
};
identifier = ID0x600013385340;
};
closed = 1;
nodes = (
(91,803,l),
(60,839,l),
(60,840,l),
(92,840,l),
(123,803,l)
);
},
{
attr = {
gradient = {
colors = (
(
(191,255),
0
),
(
(64,255),
1
)
);
end = (0.107,0.0319);
start = (0.5888,0.9521);
};
identifier = ID0x600013385340;
};
closed = 1;
nodes = (
(184,840,l),
(216,840,l),
(216,839,l),
(185,803,l),
(153,803,l)
);
},
{
attr = {
gradient = {
colors = (
(
(191,255),
0
),
(
(64,255),
1
)
);
end = (0.7849,0.1074);
start = (0.2241,0.0674);
};
identifier = ID0x600013385340;
};
closed = 1;
nodes = (
(110,781,l),
(91,803,l),
(185,803,l),
(166,781,l)
);
}
);
width = 273;
},
{
attr = {
color = 1;
};
layerId = "E87239EE-82B8-404C-B23A-53843E270889";
shapes = (
{
attr = {
gradient = {
colors = (
(
(64,255),
0
),
(
(191,255),
1
)
);
end = (0.4877,0.9217);
start = (0.4155,-0.0037);
};
identifier = ID0x600013385420;
};
closed = 1;
nodes = (
(278,730,l),
(279,730,l),
(279,0,l),
(25,0,l),
(25,523,l)
);
},
{
attr = {
gradient = {
colors = (
(
(64,255),
0
),
(
(191,255),
1
)
);
end = (0.8878,0.5878);
start = (0.0693,0.513);
};
identifier = ID0x600013385420;
};
closed = 1;
nodes = (
(882,487,l),
(882,486,l),
(279,486,l),
(279,730,l),
(680,730,l)
);
},
{
attr = {
gradient = {
colors = (
(
(64,255),
0
),
(
(191,255),
1
)
);
end = (0.3691,0.1797);
start = (0.4192,0.8964);
};
identifier = ID0x600013385420;
};
closed = 1;
nodes = (
(628,0,l),
(628,486,l),
(629,486,l),
(882,486,l),
(882,0,l)
);
},
{
attr = {
gradient = {
colors = (
(
(64,255),
0
),
(
(191,255),
1
)
);
end = (0.0383,0.0895);
start = (0.8943,0.4519);
};
identifier = ID0x600013385420;
};
closed = 1;
nodes = (
(279,173,l),
(279,417,l),
(628,417,l),
(628,416,l),
(628,173,l)
);
},
{
attr = {
gradient = {
colors = (
(
(191,255),
0
),
(
(64,255),
1
)
);
end = (0.8798,-0.0104);
start = (0.1135,0.9935);
};
identifier = ID0x600013385500;
};
closed = 1;
nodes = (
(364,-172,l),
(364,-40,l),
(540,-40,l),
(540,-172,l)
);
},
{
attr = {
gradient = {
colors = (
(
(191,255),
0
),
(
(64,255),
1
)
);
end = (0.9062,0.0359);
start = (0.411,0.9896);
};
identifier = ID0x6000133855e0;
};
closed = 1;
nodes = (
(270,840,l),
(216,898,l),
(216,900,l),
(372,900,l),
(429,840,l)
);
},
{
attr = {
gradient = {
colors = (
(
(191,255),
0
),
(
(64,255),
1
)
);
end = (0.0683,0.0486);
start = (0.9695,0.9699);
};
identifier = ID0x6000133855e0;
};
closed = 1;
nodes = (
(561,900,l),
(717,900,l),
(717,899,l),
(663,840,l),
(504,840,l)
);
},
{
attr = {
gradient = {
colors = (
(
(64,255),
0
),
(
(191,255),
1
)
);
end = (0.0709,0.837);
start = (0.799,0.0857);
};
identifier = ID0x6000133855e0;
};
closed = 1;
nodes = (
(344,760,l),
(270,840,l),
(663,840,l),
(589,760,l)
);
}
);
width = 907;
}
);
unicode = 7862;
},
{
glyphname = Abrevegrave;
lastChange = "2022-04-06 11:27:52 +0000";
layers = (
{
attr = {
color = 1;
};
layerId = "33AE93C6-B8B3-427A-A53B-F24970E840CE";
shapes = (
{
attr = {
gradient = {
colors = (
(
(64,255),
0
),
(
(191,255),
1
)
);
end = (0.5074,0.9658);
start = (0.6091,0.0797);
};
identifier = ID0x6000133856c0;
};
closed = 1;
nodes = (
(76,700,l),
(77,700,l),
(77,0,l),
(53,0,l),
(53,677,l)
);
},
{
attr = {
gradient = {
colors = (
(
(64,255),
0
),
(
(191,255),
1
)
);
end = (0.8878,0.5878);
start = (0.0693,0.513);
};
identifier = ID0x6000133856c0;
};
closed = 1;
nodes = (
(220,677,l),
(220,676,l),
(77,676,l),
(77,700,l),
(197,700,l)
);
},
{
attr = {
gradient = {
colors = (
(
(64,255),
0
),
(
(191,255),
0.50056
),
(
(64,255),
1
)
);
end = (1.2582,0.0143);
start = (-0.3003,0.8873);
};
identifier = ID0x6000133856c0;
};
closed = 1;
nodes = (
(197,0,l),
(196,0,l),
(196,676,l),
(220,676,l),
(220,0,l)
);
},
{
attr = {
gradient = {
colors = (
(
(191,255),
0
),
(
(64,255),
1
)
);
end = (0.8878,0.5878);
start = (0.0693,0.513);
};
identifier = ID0x6000133856c0;
};
closed = 1;
nodes = (
(77,353,l),
(77,376,l),
(77,377,l),
(196,377,l),
(196,353,l)
);
},
{
attr = {
gradient = {
colors = (
(
(191,255),
0
),
(
(64,255),
1
)
);
end = (0.8593,0.0383);
start = (0.1213,0.9446);
};
identifier = ID0x6000133857a0;
};
closed = 1;
nodes = (
(90,763,l),
(59,799,l),
(59,800,l),
(91,800,l),
(122,763,l)
);
},
{
attr = {
gradient = {
colors = (
(
(191,255),
0
),
(
(64,255),
1
)
);
end = (0.107,0.0319);
start = (0.5888,0.9521);
};
identifier = ID0x6000133857a0;
};
closed = 1;
nodes = (
(183,800,l),
(215,800,l),
(215,799,l),
(184,763,l),
(152,763,l)
);
},
{
attr = {
gradient = {
colors = (
(
(191,255),
0
),
(
(64,255),
1
)
);
end = (0.9461,0.8644);
start = (0.1943,-0.0418);
};
identifier = ID0x6000133857a0;
};
closed = 1;
nodes = (
(109,741,l),
(90,763,l),
(184,763,l),
(165,741,l)
);
},
{
attr = {
gradient = {
colors = (
(
(191,255),
0
),
(
(64,255),
1
)
);
end = (0.7053,1.0789);
start = (0.3543,0.0329);
};
identifier = ID0x6000133857a0;
};
closed = 1;
nodes = (
(129,815,l),
(94,899,l),
(94,900,l),
(127,900,l),
(152,815,l)
);
}
);
width = 273;
},
{
attr = {
color = 1;
};
layerId = "E87239EE-82B8-404C-B23A-53843E270889";
shapes = (
{
attr = {
gradient = {
colors = (
(
(64,255),
0
),
(
(191,255),
1
)
);
end = (0.4877,0.9217);
start = (0.4155,-0.0037);
};
identifier = ID0x600013385880;
};
closed = 1;
nodes = (
(278,730,l),
(279,730,l),
(279,0,l),
(25,0,l),
(25,523,l)
);
},
{
attr = {
gradient = {
colors = (
(
(64,255),
0
),
(
(191,255),
1
)
);
end = (0.8878,0.5878);
start = (0.0693,0.513);
};
identifier = ID0x600013385880;
};
closed = 1;
nodes = (
(882,487,l),
(882,486,l),
(279,486,l),
(279,730,l),
(680,730,l)
);
},
{
attr = {
gradient = {
colors = (
(
(64,255),
0
),
(
(191,255),
1
)
);
end = (0.3691,0.1797);
start = (0.4192,0.8964);
};
identifier = ID0x600013385880;
};
closed = 1;
nodes = (
(628,0,l),
(628,486,l),
(629,486,l),
(882,486,l),
(882,0,l)
);
},
{
attr = {
gradient = {
colors = (
(
(64,255),
0
),
(
(191,255),
1
)
);
end = (0.0383,0.0895);
start = (0.8943,0.4519);
};
identifier = ID0x600013385880;
};
closed = 1;
nodes = (
(279,173,l),
(279,417,l),
(628,417,l),
(628,416,l),
(628,173,l)
);
},
{
attr = {
gradient = {
colors = (
(
(191,255),
0
),
(
(64,255),
1
)
);
end = (0.8766,0.0394);
start = (0.1468,1.0396);
};
identifier = ID0x600013385960;
};
closed = 1;
nodes = (
(283,832,l),
(226,890,l),
(226,892,l),
(342,892,l),
(409,832,l)
);
},
{
attr = {
gradient = {
colors = (
(
(191,255),
0
),
(
(64,255),
1
)
);
end = (0.1409,0.108);
start = (0.8511,0.9572);
};
identifier = ID0x600013385960;
};
closed = 1;
nodes = (
(611,892,l),
(727,892,l),
(727,891,l),
(670,832,l),
(544,832,l)
);
},
{
attr = {
gradient = {
colors = (
(
(191,255),
0
),
(
(64,255),
1
)
);
end = (0.9223,0.8648);
start = (0.1827,0.0424);
};
identifier = ID0x600013385960;
};
closed = 1;
nodes = (
(354,755,l),
(283,832,l),
(670,832,l),
(599,755,l)
);
},
{
attr = {
gradient = {
colors = (
(
(191,255),
0
),
(
(64,255),
1
)
);
end = (0.9356,0.1167);
start = (0.1313,0.8899);
};
identifier = ID0x600013385960;
};
closed = 1;
nodes = (
(439,870,l),
(336,979,l),
(336,980,l),
(502,980,l),
(535,870,l)
);
}
);
width = 907;
}
);
unicode = 7856;
},
{
glyphname = Abrevehookabove;
lastChange = "2022-04-06 11:27:52 +0000";
layers = (
{
attr = {
color = 1;
};
layerId = "33AE93C6-B8B3-427A-A53B-F24970E840CE";
shapes = (
{
attr = {
gradient = {
colors = (
(
(64,255),
0
),
(
(191,255),
1
)
);
end = (0.5074,0.9658);
start = (0.6091,0.0797);
};
identifier = ID0x600013385a40;
};
closed = 1;
nodes = (
(76,700,l),
(77,700,l),
(77,0,l),
(53,0,l),
(53,677,l)
);
},
{
attr = {
gradient = {
colors = (
(
(64,255),
0
),
(
(191,255),
1
)
);
end = (0.8878,0.5878);
start = (0.0693,0.513);
};
identifier = ID0x600013385a40;
};
closed = 1;
nodes = (
(220,677,l),
(220,676,l),
(77,676,l),
(77,700,l),
(197,700,l)
);
},
{
attr = {
gradient = {
colors = (
(
(64,255),
0
),
(
(191,255),
0.50056
),
(
(64,255),
1
)
);
end = (1.2582,0.0143);
start = (-0.3003,0.8873);
};
identifier = ID0x600013385a40;
};
closed = 1;
nodes = (
(197,0,l),
(196,0,l),
(196,676,l),
(220,676,l),
(220,0,l)
);
},
{
attr = {
gradient = {
colors = (
(
(191,255),
0
),
(
(64,255),
1
)
);
end = (0.8878,0.5878);
start = (0.0693,0.513);
};
identifier = ID0x600013385a40;
};
closed = 1;
nodes = (
(77,353,l),
(77,376,l),
(77,377,l),
(196,377,l),
(196,353,l)
);
},
{
attr = {
gradient = {
colors = (
(
(191,255),
0
),
(
(64,255),
1
)
);
end = (0.8593,0.0383);
start = (0.1213,0.9446);
};
identifier = ID0x600013385b20;
};
closed = 1;
nodes = (
(91,783,l),
(60,819,l),
(60,820,l),
(92,820,l),
(123,783,l)
);
},
{
attr = {
gradient = {
colors = (
(
(191,255),
0
),
(
(64,255),
1
)
);
end = (0.107,0.0319);
start = (0.5888,0.9521);
};
identifier = ID0x600013385b20;
};
closed = 1;
nodes = (
(184,820,l),
(216,820,l),
(216,819,l),
(185,783,l),
(153,783,l)
);
},
{
attr = {
gradient = {
colors = (
(
(191,255),
0
),
(
(64,255),
1
)
);
end = (0.7849,0.1074);
start = (0.2241,0.0674);
};
identifier = ID0x600013385b20;
};
closed = 1;
nodes = (
(110,761,l),
(91,783,l),
(185,783,l),
(166,761,l)
);
},
{
attr = {
gradient = {
colors = (
(
(64,255),
0
),
(
(191,255),
1
)
);
end = (0.0416,0.8836);
start = (0.6428,0.1867);
};
identifier = ID0x600013385b20;
};
closed = 1;
nodes = (
(102,902,l),
(102,926,l),
(161,926,l),
(179,903,l),
(179,902,l)
);
},
{
attr = {
gradient = {
colors = (
(
(191,255),
0
),
(
(64,255),
1
)
);
end = (0.2224,-0.0167);
start = (0.6536,0.9461);
};
identifier = ID0x600013385b20;
};
closed = 1;
nodes = (
(123,795,l),
(123,796,l),
(161,926,l),
(179,903,l),
(179,902,l),
(146,795,l)
);
}
);
width = 273;
},
{
attr = {
color = 1;
};
layerId = "E87239EE-82B8-404C-B23A-53843E270889";
shapes = (
{
attr = {
gradient = {
colors = (
(
(64,255),
0
),
(
(191,255),
1
)
);
end = (0.4877,0.9217);
start = (0.4155,-0.0037);
};
identifier = ID0x600013385c00;
};
closed = 1;
nodes = (
(278,730,l),
(279,730,l),
(279,0,l),
(25,0,l),
(25,523,l)
);
},
{
attr = {
gradient = {
colors = (
(
(64,255),
0
),
(
(191,255),
1
)
);
end = (0.8878,0.5878);
start = (0.0693,0.513);
};
identifier = ID0x600013385c00;
};
closed = 1;
nodes = (
(882,487,l),
(882,486,l),
(279,486,l),
(279,730,l),
(680,730,l)
);
},
{
attr = {
gradient = {
colors = (
(
(64,255),
0
),
(
(191,255),
1
)
);
end = (0.3691,0.1797);
start = (0.4192,0.8964);
};
identifier = ID0x600013385c00;
};
closed = 1;
nodes = (
(628,0,l),
(628,486,l),
(629,486,l),
(882,486,l),
(882,0,l)
);
},
{
attr = {
gradient = {
colors = (
(
(64,255),
0
),
(
(191,255),
1
)
);
end = (0.0383,0.0895);
start = (0.8943,0.4519);
};
identifier = ID0x600013385c00;
};
closed = 1;
nodes = (
(279,173,l),
(279,417,l),
(628,417,l),
(628,416,l),
(628,173,l)
);
},
{
attr = {
gradient = {
colors = (
(
(191,255),
0
),
(
(64,255),
1
)
);
end = (0.6682,0.0394);
start = (0.411,0.9896);
};
identifier = ID0x600013385ce0;
};
closed = 1;
nodes = (
(293,822,l),
(226,890,l),
(226,892,l),
(342,892,l),
(419,822,l)
);
},
{
attr = {
gradient = {
colors = (
(
(191,255),
0
),
(
(64,255),
1
)
);
end = (0.7225,0.108);
start = (0.5671,0.9572);
};
identifier = ID0x600013385ce0;
};
closed = 1;
nodes = (
(611,892,l),
(727,892,l),
(727,891,l),
(660,822,l),
(534,822,l)
);
},
{
attr = {
gradient = {
colors = (
(
(64,255),
0
),
(
(191,255),
1
)
);
end = (0.1437,0.437);
start = (0.8674,0.4621);
};
identifier = ID0x600013385ce0;
};
closed = 1;
nodes = (
(354,760,l),
(293,822,l),
(660,822,l),
(599,760,l)
);
},
{
attr = {
gradient = {
colors = (
(
(64,255),
0
),
(
(191,255),
1
)
);
end = (0.0611,0.8551);
start = (0.4734,0.0581);
};
identifier = ID0x600013385ce0;
};
closed = 1;
nodes = (
(366,938,l),
(366,1000,l),
(577,1000,l),
(604,939,l),
(604,938,l)
);
},
{
attr = {
gradient = {
colors = (
(
(191,255),
0
),
(
(64,255),
1
)
);
end = (0.372,0.0258);
start = (0.6171,0.8745);
};
identifier = ID0x600013385ce0;
};
closed = 1;
nodes = (
(430,864,l),
(429,864,l),
(577,1000,l),
(604,939,l),
(604,938,l),
(517,864,l)
);
}
);
width = 907;
}
);
unicode = 7858;
},
{
glyphname = Abrevetilde;
lastChange = "2022-04-06 11:27:52 +0000";
layers = (
{
attr = {
color = 1;
};
layerId = "33AE93C6-B8B3-427A-A53B-F24970E840CE";
shapes = (
{
attr = {
gradient = {
colors = (
(
(64,255),
0
),
(
(191,255),
1
)
);
end = (0.5074,0.9658);
start = (0.6091,0.0797);
};
identifier = ID0x600013385dc0;
};
closed = 1;
nodes = (
(76,700,l),
(77,700,l),
(77,0,l),
(53,0,l),
(53,677,l)
);
},
{
attr = {
gradient = {
colors = (
(
(64,255),
0
),
(
(191,255),
1
)
);
end = (0.8878,0.5878);
start = (0.0693,0.513);
};
identifier = ID0x600013385dc0;
};
closed = 1;
nodes = (
(220,677,l),
(220,676,l),
(77,676,l),
(77,700,l),
(197,700,l)
);
},
{
attr = {
gradient = {
colors = (
(
(64,255),
0
),
(
(191,255),
0.50056
),
(
(64,255),
1
)
);
end = (1.2582,0.0143);
start = (-0.3003,0.8873);
};
identifier = ID0x600013385dc0;
};
closed = 1;
nodes = (
(197,0,l),
(196,0,l),
(196,676,l),
(220,676,l),
(220,0,l)
);
},
{
attr = {
gradient = {
colors = (
(
(191,255),
0
),
(
(64,255),
1
)
);
end = (0.8878,0.5878);
start = (0.0693,0.513);
};
identifier = ID0x600013385dc0;
};
closed = 1;
nodes = (
(77,353,l),
(77,376,l),
(77,377,l),
(196,377,l),
(196,353,l)
);
},
{
attr = {
gradient = {
colors = (
(
(191,255),
0
),
(
(64,255),
1
)
);
end = (0.8593,0.0383);
start = (0.1213,0.9446);
};
identifier = ID0x600013385ea0;
};
closed = 1;
nodes = (
(91,783,l),
(60,819,l),
(60,820,l),
(92,820,l),
(123,783,l)
);
},
{
attr = {
gradient = {
colors = (
(
(191,255),
0
),
(
(64,255),
1
)
);
end = (0.107,0.0319);
start = (0.5888,0.9521);
};
identifier = ID0x600013385ea0;
};
closed = 1;
nodes = (
(184,820,l),
(216,820,l),
(216,819,l),
(185,783,l),
(153,783,l)
);
},
{
attr = {
gradient = {
colors = (
(
(191,255),
0
),
(
(64,255),
1
)
);
end = (0.7849,0.1074);
start = (0.2241,0.0674);
};
identifier = ID0x600013385ea0;
};
closed = 1;
nodes = (
(110,761,l),
(91,783,l),
(185,783,l),
(166,761,l)
);
},
{
attr = {
gradient = {
colors = (
(
(64,255),
0
),
(
(191,255),
1
)
);
end = (0.2296,0.0026);
start = (0.9852,0.6189);
};
identifier = ID0x600013385ea0;
};
closed = 1;
nodes = (
(78,882,l),
(102,883,l),
(102,831,l),
(78,831,l)
);
},
{
attr = {
gradient = {
colors = (
(
(64,255),
0
),
(
(191,255),
1
)
);
end = (0.8068,0.953);
start = (0.1553,0.418);
};
identifier = ID0x600013385ea0;
};
closed = 1;
nodes = (
(198,840,l),
(174,840,l),
(174,892,l),
(198,892,l)
);
},
{
attr = {
gradient = {
colors = (
(
(64,255),
0
),
(
(191,255),
1
)
);
end = (0.4877,0.9217);
start = (0.4155,-0.0037);
};
identifier = ID0x600013385ea0;
};
closed = 1;
nodes = (
(78,883,l),
(100,892,l),
(101,892,l),
(197,840,l),
(197,839,l),
(175,830,l),
(174,830,l),
(78,882,l)
);
}
);
width = 273;
},
{
attr = {
color = 1;
};
layerId = "E87239EE-82B8-404C-B23A-53843E270889";
shapes = (
{
attr = {
gradient = {
colors = (
(
(64,255),
0
),
(
(191,255),
1
)
);
end = (0.4877,0.9217);
start = (0.4155,-0.0037);
};
identifier = ID0x600013385f80;
};
closed = 1;
nodes = (
(278,730,l),
(279,730,l),
(279,0,l),
(25,0,l),
(25,523,l)
);
},
{
attr = {
gradient = {
colors = (
(
(64,255),
0
),
(
(191,255),
1
)
);
end = (0.8878,0.5878);
start = (0.0693,0.513);
};
identifier = ID0x600013385f80;
};
closed = 1;
nodes = (
(882,487,l),
(882,486,l),
(279,486,l),
(279,730,l),
(680,730,l)
);
},
{
attr = {
gradient = {
colors = (
(
(64,255),
0
),
(
(191,255),
1
)
);
end = (0.3691,0.1797);
start = (0.4192,0.8964);
};
identifier = ID0x600013385f80;
};
closed = 1;
nodes = (
(628,0,l),
(628,486,l),
(629,486,l),
(882,486,l),
(882,0,l)
);
},
{
attr = {
gradient = {
colors = (
(
(64,255),
0
),
(
(191,255),
1
)
);
end = (0.0383,0.0895);
start = (0.8943,0.4519);
};
identifier = ID0x600013385f80;
};
closed = 1;
nodes = (
(279,173,l),
(279,417,l),
(628,417,l),
(628,416,l),
(628,173,l)
);
},
{
attr = {
gradient = {
colors = (
(
(191,255),
0
),
(
(64,255),
1
)
);
end = (0.6682,0.0394);
start = (0.411,0.9896);
};
identifier = ID0x600013386060;
};
closed = 1;
nodes = (
(283,822,l),
(226,890,l),
(226,892,l),
(332,892,l),
(389,822,l)
);
},
{
attr = {
gradient = {
colors = (
(
(191,255),
0
),
(
(64,255),
1
)
);
end = (0.7142,0.0062);
start = (0.3859,0.9654);
};
identifier = ID0x600013386060;
};
closed = 1;
nodes = (
(529,878,l),
(634,878,l),
(634,877,l),
(600,822,l),
(494,822,l)
);
},
{
attr = {
gradient = {
colors = (
(
(64,255),
0
),
(
(191,255),
1
)
);
end = (0.1437,0.437);
start = (0.8674,0.4621);
};
identifier = ID0x600013386060;
};
closed = 1;
nodes = (
(334,760,l),
(283,822,l),
(600,822,l),
(559,760,l)
);
},
{
attr = {
gradient = {
colors = (
(
(64,255),
0
),
(
(191,255),
1
)
);
end = (0.2296,0.0026);
start = (0.8243,0.8062);
};
identifier = ID0x600013386060;
};
closed = 1;
nodes = (
(390,964,l),
(485,955,l),
(485,878,l),
(390,878,l)
);
},
{
attr = {
gradient = {
colors = (
(
(64,255),
0
),
(
(191,255),
1
)
);
end = (0.6972,1.0012);
start = (0.2154,0.4168);
};
identifier = ID0x600013386060;
};
closed = 1;
nodes = (
(765,896,l),
(660,907,l),
(660,980,l),
(765,980,l)
);
},
{
attr = {
gradient = {
colors = (
(
(191,255),
0
),
(
(64,255),
0.52095
),
(
(191,255),
1
)
);
end = (0.0579,0.8331);
start = (0.9811,0.2527);
};
identifier = ID0x600013386060;
};
closed = 1;
nodes = (
(390,965,l),
(495,984,l),
(496,984,l),
(765,907,l),
(765,896,l),
(693,879,l),
(692,879,l),
(390,964,l)
);
}
);
width = 907;
}
);
unicode = 7860;
},
{
glyphname = Acircumflex;
lastChange = "2022-04-06 11:27:52 +0000";
layers = (
{
attr = {
color = 1;
};
layerId = "33AE93C6-B8B3-427A-A53B-F24970E840CE";
shapes = (
{
attr = {
gradient = {
colors = (
(
(64,255),
0
),
(
(191,255),
1
)
);
end = (0.5074,0.9658);
start = (0.6091,0.0797);
};
identifier = ID0x600013386140;
};
closed = 1;
nodes = (
(76,700,l),
(77,700,l),
(77,0,l),
(53,0,l),
(53,677,l)
);
},
{
attr = {
gradient = {
colors = (
(
(64,255),
0
),
(
(191,255),
1
)
);
end = (0.8878,0.5878);
start = (0.0693,0.513);
};
identifier = ID0x600013386140;
};
closed = 1;
nodes = (
(220,677,l),
(220,676,l),
(77,676,l),
(77,700,l),
(197,700,l)
);
},
{
attr = {
gradient = {
colors = (
(
(64,255),
0
),
(
(191,255),
0.50056
),
(
(64,255),
1
)
);
end = (1.2582,0.0143);
start = (-0.3003,0.8873);
};
identifier = ID0x600013386140;
};
closed = 1;
nodes = (
(197,0,l),
(196,0,l),
(196,676,l),
(220,676,l),
(220,0,l)
);
},
{
attr = {
gradient = {
colors = (
(
(191,255),
0
),
(
(64,255),
1
)
);
end = (0.8878,0.5878);
start = (0.0693,0.513);
};
identifier = ID0x600013386140;
};
closed = 1;
nodes = (
(77,353,l),
(77,376,l),
(77,377,l),
(196,377,l),
(196,353,l)
);
},
{
attr = {
gradient = {
colors = (
(
(191,255),
0
),
(
(64,255),
1
)
);
end = (0.077,1.0037);
start = (0.8521,0.1516);
};
identifier = ID0x600013386220;
};
closed = 1;
nodes = (
(168,760,l),
(124,850,l),
(147,850,l),
(148,850,l),
(192,761,l),
(192,760,l)
);
},
{
attr = {
gradient = {
colors = (
(
(64,255),
0
),
(
(191,255),
1
)
);
end = (0.9007,0.953);
start = (-0.0063,0.0106);
};
identifier = ID0x600013386220;
};
closed = 1;
nodes = (
(78,761,l),
(124,850,l),
(147,850,l),
(102,760,l),
(78,760,l)
);
}
);
width = 273;
},
{
attr = {
color = 1;
};
layerId = "E87239EE-82B8-404C-B23A-53843E270889";
shapes = (
{
attr = {
gradient = {
colors = (
(
(64,255),
0
),
(
(191,255),
1
)
);
end = (0.4877,0.9217);
start = (0.4155,-0.0037);
};
identifier = ID0x600013386300;
};
closed = 1;
nodes = (
(278,730,l),
(279,730,l),
(279,0,l),
(25,0,l),
(25,523,l)
);
},
{
attr = {
gradient = {
colors = (
(
(64,255),
0
),
(
(191,255),
1
)
);
end = (0.8878,0.5878);
start = (0.0693,0.513);
};
identifier = ID0x600013386300;
};
closed = 1;
nodes = (
(882,487,l),
(882,486,l),
(279,486,l),
(279,730,l),
(680,730,l)
);
},
{
attr = {
gradient = {
colors = (
(
(64,255),
0
),
(
(191,255),
1
)
);
end = (0.3691,0.1797);
start = (0.4192,0.8964);
};
identifier = ID0x600013386300;
};
closed = 1;
nodes = (
(628,0,l),
(628,486,l),
(629,486,l),
(882,486,l),
(882,0,l)
);
},
{
attr = {
gradient = {
colors = (
(
(64,255),
0
),
(
(191,255),
1
)
);
end = (0.0383,0.0895);
start = (0.8943,0.4519);
};
identifier = ID0x600013386300;
};
closed = 1;
nodes = (
(279,173,l),
(279,417,l),
(628,417,l),
(628,416,l),
(628,173,l)
);
},
{
attr = {
gradient = {
colors = (
(
(191,255),
0
),
(
(64,255),
1
)
);
end = (0.1166,0.52);
start = (0.7807,0.4498);
};
identifier = ID0x6000133863e0;
};
closed = 1;
nodes = (
(559,760,l),
(425,867,l),
(517,900,l),
(558,900,l),
(716,761,l),
(716,760,l)
);
},
{
attr = {
gradient = {
colors = (
(
(64,255),
0
),
(
(191,255),
1
)
);
end = (0.6682,0.9872);
start = (0.2597,-0.011);
};
identifier = ID0x6000133863e0;
};
closed = 1;
nodes = (
(250,761,l),
(404,900,l),
(558,900,l),
(404,760,l),
(250,760,l)
);
}
);
width = 907;
}
);
unicode = 194;
},
{
glyphname = Acircumflexacute;
lastChange = "2022-04-06 11:27:52 +0000";
layers = (
{
attr = {
color = 1;
};
layerId = "33AE93C6-B8B3-427A-A53B-F24970E840CE";
shapes = (
{
attr = {
gradient = {
colors = (
(
(64,255),
0
),
(
(191,255),
1
)
);
end = (0.5074,0.9658);
start = (0.6091,0.0797);
};
identifier = ID0x6000133864c0;
};
closed = 1;
nodes = (
(76,700,l),
(77,700,l),
(77,0,l),
(53,0,l),
(53,677,l)
);
},
{
attr = {
gradient = {
colors = (
(
(64,255),
0
),
(
(191,255),
1
)
);
end = (0.8878,0.5878);
start = (0.0693,0.513);
};
identifier = ID0x6000133864c0;
};
closed = 1;
nodes = (
(220,677,l),
(220,676,l),
(77,676,l),
(77,700,l),
(197,700,l)
);
},
{
attr = {
gradient = {
colors = (
(
(64,255),
0
),
(
(191,255),
0.50056
),
(
(64,255),
1
)
);
end = (1.2582,0.0143);
start = (-0.3003,0.8873);
};
identifier = ID0x6000133864c0;
};
closed = 1;
nodes = (
(197,0,l),
(196,0,l),
(196,676,l),
(220,676,l),
(220,0,l)
);
},
{
attr = {
gradient = {
colors = (
(
(191,255),
0
),
(
(64,255),
1
)
);
end = (0.8878,0.5878);
start = (0.0693,0.513);
};
identifier = ID0x6000133864c0;
};
closed = 1;
nodes = (
(77,353,l),
(77,376,l),
(77,377,l),
(196,377,l),
(196,353,l)
);
},
{
attr = {
gradient = {
colors = (
(
(191,255),
0
),
(
(64,255),
1
)
);
end = (0.7053,1.0789);
start = (0.3543,0.0329);
};
identifier = ID0x6000133865a0;
};
closed = 1;
nodes = (
(214,900,l),
(242,900,l),
(242,899,l),
(210,810,l),
(189,810,l)
);
},
{
attr = {
gradient = {
colors = (
(
(191,255),
0
),
(
(64,255),
1
)
);
end = (0.077,1.0037);
start = (0.8521,0.1516);
};
identifier = ID0x6000133865a0;
};
closed = 1;
nodes = (
(171,770,l),
(127,860,l),
(150,860,l),
(151,860,l),
(195,771,l),
(195,770,l)
);
},
{
attr = {
gradient = {
colors = (
(
(64,255),
0
),
(
(191,255),
1
)
);
end = (0.9007,0.953);
start = (-0.0063,0.0106);
};
identifier = ID0x6000133865a0;
};
closed = 1;
nodes = (
(81,771,l),
(127,860,l),
(151,859,l),
(105,770,l),
(81,770,l)
);
}
);
width = 273;
},
{
attr = {
color = 1;
};
layerId = "E87239EE-82B8-404C-B23A-53843E270889";
shapes = (
{
attr = {
gradient = {
colors = (
(
(64,255),
0
),
(
(191,255),
1
)
);
end = (0.4877,0.9217);
start = (0.4155,-0.0037);
};
identifier = ID0x600013386680;
};
closed = 1;
nodes = (
(278,730,l),
(279,730,l),
(279,0,l),
(25,0,l),
(25,523,l)
);
},
{
attr = {
gradient = {
colors = (
(
(64,255),
0
),
(
(191,255),
1
)
);
end = (0.8878,0.5878);
start = (0.0693,0.513);
};
identifier = ID0x600013386680;
};
closed = 1;
nodes = (
(882,487,l),
(882,486,l),
(279,486,l),
(279,730,l),
(680,730,l)
);
},
{
attr = {
gradient = {
colors = (
(
(64,255),
0
),
(
(191,255),
1
)
);
end = (0.3691,0.1797);
start = (0.4192,0.8964);
};
identifier = ID0x600013386680;
};
closed = 1;
nodes = (
(628,0,l),
(628,486,l),
(629,486,l),
(882,486,l),
(882,0,l)
);
},
{
attr = {
gradient = {
colors = (
(
(64,255),
0
),
(
(191,255),
1
)
);
end = (0.0383,0.0895);
start = (0.8943,0.4519);
};
identifier = ID0x600013386680;
};
closed = 1;
nodes = (
(279,173,l),
(279,417,l),
(628,417,l),
(628,416,l),
(628,173,l)
);
},
{
attr = {
gradient = {
colors = (
(
(191,255),
0
),
(
(64,255),
1
)
);
end = (0.9273,0.9922);
start = (0.3543,0.0329);
};
identifier = ID0x600013386760;
};
closed = 1;
nodes = (
(665,900,l),
(861,900,l),
(861,899,l),
(778,808,l),
(632,808,l)
);
},
{
attr = {
gradient = {
colors = (
(
(191,255),
0
),
(
(64,255),
1
)
);
end = (0.2769,0.5572);
start = (0.7807,0.4498);
};
identifier = ID0x600013386760;
};
closed = 1;
nodes = (
(509,755,l),
(405,852,l),
(487,883,l),
(538,883,l),
(666,756,l),
(666,755,l)
);
},
{
attr = {
gradient = {
colors = (
(
(64,255),
0
),
(
(191,255),
1
)
);
end = (0.6471,0.9661);
start = (0.2597,-0.011);
};
identifier = ID0x600013386760;
};
closed = 1;
nodes = (
(240,756,l),
(374,883,l),
(538,883,l),
(394,755,l),
(240,755,l)
);
}
);
width = 907;
}
);
unicode = 7844;
},
{
glyphname = Acircumflexdotbelow;
lastChange = "2022-04-06 11:27:52 +0000";
layers = (
{
attr = {
color = 1;
};
layerId = "33AE93C6-B8B3-427A-A53B-F24970E840CE";
shapes = (
{
attr = {
gradient = {
colors = (
(
(64,255),
0
),
(
(191,255),
1
)
);
end = (0.5074,0.9658);
start = (0.6091,0.0797);
};
identifier = ID0x600013386840;
};
closed = 1;
nodes = (
(76,700,l),
(77,700,l),
(77,0,l),
(53,0,l),
(53,677,l)
);
},
{
attr = {
gradient = {
colors = (
(
(64,255),
0
),
(
(191,255),
1
)
);
end = (0.8878,0.5878);
start = (0.0693,0.513);
};
identifier = ID0x600013386840;
};
closed = 1;
nodes = (
(220,677,l),
(220,676,l),
(77,676,l),
(77,700,l),
(197,700,l)
);
},
{
attr = {
gradient = {
colors = (
(
(64,255),
0
),
(
(191,255),
0.50056
),
(
(64,255),
1
)
);
end = (1.2582,0.0143);
start = (-0.3003,0.8873);
};
identifier = ID0x600013386840;
};
closed = 1;
nodes = (
(197,0,l),
(196,0,l),
(196,676,l),
(220,676,l),
(220,0,l)
);
},
{
attr = {
gradient = {
colors = (
(
(191,255),
0
),
(
(64,255),
1
)
);
end = (0.8878,0.5878);
start = (0.0693,0.513);
};
identifier = ID0x600013386840;
};
closed = 1;
nodes = (
(77,353,l),
(77,376,l),
(77,377,l),
(196,377,l),
(196,353,l)
);
},
{
attr = {
gradient = {
colors = (
(
(191,255),
0
),
(
(64,255),
1
)
);
end = (1.0106,0.0609);
start = (0.045,0.9981);
};
identifier = ID0x600013386920;
};
closed = 1;
nodes = (
(121,-119,l),
(121,-85,l),
(151,-85,l),
(151,-119,l)
);
},
{
attr = {
gradient = {
colors = (
(
(191,255),
0
),
(
(64,255),
1
)
);
end = (0.077,1.0037);
start = (0.8521,0.1516);
};
identifier = ID0x600013386a00;
};
closed = 1;
nodes = (
(168,760,l),
(124,850,l),
(147,850,l),
(148,850,l),
(192,761,l),
(192,760,l)
);
},
{
attr = {
gradient = {
colors = (
(
(64,255),
0
),
(
(191,255),
1
)
);
end = (0.9007,0.953);
start = (-0.0063,0.0106);
};
identifier = ID0x600013386a00;
};
closed = 1;
nodes = (
(78,761,l),
(124,850,l),
(147,850,l),
(102,760,l),
(78,760,l)
);
}
);
width = 273;
},
{
attr = {
color = 1;
};
layerId = "E87239EE-82B8-404C-B23A-53843E270889";
shapes = (
{
attr = {
gradient = {
colors = (
(
(64,255),
0
),
(
(191,255),
1
)
);
end = (0.4877,0.9217);
start = (0.4155,-0.0037);
};
identifier = ID0x600013386ae0;
};
closed = 1;
nodes = (
(278,730,l),
(279,730,l),
(279,0,l),
(25,0,l),
(25,523,l)
);
},
{
attr = {
gradient = {
colors = (
(
(64,255),
0
),
(
(191,255),
1
)
);
end = (0.8878,0.5878);
start = (0.0693,0.513);
};
identifier = ID0x600013386ae0;
};
closed = 1;
nodes = (
(882,487,l),
(882,486,l),
(279,486,l),
(279,730,l),
(680,730,l)
);
},
{
attr = {
gradient = {
colors = (
(
(64,255),
0
),
(
(191,255),
1
)
);
end = (0.3691,0.1797);
start = (0.4192,0.8964);
};
identifier = ID0x600013386ae0;
};
closed = 1;
nodes = (
(628,0,l),
(628,486,l),
(629,486,l),
(882,486,l),
(882,0,l)
);
},
{
attr = {
gradient = {
colors = (
(
(64,255),
0
),
(
(191,255),
1
)
);
end = (0.0383,0.0895);
start = (0.8943,0.4519);
};
identifier = ID0x600013386ae0;
};
closed = 1;
nodes = (
(279,173,l),
(279,417,l),
(628,417,l),
(628,416,l),
(628,173,l)
);
},
{
attr = {
gradient = {
colors = (
(
(191,255),
0
),
(
(64,255),
1
)
);
end = (0.8798,-0.0104);
start = (0.1135,0.9935);
};
identifier = ID0x600013386bc0;
};
closed = 1;
nodes = (
(364,-172,l),
(364,-40,l),
(540,-40,l),
(540,-172,l)
);
},
{
attr = {
gradient = {
colors = (
(
(191,255),
0
),
(
(64,255),
1
)
);
end = (0.1166,0.52);
start = (0.7807,0.4498);
};
identifier = ID0x600013386ca0;
};
closed = 1;
nodes = (
(559,760,l),
(425,867,l),
(517,900,l),
(558,900,l),
(716,761,l),
(716,760,l)
);
},
{
attr = {
gradient = {
colors = (
(
(64,255),
0
),
(
(191,255),
1
)
);
end = (0.6682,0.9872);
start = (0.2597,-0.011);
};
identifier = ID0x600013386ca0;
};
closed = 1;
nodes = (
(250,761,l),
(404,900,l),
(558,900,l),
(404,760,l),
(250,760,l)
);
}
);
width = 907;
}
);
unicode = 7852;
},
{
glyphname = Acircumflexgrave;
lastChange = "2022-04-06 11:27:52 +0000";
layers = (
{
attr = {
color = 1;
};
layerId = "33AE93C6-B8B3-427A-A53B-F24970E840CE";
shapes = (
{
attr = {
gradient = {
colors = (
(
(64,255),
0
),
(
(191,255),
1
)
);
end = (0.5074,0.9658);
start = (0.6091,0.0797);
};
identifier = ID0x600013386d80;
};
closed = 1;
nodes = (
(76,700,l),
(77,700,l),
(77,0,l),
(53,0,l),
(53,677,l)
);
},
{
attr = {
gradient = {
colors = (
(
(64,255),
0
),
(
(191,255),
1
)
);
end = (0.8878,0.5878);
start = (0.0693,0.513);
};
identifier = ID0x600013386d80;
};
closed = 1;
nodes = (
(220,677,l),
(220,676,l),
(77,676,l),
(77,700,l),
(197,700,l)
);
},
{
attr = {
gradient = {
colors = (
(
(64,255),
0
),
(
(191,255),
0.50056
),
(
(64,255),
1
)
);
end = (1.2582,0.0143);
start = (-0.3003,0.8873);
};
identifier = ID0x600013386d80;
};
closed = 1;
nodes = (
(197,0,l),
(196,0,l),
(196,676,l),
(220,676,l),
(220,0,l)
);
},
{
attr = {
gradient = {
colors = (
(
(191,255),
0
),
(
(64,255),
1
)
);
end = (0.8878,0.5878);
start = (0.0693,0.513);
};
identifier = ID0x600013386d80;
};
closed = 1;
nodes = (
(77,353,l),
(77,376,l),
(77,377,l),
(196,377,l),
(196,353,l)
);
},
{
attr = {
gradient = {
colors = (
(
(191,255),
0
),
(
(64,255),
1
)
);
end = (0.7053,1.0789);
start = (0.3543,0.0329);
};
identifier = ID0x600013386e60;
};
closed = 1;
nodes = (
(202,810,l),
(170,899,l),
(170,900,l),
(198,900,l),
(223,810,l)
);
},
{
attr = {
gradient = {
colors = (
(
(191,255),
0
),
(
(64,255),
1
)
);
end = (0.077,1.0037);
start = (0.8521,0.1516);
};
identifier = ID0x600013386e60;
};
closed = 1;
nodes = (
(172,744,l),
(128,834,l),
(151,834,l),
(152,834,l),
(196,745,l),
(196,744,l)
);
},
{
attr = {
gradient = {
colors = (
(
(64,255),
0
),
(
(191,255),
1
)
);
end = (0.9007,0.953);
start = (-0.0063,0.0106);
};
identifier = ID0x600013386e60;
};
closed = 1;
nodes = (
(82,745,l),
(128,834,l),
(151,834,l),
(106,744,l),
(82,744,l)
);
}
);
width = 273;
},
{
attr = {
color = 1;
};
layerId = "E87239EE-82B8-404C-B23A-53843E270889";
shapes = (
{
attr = {
gradient = {
colors = (
(
(64,255),
0
),
(
(191,255),
1
)
);
end = (0.4877,0.9217);
start = (0.4155,-0.0037);
};
identifier = ID0x600013386f40;
};
closed = 1;
nodes = (
(278,730,l),
(279,730,l),
(279,0,l),
(25,0,l),
(25,523,l)
);
},
{
attr = {
gradient = {
colors = (
(
(64,255),
0
),
(
(191,255),
1
)
);
end = (0.8878,0.5878);
start = (0.0693,0.513);
};
identifier = ID0x600013386f40;
};
closed = 1;
nodes = (
(882,487,l),
(882,486,l),
(279,486,l),
(279,730,l),
(680,730,l)
);
},
{
attr = {
gradient = {
colors = (
(
(64,255),
0
),
(
(191,255),
1
)
);
end = (0.3691,0.1797);
start = (0.4192,0.8964);
};
identifier = ID0x600013386f40;
};
closed = 1;
nodes = (
(628,0,l),
(628,486,l),
(629,486,l),
(882,486,l),
(882,0,l)
);
},
{
attr = {
gradient = {
colors = (
(
(64,255),
0
),
(
(191,255),
1
)
);
end = (0.0383,0.0895);
start = (0.8943,0.4519);
};
identifier = ID0x600013386f40;
};
closed = 1;
nodes = (
(279,173,l),
(279,417,l),
(628,417,l),
(628,416,l),
(628,173,l)
);
},
{
attr = {
gradient = {
colors = (
(
(191,255),
0
),
(
(64,255),
1
)
);
end = (0.9356,0.1167);
start = (0.1313,0.8899);
};
identifier = ID0x600013387020;
};
closed = 1;
nodes = (
(685,795,l),
(602,899,l),
(602,900,l),
(778,900,l),
(801,795,l)
);
},
{
attr = {
gradient = {
colors = (
(
(191,255),
0
),
(
(64,255),
1
)
);
end = (0.2769,0.5572);
start = (0.7807,0.4498);
};
identifier = ID0x600013387020;
};
closed = 1;
nodes = (
(509,755,l),
(405,852,l),
(487,883,l),
(538,883,l),
(666,756,l),
(666,755,l)
);
},
{
attr = {
gradient = {
colors = (
(
(64,255),
0
),
(
(191,255),
1
)
);
end = (0.6471,0.9661);
start = (0.2597,-0.011);
};
identifier = ID0x600013387020;
};
closed = 1;
nodes = (
(240,756,l),
(374,883,l),
(538,883,l),
(394,755,l),
(240,755,l)
);
}
);
width = 907;
}
);
unicode = 7846;
},
{
glyphname = Acircumflexhookabove;
lastChange = "2022-04-06 11:27:52 +0000";
layers = (
{
attr = {
color = 1;
};
layerId = "33AE93C6-B8B3-427A-A53B-F24970E840CE";
shapes = (
{
attr = {
gradient = {
colors = (
(
(64,255),
0
),
(
(191,255),
1
)
);
end = (0.5074,0.9658);
start = (0.6091,0.0797);
};
identifier = ID0x600013387100;
};
closed = 1;
nodes = (
(76,700,l),
(77,700,l),
(77,0,l),
(53,0,l),
(53,677,l)
);
},
{
attr = {
gradient = {
colors = (
(
(64,255),
0
),
(
(191,255),
1
)
);
end = (0.8878,0.5878);
start = (0.0693,0.513);
};
identifier = ID0x600013387100;
};
closed = 1;
nodes = (
(220,677,l),
(220,676,l),
(77,676,l),
(77,700,l),
(197,700,l)
);
},
{
attr = {
gradient = {
colors = (
(
(64,255),
0
),
(
(191,255),
0.50056
),
(
(64,255),
1
)
);
end = (1.2582,0.0143);
start = (-0.3003,0.8873);
};
identifier = ID0x600013387100;
};
closed = 1;
nodes = (
(197,0,l),
(196,0,l),
(196,676,l),
(220,676,l),
(220,0,l)
);
},
{
attr = {
gradient = {
colors = (
(
(191,255),
0
),
(
(64,255),
1
)
);
end = (0.8878,0.5878);
start = (0.0693,0.513);
};
identifier = ID0x600013387100;
};
closed = 1;
nodes = (
(77,353,l),
(77,376,l),
(77,377,l),
(196,377,l),
(196,353,l)
);
},
{
attr = {
gradient = {
colors = (
(
(191,255),
0
),
(
(64,255),
1
)
);
end = (0.077,1.0037);
start = (0.8521,0.1516);
};
identifier = ID0x6000133871e0;
};
closed = 1;
nodes = (
(173,760,l),
(129,850,l),
(152,850,l),
(153,850,l),
(197,761,l),
(197,760,l)
);
},
{
attr = {
gradient = {
colors = (
(
(64,255),
0
),
(
(191,255),
1
)
);
end = (0.9007,0.953);
start = (-0.0063,0.0106);
};
identifier = ID0x6000133871e0;
};
closed = 1;
nodes = (
(83,761,l),
(129,850,l),
(152,850,l),
(107,760,l),
(83,760,l)
);
},
{
attr = {
gradient = {
colors = (
(
(64,255),
0
),
(
(191,255),
1
)
);
end = (0.0416,0.8836);
start = (0.6428,0.1867);
};
identifier = ID0x6000133871e0;
};
closed = 1;
nodes = (
(173,876,l),
(173,900,l),
(232,900,l),
(250,877,l),
(250,876,l)
);
},
{
attr = {
gradient = {
colors = (
(
(191,255),
0
),
(
(64,255),
1
)
);
end = (0.2224,-0.0167);
start = (0.6536,0.9461);
};
identifier = ID0x6000133871e0;
};
closed = 1;
nodes = (
(194,805,l),
(194,806,l),
(232,900,l),
(250,877,l),
(250,876,l),
(217,805,l)
);
}
);
width = 273;
},
{
attr = {
color = 1;
};
layerId = "E87239EE-82B8-404C-B23A-53843E270889";
shapes = (
{
attr = {
gradient = {
colors = (
(
(64,255),
0
),
(
(191,255),
1
)
);
end = (0.4877,0.9217);
start = (0.4155,-0.0037);
};
identifier = ID0x6000133872c0;
};
closed = 1;
nodes = (
(278,730,l),
(279,730,l),
(279,0,l),
(25,0,l),
(25,523,l)
);
},
{
attr = {
gradient = {
colors = (
(
(64,255),
0
),
(
(191,255),
1
)
);
end = (0.8878,0.5878);
start = (0.0693,0.513);
};
identifier = ID0x6000133872c0;
};
closed = 1;
nodes = (
(882,487,l),
(882,486,l),
(279,486,l),
(279,730,l),
(680,730,l)
);
},
{
attr = {
gradient = {
colors = (
(
(64,255),
0
),
(
(191,255),
1
)
);
end = (0.3691,0.1797);
start = (0.4192,0.8964);
};
identifier = ID0x6000133872c0;
};
closed = 1;
nodes = (
(628,0,l),
(628,486,l),
(629,486,l),
(882,486,l),
(882,0,l)
);
},
{
attr = {
gradient = {
colors = (
(
(64,255),
0
),
(
(191,255),
1
)
);
end = (0.0383,0.0895);
start = (0.8943,0.4519);
};
identifier = ID0x6000133872c0;
};
closed = 1;
nodes = (
(279,173,l),
(279,417,l),
(628,417,l),
(628,416,l),
(628,173,l)
);
},
{
attr = {
gradient = {
colors = (
(
(191,255),
0
),
(
(64,255),
1
)
);
end = (0.1946,0.6066);
start = (0.7293,-0.016);
};
identifier = ID0x6000133873a0;
};
closed = 1;
nodes = (
(548,755,l),
(414,838,l),
(474,854,l),
(543,873,l),
(682,766,l),
(682,755,l)
);
},
{
attr = {
gradient = {
colors = (
(
(64,255),
0
),
(
(191,255),
1
)
);
end = (0.68,0.9557);
start = (0.022,0.1164);
};
identifier = ID0x6000133873a0;
};
closed = 1;
nodes = (
(250,766,l),
(384,873,l),
(543,873,l),
(384,755,l),
(250,755,l)
);
},
{
attr = {
gradient = {
colors = (
(
(64,255),
0
),
(
(191,255),
1
)
);
end = (0.0611,0.8551);
start = (0.4734,0.0581);
};
identifier = ID0x6000133873a0;
};
closed = 1;
nodes = (
(496,898,l),
(496,980,l),
(717,980,l),
(774,899,l),
(774,898,l)
);
},
{
attr = {
gradient = {
colors = (
(
(191,255),
0
),
(
(64,255),
1
)
);
end = (0.372,0.0258);
start = (0.6171,0.8745);
};
identifier = ID0x6000133873a0;
};
closed = 1;
nodes = (
(610,824,l),
(609,824,l),
(717,980,l),
(774,899,l),
(774,898,l),
(697,824,l)
);
}
);
width = 907;
}
);
unicode = 7848;
},
{
glyphname = Acircumflextilde;
lastChange = "2022-04-06 11:27:52 +0000";
layers = (
{
attr = {
color = 1;
};
layerId = "33AE93C6-B8B3-427A-A53B-F24970E840CE";
shapes = (
{
attr = {
gradient = {
colors = (
(
(64,255),
0
),
(
(191,255),
1
)
);
end = (0.5074,0.9658);
start = (0.6091,0.0797);
};
identifier = ID0x600013387480;
};
closed = 1;
nodes = (
(76,700,l),
(77,700,l),
(77,0,l),
(53,0,l),
(53,677,l)
);
},
{
attr = {
gradient = {
colors = (
(
(64,255),
0
),
(
(191,255),
1
)
);
end = (0.8878,0.5878);
start = (0.0693,0.513);
};
identifier = ID0x600013387480;
};
closed = 1;
nodes = (
(220,677,l),
(220,676,l),
(77,676,l),
(77,700,l),
(197,700,l)
);
},
{
attr = {
gradient = {
colors = (
(
(64,255),
0
),
(
(191,255),
0.50056
),
(
(64,255),
1
)
);
end = (1.2582,0.0143);
start = (-0.3003,0.8873);
};
identifier = ID0x600013387480;
};
closed = 1;
nodes = (
(197,0,l),
(196,0,l),
(196,676,l),
(220,676,l),
(220,0,l)
);
},
{
attr = {
gradient = {
colors = (
(
(191,255),
0
),
(
(64,255),
1
)
);
end = (0.8878,0.5878);
start = (0.0693,0.513);
};
identifier = ID0x600013387480;
};
closed = 1;
nodes = (
(77,353,l),
(77,376,l),
(77,377,l),
(196,377,l),
(196,353,l)
);
},
{
attr = {
gradient = {
colors = (
(
(64,255),
0
),
(
(191,255),
1
)
);
end = (0.2296,0.0026);
start = (0.9852,0.6189);
};
identifier = ID0x600013387560;
};
closed = 1;
nodes = (
(72,890,l),
(96,891,l),
(96,839,l),
(72,839,l)
);
},
{
attr = {
gradient = {
colors = (
(
(64,255),
0
),
(
(191,255),
1
)
);
end = (0.8068,0.953);
start = (0.1553,0.418);
};
identifier = ID0x600013387560;
};
closed = 1;
nodes = (
(192,848,l),
(168,848,l),
(168,900,l),
(192,900,l)
);
},
{
attr = {
gradient = {
colors = (
(
(64,255),
0
),
(
(191,255),
1
)
);
end = (0.4877,0.9217);
start = (0.4155,-0.0037);
};
identifier = ID0x600013387560;
};
closed = 1;
nodes = (
(72,891,l),
(94,900,l),
(95,900,l),
(191,848,l),
(191,847,l),
(169,838,l),
(168,838,l),
(72,890,l)
);
},
{
attr = {
gradient = {
colors = (
(
(191,255),
0
),
(
(64,255),
1
)
);
end = (0.077,1.0037);
start = (0.8521,0.1516);
};
identifier = ID0x600013387560;
};
closed = 1;
nodes = (
(174,740,l),
(120,815,l),
(150,815,l),
(204,741,l),
(204,740,l)
);
},
{
attr = {
gradient = {
colors = (
(
(64,255),
0
),
(
(191,255),
1
)
);
end = (0.9007,0.953);
start = (-0.0063,0.0106);
};
identifier = ID0x600013387560;
};
closed = 1;
nodes = (
(64,741,l),
(120,815,l),
(150,814,l),
(94,740,l),
(64,740,l)
);
}
);
width = 273;
},
{
attr = {
color = 1;
};
layerId = "E87239EE-82B8-404C-B23A-53843E270889";
shapes = (
{
attr = {
gradient = {
colors = (
(
(64,255),
0
),
(
(191,255),
1
)
);
end = (0.4877,0.9217);
start = (0.4155,-0.0037);
};
identifier = ID0x600013387640;
};
closed = 1;
nodes = (
(278,730,l),
(279,730,l),
(279,0,l),
(25,0,l),
(25,523,l)
);
},
{
attr = {
gradient = {
colors = (
(
(64,255),
0
),
(
(191,255),
1
)
);
end = (0.8878,0.5878);
start = (0.0693,0.513);
};
identifier = ID0x600013387640;
};
closed = 1;
nodes = (
(882,487,l),
(882,486,l),
(279,486,l),
(279,730,l),
(680,730,l)
);
},
{
attr = {
gradient = {
colors = (
(
(64,255),
0
),
(
(191,255),
1
)
);
end = (0.3691,0.1797);
start = (0.4192,0.8964);
};
identifier = ID0x600013387640;
};
closed = 1;
nodes = (
(628,0,l),
(628,486,l),
(629,486,l),
(882,486,l),
(882,0,l)
);
},
{
attr = {
gradient = {
colors = (
(
(64,255),
0
),
(
(191,255),
1
)
);
end = (0.0383,0.0895);
start = (0.8943,0.4519);
};
identifier = ID0x600013387640;
};
closed = 1;
nodes = (
(279,173,l),
(279,417,l),
(628,417,l),
(628,416,l),
(628,173,l)
);
},
{
attr = {
gradient = {
colors = (
(
(64,255),
0
),
(
(191,255),
1
)
);
end = (0.2296,0.0026);
start = (0.8243,0.8062);
};
identifier = ID0x600013387720;
};
closed = 1;
nodes = (
(286,954,l),
(366,945,l),
(366,868,l),
(286,868,l)
);
},
{
attr = {
gradient = {
colors = (
(
(64,255),
0
),
(
(191,255),
1
)
);
end = (0.6972,1.0012);
start = (0.1318,0.5871);
};
identifier = ID0x600013387720;
};
closed = 1;
nodes = (
(655,896,l),
(575,897,l),
(575,980,l),
(655,980,l)
);
},
{
attr = {
gradient = {
colors = (
(
(191,255),
0
),
(
(64,255),
0.52095
),
(
(191,255),
1
)
);
end = (0.2013,0.9834);
start = (0.8337,0.0203);
};
identifier = ID0x600013387720;
};
closed = 1;
nodes = (
(366,984,l),
(367,984,l),
(655,917,l),
(655,896,l),
(593,871,l),
(592,871,l),
(286,944,l),
(286,955,l)
);
},
{
attr = {
gradient = {
colors = (
(
(191,255),
0
),
(
(64,255),
1
)
);
end = (0.1946,0.6066);
start = (0.7293,-0.016);
};
identifier = ID0x600013387720;
};
closed = 1;
nodes = (
(548,755,l),
(414,818,l),
(538,853,l),
(682,766,l),
(682,755,l)
);
},
{
attr = {
gradient = {
colors = (
(
(64,255),
0
),
(
(191,255),
1
)
);
end = (0.68,0.9557);
start = (0.022,0.1164);
};
identifier = ID0x600013387720;
};
closed = 1;
nodes = (
(250,766,l),
(394,853,l),
(538,853,l),
(384,755,l),
(250,755,l)
);
}
);
width = 907;
}
);
unicode = 7850;
},
{
glyphname = Adblgrave;
lastChange = "2022-04-06 11:27:52 +0000";
layers = (
{
attr = {
color = 1;
};
layerId = "33AE93C6-B8B3-427A-A53B-F24970E840CE";
shapes = (
{
attr = {
gradient = {
colors = (
(
(64,255),
0
),
(
(191,255),
1
)
);
end = (0.5074,0.9658);
start = (0.6091,0.0797);
};
identifier = ID0x600013387800;
};
closed = 1;
nodes = (
(76,700,l),
(77,700,l),
(77,0,l),
(53,0,l),
(53,677,l)
);
},
{
attr = {
gradient = {
colors = (
(
(64,255),
0
),
(
(191,255),
1
)
);
end = (0.8878,0.5878);
start = (0.0693,0.513);
};
identifier = ID0x600013387800;
};
closed = 1;
nodes = (
(220,677,l),
(220,676,l),
(77,676,l),
(77,700,l),
(197,700,l)
);
},
{
attr = {
gradient = {
colors = (
(
(64,255),
0
),
(
(191,255),
0.50056
),
(
(64,255),
1
)
);
end = (1.2582,0.0143);
start = (-0.3003,0.8873);
};
identifier = ID0x600013387800;
};
closed = 1;
nodes = (
(197,0,l),
(196,0,l),
(196,676,l),
(220,676,l),
(220,0,l)
);
},
{
attr = {
gradient = {
colors = (
(
(191,255),
0
),
(
(64,255),
1
)
);
end = (0.8878,0.5878);
start = (0.0693,0.513);
};
identifier = ID0x600013387800;
};
closed = 1;
nodes = (
(77,353,l),
(77,376,l),
(77,377,l),
(196,377,l),
(196,353,l)
);
},
{
attr = {
gradient = {
colors = (
(
(191,255),
0
),
(
(64,255),
1
)
);
end = (0.7053,1.0789);
start = (0.3543,0.0329);
};
identifier = ID0x6000133878e0;
};
closed = 1;
nodes = (
(155,770,l),
(123,859,l),
(123,860,l),
(154,860,l),
(179,770,l)
);
},
{
attr = {
gradient = {
colors = (
(
(191,255),
0
),
(
(64,255),
1
)
);
end = (0.7053,1.0789);
start = (0.3543,0.0329);
};
identifier = ID0x6000133878e0;
};
closed = 1;
nodes = (
(98,770,l),
(66,859,l),
(66,860,l),
(97,860,l),
(122,770,l)
);
}
);
width = 273;
},
{
attr = {
color = 1;
};
layerId = "E87239EE-82B8-404C-B23A-53843E270889";
shapes = (
{
attr = {
gradient = {
colors = (
(
(64,255),
0
),
(
(191,255),
1
)
);
end = (0.4877,0.9217);
start = (0.4155,-0.0037);
};
identifier = ID0x6000133879c0;
};
closed = 1;
nodes = (
(278,730,l),
(279,730,l),
(279,0,l),
(25,0,l),
(25,523,l)
);
},
{
attr = {
gradient = {
colors = (
(
(64,255),
0
),
(
(191,255),
1
)
);
end = (0.8878,0.5878);
start = (0.0693,0.513);
};
identifier = ID0x6000133879c0;
};
closed = 1;
nodes = (
(882,487,l),
(882,486,l),
(279,486,l),
(279,730,l),
(680,730,l)
);
},
{
attr = {
gradient = {
colors = (
(
(64,255),
0
),
(
(191,255),
1
)
);
end = (0.3691,0.1797);
start = (0.4192,0.8964);
};
identifier = ID0x6000133879c0;
};
closed = 1;
nodes = (
(628,0,l),
(628,486,l),
(629,486,l),
(882,486,l),
(882,0,l)
);
},
{
attr = {
gradient = {
colors = (
(
(64,255),
0
),
(
(191,255),
1
)
);
end = (0.0383,0.0895);
start = (0.8943,0.4519);
};
identifier = ID0x6000133879c0;
};
closed = 1;
nodes = (
(279,173,l),
(279,417,l),
(628,417,l),
(628,416,l),
(628,173,l)
);
},
{
attr = {
gradient = {
colors = (
(
(191,255),
0
),
(
(64,255),
1
)
);
end = (0.9437,0.9462);
start = (0.4588,0.0634);
};
identifier = ID0x600013387aa0;
};
closed = 1;
nodes = (
(538,760,l),
(423,899,l),
(423,900,l),
(629,900,l),
(664,760,l)
);
},
{
attr = {
gradient = {
colors = (
(
(191,255),
0
),
(
(64,255),
1
)
);
end = (0.9441,0.9387);
start = (0.3543,0.0329);
};
identifier = ID0x600013387aa0;
};
closed = 1;
nodes = (
(308,760,l),
(193,899,l),
(193,900,l),
(399,900,l),
(434,760,l)
);
}
);
width = 907;
}
);
unicode = 512;
},
{
glyphname = Adieresis;
lastChange = "2022-04-06 11:27:52 +0000";
layers = (
{
attr = {
color = 1;
};
layerId = "33AE93C6-B8B3-427A-A53B-F24970E840CE";
shapes = (
{
attr = {
gradient = {
colors = (
(
(64,255),
0
),
(
(191,255),
1
)
);
end = (0.5074,0.9658);
start = (0.6091,0.0797);
};
identifier = ID0x600013387b80;
};
closed = 1;
nodes = (
(76,700,l),
(77,700,l),
(77,0,l),
(53,0,l),
(53,677,l)
);
},
{
attr = {
gradient = {
colors = (
(
(64,255),
0
),
(
(191,255),
1
)
);
end = (0.8878,0.5878);
start = (0.0693,0.513);
};
identifier = ID0x600013387b80;
};
closed = 1;
nodes = (
(220,677,l),
(220,676,l),
(77,676,l),
(77,700,l),
(197,700,l)
);
},
{
attr = {
gradient = {
colors = (
(
(64,255),
0
),
(
(191,255),
0.50056
),
(
(64,255),
1
)
);
end = (1.2582,0.0143);
start = (-0.3003,0.8873);
};
identifier = ID0x600013387b80;
};
closed = 1;
nodes = (
(197,0,l),
(196,0,l),
(196,676,l),
(220,676,l),
(220,0,l)
);
},
{
attr = {
gradient = {
colors = (
(
(191,255),
0
),
(
(64,255),
1
)
);
end = (0.8878,0.5878);
start = (0.0693,0.513);
};
identifier = ID0x600013387b80;
};
closed = 1;
nodes = (
(77,353,l),
(77,376,l),
(77,377,l),
(196,377,l),
(196,353,l)
);
},
{
attr = {
gradient = {
colors = (
(
(191,255),
0
),
(
(64,255),
1
)
);
end = (0.425,-0.0572);
start = (0.6213,1.0235);
};
identifier = ID0x600013387c60;
};
closed = 1;
nodes = (
(90,811,l),
(90,845,l),
(121,845,l),
(121,811,l)
);
},
{
attr = {
gradient = {
colors = (
(
(191,255),
0
),
(
(64,255),
1
)
);
end = (0.3707,-0.0282);
start = (0.6727,0.9761);
};
identifier = ID0x600013387c60;
};
closed = 1;
nodes = (
(155,811,l),
(155,845,l),
(186,845,l),
(186,811,l)
);
}
);
width = 273;
},
{
attr = {
color = 1;
};
layerId = "E87239EE-82B8-404C-B23A-53843E270889";
shapes = (
{
attr = {
gradient = {
colors = (
(
(64,255),
0
),
(
(191,255),
1
)
);
end = (0.4877,0.9217);
start = (0.4155,-0.0037);
};
identifier = ID0x600013387d40;
};
closed = 1;
nodes = (
(278,730,l),
(279,730,l),
(279,0,l),
(25,0,l),
(25,523,l)
);
},
{
attr = {
gradient = {
colors = (
(
(64,255),
0
),
(
(191,255),
1
)
);
end = (0.8878,0.5878);
start = (0.0693,0.513);
};
identifier = ID0x600013387d40;
};
closed = 1;
nodes = (
(882,487,l),
(882,486,l),
(279,486,l),
(279,730,l),
(680,730,l)
);
},
{
attr = {
gradient = {
colors = (
(
(64,255),
0
),
(
(191,255),
1
)
);
end = (0.3691,0.1797);
start = (0.4192,0.8964);
};
identifier = ID0x600013387d40;
};
closed = 1;
nodes = (
(628,0,l),
(628,486,l),
(629,486,l),
(882,486,l),
(882,0,l)
);
},
{
attr = {
gradient = {
colors = (
(
(64,255),
0
),
(
(191,255),
1
)
);
end = (0.0383,0.0895);
start = (0.8943,0.4519);
};
identifier = ID0x600013387d40;
};
closed = 1;
nodes = (
(279,173,l),
(279,417,l),
(628,417,l),
(628,416,l),
(628,173,l)
);
},
{
attr = {
gradient = {
colors = (
(
(191,255),
0
),
(
(64,255),
1
)
);
end = (0.195,-0.0223);
start = (0.6548,1.0053);
};
identifier = ID0x600013387e20;
};
closed = 1;
nodes = (
(280,788,l),
(280,900,l),
(426,900,l),
(426,788,l)
);
},
{
attr = {
gradient = {
colors = (
(
(191,255),
0
),
(
(64,255),
1
)
);
end = (0.2548,0.0057);
start = (0.6548,1.02);
};
identifier = ID0x600013387e20;
};
closed = 1;
nodes = (
(528,788,l),
(528,900,l),
(674,900,l),
(674,788,l)
);
}
);
width = 907;
}
);
unicode = 196;
},
{
glyphname = Adotbelow;
lastChange = "2022-04-06 11:27:52 +0000";
layers = (
{
attr = {
color = 1;
};
layerId = "33AE93C6-B8B3-427A-A53B-F24970E840CE";
shapes = (
{
attr = {
gradient = {
colors = (
(
(64,255),
0
),
(
(191,255),
1
)
);
end = (0.5074,0.9658);
start = (0.6091,0.0797);
};
identifier = ID0x600013387f00;
};
closed = 1;
nodes = (
(76,700,l),
(77,700,l),
(77,0,l),
(53,0,l),
(53,677,l)
);
},
{
attr = {
gradient = {
colors = (
(
(64,255),
0
),
(
(191,255),
1
)
);
end = (0.8878,0.5878);
start = (0.0693,0.513);
};
identifier = ID0x600013387f00;
};
closed = 1;
nodes = (
(220,677,l),
(220,676,l),
(77,676,l),
(77,700,l),
(197,700,l)
);
},
{
attr = {
gradient = {
colors = (
(
(64,255),
0
),
(
(191,255),
0.50056
),
(
(64,255),
1
)
);
end = (1.2582,0.0143);
start = (-0.3003,0.8873);
};
identifier = ID0x600013387f00;
};
closed = 1;
nodes = (
(197,0,l),
(196,0,l),
(196,676,l),
(220,676,l),
(220,0,l)
);
},
{
attr = {
gradient = {
colors = (
(
(191,255),
0
),
(
(64,255),
1
)
);
end = (0.8878,0.5878);
start = (0.0693,0.513);
};
identifier = ID0x600013387f00;
};
closed = 1;
nodes = (
(77,353,l),
(77,376,l),
(77,377,l),
(196,377,l),
(196,353,l)
);
},
{
attr = {
gradient = {
colors = (
(
(191,255),
0
),
(
(64,255),
1
)
);
end = (1.0106,0.0609);
start = (0.045,0.9981);
};
identifier = ID0x6000133fc0e0;
};
closed = 1;
nodes = (
(121,-119,l),
(121,-85,l),
(151,-85,l),
(151,-119,l)
);
}
);
width = 273;
},
{
attr = {
color = 1;
};
layerId = "E87239EE-82B8-404C-B23A-53843E270889";
shapes = (
{
attr = {
gradient = {
colors = (
(
(64,255),
0
),
(
(191,255),
1
)
);
end = (0.4877,0.9217);
start = (0.4155,-0.0037);
};
identifier = ID0x6000133fca80;
};
closed = 1;
nodes = (
(278,730,l),
(279,730,l),
(279,0,l),
(25,0,l),
(25,523,l)
);
},
{
attr = {
gradient = {
colors = (
(
(64,255),
0
),
(
(191,255),
1
)
);
end = (0.8878,0.5878);
start = (0.0693,0.513);
};
identifier = ID0x6000133fca80;
};
closed = 1;
nodes = (
(882,487,l),
(882,486,l),
(279,486,l),
(279,730,l),
(680,730,l)
);
},
{
attr = {
gradient = {
colors = (
(
(64,255),
0
),
(
(191,255),
1
)
);
end = (0.3691,0.1797);
start = (0.4192,0.8964);
};
identifier = ID0x6000133fca80;
};
closed = 1;
nodes = (
(628,0,l),
(628,486,l),
(629,486,l),
(882,486,l),
(882,0,l)
);
},
{
attr = {
gradient = {
colors = (
(
(64,255),
0
),
(
(191,255),
1
)
);
end = (0.0383,0.0895);
start = (0.8943,0.4519);
};
identifier = ID0x6000133fca80;
};
closed = 1;
nodes = (
(279,173,l),
(279,417,l),
(628,417,l),
(628,416,l),
(628,173,l)
);
},
{
attr = {
gradient = {
colors = (
(
(191,255),
0
),
(
(64,255),
1
)
);
end = (0.8798,-0.0104);
start = (0.1135,0.9935);
};
identifier = ID0x6000133fcb60;
};
closed = 1;
nodes = (
(364,-172,l),
(364,-40,l),
(540,-40,l),
(540,-172,l)
);
}
);
width = 907;
}
);
unicode = 7840;
},
{
glyphname = Agrave;
lastChange = "2022-04-06 11:27:52 +0000";
layers = (
{
attr = {
color = 1;
};
layerId = "33AE93C6-B8B3-427A-A53B-F24970E840CE";
shapes = (
{
attr = {
gradient = {
colors = (
(
(64,255),
0
),
(
(191,255),
1
)
);
end = (0.5074,0.9658);
start = (0.6091,0.0797);
};
identifier = ID0x6000133fc620;
};
closed = 1;
nodes = (
(76,700,l),
(77,700,l),
(77,0,l),
(53,0,l),
(53,677,l)
);
},
{
attr = {
gradient = {
colors = (
(
(64,255),
0
),
(
(191,255),
1
)
);
end = (0.8878,0.5878);
start = (0.0693,0.513);
};
identifier = ID0x6000133fc620;
};
closed = 1;
nodes = (
(220,677,l),
(220,676,l),
(77,676,l),
(77,700,l),
(197,700,l)
);
},
{
attr = {
gradient = {
colors = (
(
(64,255),
0
),
(
(191,255),
0.50056
),
(
(64,255),
1
)
);
end = (1.2582,0.0143);
start = (-0.3003,0.8873);
};
identifier = ID0x6000133fc620;
};
closed = 1;
nodes = (
(197,0,l),
(196,0,l),
(196,676,l),
(220,676,l),
(220,0,l)
);
},
{
attr = {
gradient = {
colors = (
(
(191,255),
0
),
(
(64,255),
1
)
);
end = (0.8878,0.5878);
start = (0.0693,0.513);
};
identifier = ID0x6000133fc620;
};
closed = 1;
nodes = (
(77,353,l),
(77,376,l),
(77,377,l),
(196,377,l),
(196,353,l)
);
},
{
attr = {
gradient = {
colors = (
(
(191,255),
0
),
(
(64,255),
1
)
);
end = (0.7053,1.0789);
start = (0.3543,0.0329);
};
identifier = ID0x6000133ffe20;
};
closed = 1;
nodes = (
(138,770,l),
(106,859,l),
(106,860,l),
(137,860,l),
(162,770,l)
);
}
);
width = 273;
},
{
attr = {
color = 1;
};
layerId = "E87239EE-82B8-404C-B23A-53843E270889";
shapes = (
{
attr = {
gradient = {
colors = (
(
(64,255),
0
),
(
(191,255),
1
)
);
end = (0.4877,0.9217);
start = (0.4155,-0.0037);
};
identifier = ID0x6000133ffd40;
};
closed = 1;
nodes = (
(278,730,l),
(279,730,l),
(279,0,l),
(25,0,l),
(25,523,l)
);
},
{
attr = {
gradient = {
colors = (
(
(64,255),
0
),
(
(191,255),
1
)
);
end = (0.8878,0.5878);
start = (0.0693,0.513);
};
identifier = ID0x6000133ffd40;
};
closed = 1;
nodes = (
(882,487,l),
(882,486,l),
(279,486,l),
(279,730,l),
(680,730,l)
);
},
{
attr = {
gradient = {
colors = (
(
(64,255),
0
),
(
(191,255),
1
)
);
end = (0.3691,0.1797);
start = (0.4192,0.8964);
};
identifier = ID0x6000133ffd40;
};
closed = 1;
nodes = (
(628,0,l),
(628,486,l),
(629,486,l),
(882,486,l),
(882,0,l)
);
},
{
attr = {
gradient = {
colors = (
(
(64,255),
0
),
(
(191,255),
1
)
);
end = (0.0383,0.0895);
start = (0.8943,0.4519);
};
identifier = ID0x6000133ffd40;
};
closed = 1;
nodes = (
(279,173,l),
(279,417,l),
(628,417,l),
(628,416,l),
(628,173,l)
);
},
{
attr = {
gradient = {
colors = (
(
(191,255),
0
),
(
(64,255),
1
)
);
end = (0.7053,1.0789);
start = (0.3543,0.0329);
};
identifier = ID0x6000133fff00;
};
closed = 1;
nodes = (
(418,760,l),
(303,899,l),
(303,900,l),
(509,900,l),
(544,760,l)
);
}
);
width = 907;
}
);
unicode = 192;
},
{
glyphname = Ahookabove;
lastChange = "2022-04-06 11:27:52 +0000";
layers = (
{
attr = {
color = 1;
};
layerId = "33AE93C6-B8B3-427A-A53B-F24970E840CE";
shapes = (
{
attr = {
gradient = {
colors = (
(
(64,255),
0
),
(
(191,255),
1
)
);
end = (0.5074,0.9658);
start = (0.6091,0.0797);
};
identifier = ID0x6000133ffc60;
};
closed = 1;
nodes = (
(76,700,l),
(77,700,l),
(77,0,l),
(53,0,l),
(53,677,l)
);
},
{
attr = {
gradient = {
colors = (
(
(64,255),
0
),
(
(191,255),
1
)
);
end = (0.8878,0.5878);
start = (0.0693,0.513);
};
identifier = ID0x6000133ffc60;
};
closed = 1;
nodes = (
(220,677,l),
(220,676,l),
(77,676,l),
(77,700,l),
(197,700,l)
);
},
{
attr = {
gradient = {
colors = (
(
(64,255),
0
),
(
(191,255),
0.50056
),
(
(64,255),
1
)
);
end = (1.2582,0.0143);
start = (-0.3003,0.8873);
};
identifier = ID0x6000133ffc60;
};
closed = 1;
nodes = (
(197,0,l),
(196,0,l),
(196,676,l),
(220,676,l),
(220,0,l)
);
},
{
attr = {
gradient = {
colors = (
(
(191,255),
0
),
(
(64,255),
1
)
);
end = (0.8878,0.5878);
start = (0.0693,0.513);
};
identifier = ID0x6000133ffc60;
};
closed = 1;
nodes = (
(77,353,l),
(77,376,l),
(77,377,l),
(196,377,l),
(196,353,l)
);
},
{
attr = {
gradient = {
colors = (
(
(64,255),
0
),
(
(191,255),
1
)
);
end = (0.0416,0.8836);
start = (0.6428,0.1867);
};
identifier = ID0x6000133ffb80;
};
closed = 1;
nodes = (
(102,846,l),
(102,870,l),
(161,870,l),
(179,847,l),
(179,846,l)
);
},
{
attr = {
gradient = {
colors = (
(
(191,255),
0
),
(
(64,255),
1
)
);
end = (0.2224,-0.0167);
start = (0.6536,0.9461);
};
identifier = ID0x6000133ffb80;
};
closed = 1;
nodes = (
(123,739,l),
(123,740,l),
(161,870,l),
(179,847,l),
(179,846,l),
(146,739,l)
);
}
);
width = 273;
},
{
attr = {
color = 1;
};
layerId = "E87239EE-82B8-404C-B23A-53843E270889";
shapes = (
{
attr = {
gradient = {
colors = (
(
(64,255),
0
),
(
(191,255),
1
)
);
end = (0.4877,0.9217);
start = (0.4155,-0.0037);
};
identifier = ID0x6000133ff8e0;
};
closed = 1;
nodes = (
(278,730,l),
(279,730,l),
(279,0,l),
(25,0,l),
(25,523,l)
);
},
{
attr = {
gradient = {
colors = (
(
(64,255),
0
),
(
(191,255),
1
)
);
end = (0.8878,0.5878);
start = (0.0693,0.513);
};
identifier = ID0x6000133ff8e0;
};
closed = 1;
nodes = (
(882,487,l),
(882,486,l),
(279,486,l),
(279,730,l),
(680,730,l)
);
},
{
attr = {
gradient = {
colors = (
(
(64,255),
0
),
(
(191,255),
1
)
);
end = (0.3691,0.1797);
start = (0.4192,0.8964);
};
identifier = ID0x6000133ff8e0;
};
closed = 1;
nodes = (
(628,0,l),
(628,486,l),
(629,486,l),
(882,486,l),
(882,0,l)
);
},
{
attr = {
gradient = {
colors = (
(
(64,255),
0
),
(
(191,255),
1
)
);
end = (0.0383,0.0895);
start = (0.8943,0.4519);
};
identifier = ID0x6000133ff8e0;
};
closed = 1;
nodes = (
(279,173,l),
(279,417,l),
(628,417,l),
(628,416,l),
(628,173,l)
);
},
{
attr = {
gradient = {
colors = (
(
(64,255),
0
),
(
(191,255),
1
)
);
end = (0.0611,0.8551);
start = (0.4734,0.0581);
};
identifier = ID0x6000133ff800;
};
closed = 1;
nodes = (
(326,798,l),
(326,900,l),
(587,900,l),
(694,799,l),
(694,798,l)
);
},
{
attr = {
gradient = {
colors = (
(
(191,255),
0
),
(
(64,255),
1
)
);
end = (0.372,0.0258);
start = (0.6171,0.8745);
};
identifier = ID0x6000133ff800;
};
closed = 1;
nodes = (
(436,760,l),
(435,760,l),
(587,900,l),
(694,799,l),
(694,798,l),
(553,760,l)
);
}
);
width = 907;
}
);
unicode = 7842;
},
{
glyphname = Ainvertedbreve;
lastChange = "2022-04-06 11:27:52 +0000";
layers = (
{
attr = {
color = 1;
};
layerId = "33AE93C6-B8B3-427A-A53B-F24970E840CE";
shapes = (
{
attr = {
gradient = {
colors = (
(
(64,255),
0
),
(
(191,255),
1
)
);
end = (0.5074,0.9658);
start = (0.6091,0.0797);
};
identifier = ID0x6000133ffaa0;
};
closed = 1;
nodes = (
(76,700,l),
(77,700,l),
(77,0,l),
(53,0,l),
(53,677,l)
);
},
{
attr = {
gradient = {
colors = (
(
(64,255),
0
),
(
(191,255),
1
)
);
end = (0.8878,0.5878);
start = (0.0693,0.513);
};
identifier = ID0x6000133ffaa0;
};
closed = 1;
nodes = (
(220,677,l),
(220,676,l),
(77,676,l),
(77,700,l),
(197,700,l)
);
},
{
attr = {
gradient = {
colors = (
(
(64,255),
0
),
(
(191,255),
0.50056
),
(
(64,255),
1
)
);
end = (1.2582,0.0143);
start = (-0.3003,0.8873);
};
identifier = ID0x6000133ffaa0;
};
closed = 1;
nodes = (
(197,0,l),
(196,0,l),
(196,676,l),
(220,676,l),
(220,0,l)
);
},
{
attr = {
gradient = {
colors = (
(
(191,255),
0
),
(
(64,255),
1
)
);
end = (0.8878,0.5878);
start = (0.0693,0.513);
};
identifier = ID0x6000133ffaa0;
};
closed = 1;
nodes = (
(77,353,l),
(77,376,l),
(77,377,l),
(196,377,l),
(196,353,l)
);
},
{
attr = {
gradient = {
colors = (
(
(191,255),
0
),
(
(64,255),
1
)
);
end = (0.9151,0.9808);
start = (0.1869,0.1486);
};
identifier = ID0x6000133ff9c0;
};
closed = 1;
nodes = (
(92,781,l),
(60,781,l),
(60,782,l),
(91,818,l),
(123,818,l)
);
},
{
attr = {
gradient = {
colors = (
(
(191,255),
0
),
(
(64,255),
1
)
);
end = (0.1433,0.9663);
start = (0.524,0.0643);
};
identifier = ID0x6000133ff9c0;
};
closed = 1;
nodes = (
(185,818,l),
(216,782,l),
(216,781,l),
(184,781,l),
(153,818,l)
);
},
{
attr = {
gradient = {
colors = (
(
(191,255),
0
),
(
(64,255),
1
)
);
end = (0.7884,0.8995);
start = (0.0818,0.0967);
};
identifier = ID0x6000133ff9c0;
};
closed = 1;
nodes = (
(185,818,l),
(91,818,l),
(110,840,l),
(166,840,l)
);
}
);
width = 273;
},
{
attr = {
color = 1;
};
layerId = "E87239EE-82B8-404C-B23A-53843E270889";
shapes = (
{
attr = {
gradient = {
colors = (
(
(64,255),
0
),
(
(191,255),
1
)
);
end = (0.4877,0.9217);
start = (0.4155,-0.0037);
};
identifier = ID0x6000133ff720;
};
closed = 1;
nodes = (
(278,730,l),
(279,730,l),
(279,0,l),
(25,0,l),
(25,523,l)
);
},
{
attr = {
gradient = {
colors = (
(
(64,255),
0
),
(
(191,255),
1
)
);
end = (0.8878,0.5878);
start = (0.0693,0.513);
};
identifier = ID0x6000133ff720;
};
closed = 1;
nodes = (
(882,487,l),
(882,486,l),
(279,486,l),
(279,730,l),
(680,730,l)
);
},
{
attr = {
gradient = {
colors = (
(
(64,255),
0
),
(
(191,255),
1
)
);
end = (0.3691,0.1797);
start = (0.4192,0.8964);
};
identifier = ID0x6000133ff720;
};
closed = 1;
nodes = (
(628,0,l),
(628,486,l),
(629,486,l),
(882,486,l),
(882,0,l)
);
},
{
attr = {
gradient = {
colors = (
(
(64,255),
0
),
(
(191,255),
1
)
);
end = (0.0383,0.0895);
start = (0.8943,0.4519);
};
identifier = ID0x6000133ff720;
};
closed = 1;
nodes = (
(279,173,l),
(279,417,l),
(628,417,l),
(628,416,l),
(628,173,l)
);
},
{
attr = {
gradient = {
colors = (
(
(191,255),
0
),
(
(64,255),
1
)
);
end = (0.8943,0.8385);
start = (0.1895,0.1088);
};
identifier = ID0x6000133ff640;
};
closed = 1;
nodes = (
(382,760,l),
(226,760,l),
(226,762,l),
(280,820,l),
(439,820,l)
);
},
{
attr = {
gradient = {
colors = (
(
(191,255),
0
),
(
(64,255),
1
)
);
end = (0.2192,0.9094);
start = (0.8253,0.0969);
};
identifier = ID0x6000133ff640;
};
closed = 1;
nodes = (
(673,820,l),
(727,761,l),
(727,760,l),
(571,760,l),
(514,820,l)
);
},
{
attr = {
gradient = {
colors = (
(
(64,255),
0
),
(
(191,255),
1
)
);
end = (0.1967,0.8302);
start = (0.9557,0.1416);
};
identifier = ID0x6000133ff640;
};
closed = 1;
nodes = (
(673,820,l),
(280,820,l),
(354,900,l),
(599,900,l)
);
}
);
width = 907;
}
);
unicode = 514;
},
{
glyphname = Amacron;
lastChange = "2022-04-06 11:27:52 +0000";
layers = (
{
attr = {
color = 1;
};
layerId = "33AE93C6-B8B3-427A-A53B-F24970E840CE";
shapes = (
{
attr = {
gradient = {
colors = (
(
(64,255),
0
),
(
(191,255),
1
)
);
end = (0.5074,0.9658);
start = (0.6091,0.0797);
};
identifier = ID0x6000133ff3a0;
};
closed = 1;
nodes = (
(76,700,l),
(77,700,l),
(77,0,l),
(53,0,l),
(53,677,l)
);
},
{
attr = {
gradient = {
colors = (
(
(64,255),
0
),
(
(191,255),
1
)
);
end = (0.8878,0.5878);
start = (0.0693,0.513);
};
identifier = ID0x6000133ff3a0;
};
closed = 1;
nodes = (
(220,677,l),
(220,676,l),
(77,676,l),
(77,700,l),
(197,700,l)
);
},
{
attr = {
gradient = {
colors = (
(
(64,255),
0
),
(
(191,255),
0.50056
),
(
(64,255),
1
)
);
end = (1.2582,0.0143);
start = (-0.3003,0.8873);
};
identifier = ID0x6000133ff3a0;
};
closed = 1;
nodes = (
(197,0,l),
(196,0,l),
(196,676,l),
(220,676,l),
(220,0,l)
);
},
{
attr = {
gradient = {
colors = (
(
(191,255),
0
),
(
(64,255),
1
)
);
end = (0.8878,0.5878);
start = (0.0693,0.513);
};
identifier = ID0x6000133ff3a0;
};
closed = 1;
nodes = (
(77,353,l),
(77,376,l),
(77,377,l),
(196,377,l),
(196,353,l)
);
},
{
attr = {
gradient = {
colors = (
(
(191,255),
0
),
(
(64,255),
1
)
);
end = (0.9584,-0.3023);
start = (0.0715,1.2204);
};
identifier = ID0x6000133ff2c0;
};
closed = 1;
nodes = (
(63,801,l),
(63,825,l),
(213,825,l),
(213,801,l)
);
}
);
width = 273;
},
{
attr = {
color = 1;
};
layerId = "E87239EE-82B8-404C-B23A-53843E270889";
shapes = (
{
attr = {
gradient = {
colors = (
(
(64,255),
0
),
(
(191,255),
1
)
);
end = (0.4877,0.9217);
start = (0.4155,-0.0037);
};
identifier = ID0x6000133ff560;
};
closed = 1;
nodes = (
(278,730,l),
(279,730,l),
(279,0,l),
(25,0,l),
(25,523,l)
);
},
{
attr = {
gradient = {
colors = (
(
(64,255),
0
),
(
(191,255),
1
)
);
end = (0.8878,0.5878);
start = (0.0693,0.513);
};
identifier = ID0x6000133ff560;
};
closed = 1;
nodes = (
(882,487,l),
(882,486,l),
(279,486,l),
(279,730,l),
(680,730,l)
);
},
{
attr = {
gradient = {
colors = (
(
(64,255),
0
),
(
(191,255),
1
)
);
end = (0.3691,0.1797);
start = (0.4192,0.8964);
};
identifier = ID0x6000133ff560;
};
closed = 1;
nodes = (
(628,0,l),
(628,486,l),
(629,486,l),
(882,486,l),
(882,0,l)
);
},
{
attr = {
gradient = {
colors = (
(
(64,255),
0
),
(
(191,255),
1
)
);
end = (0.0383,0.0895);
start = (0.8943,0.4519);
};
identifier = ID0x6000133ff560;
};
closed = 1;
nodes = (
(279,173,l),
(279,417,l),
(628,417,l),
(628,416,l),
(628,173,l)
);
},
{
attr = {
gradient = {
colors = (
(
(191,255),
0
),
(
(64,255),
1
)
);
end = (0.7053,1.0789);
start = (0.3543,0.0329);
};
identifier = ID0x6000133ff480;
};
closed = 1;
nodes = (
(278,798,l),
(278,900,l),
(674,900,l),
(674,798,l)
);
}
);
width = 907;
}
);
unicode = 256;
},
{
glyphname = Aogonek;
lastChange = "2022-04-06 11:27:52 +0000";
layers = (
{
attr = {
color = 1;
};
layerId = "33AE93C6-B8B3-427A-A53B-F24970E840CE";
shapes = (
{
attr = {
gradient = {
colors = (
(
(64,255),
0
),
(
(191,255),
1
)
);
end = (0.5074,0.9658);
start = (0.6091,0.0797);
};
identifier = ID0x6000133ff1e0;
};
closed = 1;
nodes = (
(76,700,l),
(77,700,l),
(77,0,l),
(53,0,l),
(53,677,l)
);
},
{
attr = {
gradient = {
colors = (
(
(64,255),
0
),
(
(191,255),
1
)
);
end = (0.8878,0.5878);
start = (0.0693,0.513);
};
identifier = ID0x6000133ff1e0;
};
closed = 1;
nodes = (
(220,677,l),
(220,676,l),
(77,676,l),
(77,700,l),
(197,700,l)
);
},
{
attr = {
gradient = {
colors = (
(
(64,255),
0
),
(
(191,255),
0.50056
),
(
(64,255),
1
)
);
end = (1.2582,0.0143);
start = (-0.3003,0.8873);
};
identifier = ID0x6000133ff1e0;
};
closed = 1;
nodes = (
(197,0,l),
(196,0,l),
(196,676,l),
(220,676,l),
(220,0,l)
);
},
{
attr = {
gradient = {
colors = (
(
(191,255),
0
),
(
(64,255),
1
)
);
end = (0.8878,0.5878);
start = (0.0693,0.513);
};
identifier = ID0x6000133ff1e0;
};
closed = 1;
nodes = (
(77,353,l),
(77,376,l),
(77,377,l),
(196,377,l),
(196,353,l)
);
},
{
attr = {
gradient = {
colors = (
(
(64,255),
0
),
(
(191,255),
1
)
);
end = (0.8878,0.5878);
start = (0.0693,0.513);
};
identifier = ID0x6000133ff100;
};
closed = 1;
nodes = (
(196,-80,l),
(196,-61,l),
(239,-61,l),
(239,-62,l),
(221,-80,l)
);
},
{
attr = {
gradient = {
colors = (
(
(191,255),
0
),
(
(64,255),
1
)
);
end = (0.4907,0.9494);
start = (0.4488,0.0405);
};
identifier = ID0x6000133ff100;
};
closed = 1;
nodes = (
(175,-33,l),
(196,0,l),
(220,0,l),
(220,-1,l),
(196,-34,l),
(175,-34,l)
);
},
{
attr = {
gradient = {
colors = (
(
(64,255),
0
),
(
(191,255),
1
)
);
end = (0.7289,0.1934);
start = (0.0597,0.9472);
};
identifier = ID0x6000133ff100;
};
closed = 1;
nodes = (
(175,-34,l),
(196,-34,l),
(196,-79,l),
(195,-79,l),
(175,-61,l)
);
}
);
width = 273;
},
{
attr = {
color = 1;
};
layerId = "E87239EE-82B8-404C-B23A-53843E270889";
shapes = (
{
attr = {
gradient = {
colors = (
(
(64,255),
0
),
(
(191,255),
1
)
);
end = (0.4877,0.9217);
start = (0.4155,-0.0037);
};
identifier = ID0x6000133fee60;
};
closed = 1;
nodes = (
(278,730,l),
(279,730,l),
(279,0,l),
(25,0,l),
(25,523,l)
);
},
{
attr = {
gradient = {
colors = (
(
(64,255),
0
),
(
(191,255),
1
)
);
end = (0.8878,0.5878);
start = (0.0693,0.513);
};
identifier = ID0x6000133fee60;
};
closed = 1;
nodes = (
(882,487,l),
(882,486,l),
(279,486,l),
(279,730,l),
(680,730,l)
);
},
{
attr = {
gradient = {
colors = (
(
(64,255),
0
),
(
(191,255),
1
)
);
end = (0.3691,0.1797);
start = (0.4192,0.8964);
};
identifier = ID0x6000133fee60;
};
closed = 1;
nodes = (
(628,0,l),
(628,486,l),
(629,486,l),
(882,486,l),
(882,0,l)
);
},
{
attr = {
gradient = {
colors = (
(
(64,255),
0
),
(
(191,255),
1
)
);
end = (0.0383,0.0895);
start = (0.8943,0.4519);
};
identifier = ID0x6000133fee60;
};
closed = 1;
nodes = (
(279,173,l),
(279,417,l),
(628,417,l),
(628,416,l),
(628,173,l)
);
},
{
attr = {
gradient = {
colors = (
(
(64,255),
0
),
(
(191,255),
1
)
);
end = (0.8878,0.5878);
start = (0.0693,0.513);
};
identifier = ID0x6000133fed80;
};
closed = 1;
nodes = (
(788,-230,l),
(788,-138,l),
(966,-138,l),
(966,-139,l),
(906,-230,l)
);
},
{
attr = {
gradient = {
colors = (
(
(64,255),
0
),
(
(191,255),
1
)
);
end = (0.0571,0.0713);
start = (0.7529,0.9197);
};
identifier = ID0x6000133fed80;
};
closed = 1;
nodes = (
(660,-85,l),
(737,0,l),
(862,0,l),
(862,-1,l),
(788,-86,l),
(660,-86,l)
);
},
{
attr = {
gradient = {
colors = (
(
(64,255),
0
),
(
(191,255),
1
)
);
end = (0.862,0.1123);
start = (0.0795,0.9147);
};
identifier = ID0x6000133fed80;
};
closed = 1;
nodes = (
(660,-86,l),
(788,-86,l),
(788,-230,l),
(787,-230,l),
(660,-174,l)
);
}
);
width = 907;
}
);
unicode = 260;
},
{
glyphname = Aring;
lastChange = "2022-04-06 11:27:52 +0000";
layers = (
{
attr = {
color = 1;
};
layerId = "33AE93C6-B8B3-427A-A53B-F24970E840CE";
shapes = (
{
attr = {
gradient = {
colors = (
(
(64,255),
0
),
(
(191,255),
1
)
);
end = (0.5074,0.9658);
start = (0.6091,0.0797);
};
identifier = ID0x6000133ff020;
};
closed = 1;
nodes = (
(76,700,l),
(77,700,l),
(77,0,l),
(53,0,l),
(53,677,l)
);
},
{
attr = {
gradient = {
colors = (
(
(64,255),
0
),
(
(191,255),
1
)
);
end = (0.8878,0.5878);
start = (0.0693,0.513);
};
identifier = ID0x6000133ff020;
};
closed = 1;
nodes = (
(220,677,l),
(220,676,l),
(77,676,l),
(77,700,l),
(197,700,l)
);
},
{
attr = {
gradient = {
colors = (
(
(64,255),
0
),
(
(191,255),
0.50056
),
(
(64,255),
1
)
);
end = (1.2582,0.0143);
start = (-0.3003,0.8873);
};
identifier = ID0x6000133ff020;
};
closed = 1;
nodes = (
(197,0,l),
(196,0,l),
(196,676,l),
(220,676,l),
(220,0,l)
);
},
{
attr = {
gradient = {
colors = (
(
(191,255),
0
),
(
(64,255),
1
)
);
end = (0.8878,0.5878);
start = (0.0693,0.513);
};
identifier = ID0x6000133ff020;
};
closed = 1;
nodes = (
(77,353,l),
(77,376,l),
(77,377,l),
(196,377,l),
(196,353,l)
);
},
{
attr = {
gradient = {
colors = (
(
(64,255),
0
),
(
(191,255),
1
)
);
end = (0.4877,0.9217);
start = (0.453,0.0037);
};
identifier = ID0x6000133fef40;
};
closed = 1;
nodes = (
(115,857,l),
(116,857,l),
(116,775,l),
(95,775,l),
(95,839,l)
);
},
{
attr = {
gradient = {
colors = (
(
(64,255),
0
),
(
(191,255),
1
)
);
end = (0.8878,0.5878);
start = (0.0693,0.513);
};
identifier = ID0x6000133fef40;
};
closed = 1;
nodes = (
(172,836,l),
(172,835,l),
(116,835,l),
(116,857,l),
(154,857,l)
);
},
{
attr = {
gradient = {
colors = (
(
(64,255),
0
),
(
(191,255),
1
)
);
end = (0.4056,0.1204);
start = (0.4192,0.8964);
};
identifier = ID0x6000133fef40;
};
closed = 1;
nodes = (
(151,753,l),
(150,753,l),
(150,835,l),
(172,835,l),
(172,771,l)
);
},
{
attr = {
gradient = {
colors = (
(
(191,255),
0
),
(
(64,255),
1
)
);
end = (0.8878,0.5878);
start = (0.0693,0.513);
};
identifier = ID0x6000133fef40;
};
closed = 1;
nodes = (
(95,774,l),
(95,775,l),
(150,775,l),
(150,753,l),
(113,753,l)
);
}
);
width = 273;
},
{
attr = {
color = 1;
};
layerId = "E87239EE-82B8-404C-B23A-53843E270889";
shapes = (
{
attr = {
gradient = {
colors = (
(
(64,255),
0
),
(
(191,255),
1
)
);
end = (0.4877,0.9217);
start = (0.4155,-0.0037);
};
identifier = ID0x6000133feca0;
};
closed = 1;
nodes = (
(278,730,l),
(279,730,l),
(279,0,l),
(25,0,l),
(25,523,l)
);
},
{
attr = {
gradient = {
colors = (
(
(64,255),
0
),
(
(191,255),
1
)
);
end = (0.8878,0.5878);
start = (0.0693,0.513);
};
identifier = ID0x6000133feca0;
};
closed = 1;
nodes = (
(882,487,l),
(882,486,l),
(279,486,l),
(279,730,l),
(680,730,l)
);
},
{
attr = {
gradient = {
colors = (
(
(64,255),
0
),
(
(191,255),
1
)
);
end = (0.3691,0.1797);
start = (0.4192,0.8964);
};
identifier = ID0x6000133feca0;
};
closed = 1;
nodes = (
(628,0,l),
(628,486,l),
(629,486,l),
(882,486,l),
(882,0,l)
);
},
{
attr = {
gradient = {
colors = (
(
(64,255),
0
),
(
(191,255),
1
)
);
end = (0.0383,0.0895);
start = (0.8943,0.4519);
};
identifier = ID0x6000133feca0;
};
closed = 1;
nodes = (
(279,173,l),
(279,417,l),
(628,417,l),
(628,416,l),
(628,173,l)
);
},
{
attr = {
gradient = {
colors = (
(
(64,255),
0
),
(
(191,255),
1
)
);
end = (0.4877,0.9217);
start = (0.4155,-0.0037);
};
identifier = ID0x6000133febc0;
};
closed = 1;
nodes = (
(404,948,l),
(404,948,l),
(404,812,l),
(308,812,l),
(308,886,l)
);
},
{
attr = {
gradient = {
colors = (
(
(64,255),
0
),
(
(191,255),
1
)
);
end = (0.8878,0.5878);
start = (0.0693,0.513);
};
identifier = ID0x6000133febc0;
};
closed = 1;
nodes = (
(634,864,l),
(634,864,l),
(404,864,l),
(404,948,l),
(574,948,l)
);
},
{
attr = {
gradient = {
colors = (
(
(64,255),
0
),
(
(191,255),
1
)
);
end = (0.4056,0.1204);
start = (0.4192,0.8964);
};
identifier = ID0x6000133febc0;
};
closed = 1;
nodes = (
(538,730,l),
(538,730,l),
(538,864,l),
(634,864,l),
(634,786,l)
);
},
{
attr = {
gradient = {
colors = (
(
(191,255),
0
),
(
(64,255),
1
)
);
end = (0.8878,0.5878);
start = (0.0693,0.513);
};
identifier = ID0x6000133febc0;
};
closed = 1;
nodes = (
(308,812,l),
(308,812,l),
(538,812,l),
(538,730,l),
(368,730,l)
);
}
);
width = 907;
}
);
unicode = 197;
},
{
glyphname = Aringacute;
lastChange = "2022-04-06 11:27:52 +0000";
layers = (
{
attr = {
color = 1;
};
layerId = "33AE93C6-B8B3-427A-A53B-F24970E840CE";
shapes = (
{
attr = {
gradient = {
colors = (
(
(64,255),
0
),
(
(191,255),
1
)
);
end = (0.5074,0.9658);
start = (0.6091,0.0797);
};
identifier = ID0x6000133fe920;
};
closed = 1;
nodes = (
(76,700,l),
(77,700,l),
(77,0,l),
(53,0,l),
(53,677,l)
);
},
{
attr = {
gradient = {
colors = (
(
(64,255),
0
),
(
(191,255),
1
)
);
end = (0.8878,0.5878);
start = (0.0693,0.513);
};
identifier = ID0x6000133fe920;
};
closed = 1;
nodes = (
(220,677,l),
(220,676,l),
(77,676,l),
(77,700,l),
(197,700,l)
);
},
{
attr = {
gradient = {
colors = (
(
(64,255),
0
),
(
(191,255),
0.50056
),
(
(64,255),
1
)
);
end = (1.2582,0.0143);
start = (-0.3003,0.8873);
};
identifier = ID0x6000133fe920;
};
closed = 1;
nodes = (
(197,0,l),
(196,0,l),
(196,676,l),
(220,676,l),
(220,0,l)
);
},
{
attr = {
gradient = {
colors = (
(
(191,255),
0
),
(
(64,255),
1
)
);
end = (0.8878,0.5878);
start = (0.0693,0.513);
};
identifier = ID0x6000133fe920;
};
closed = 1;
nodes = (
(77,353,l),
(77,376,l),
(77,377,l),
(196,377,l),
(196,353,l)
);
},
{
attr = {
gradient = {
colors = (
(
(64,255),
0
),
(
(191,255),
1
)
);
end = (0.4877,0.9217);
start = (0.453,0.0037);
};
identifier = ID0x60000019dce0;
};
closed = 1;
nodes = (
(114,821,l),
(115,821,l),
(115,758,l),
(94,758,l),
(94,803,l)
);
},
{
attr = {
gradient = {
colors = (
(
(64,255),
0
),
(
(191,255),
1
)
);
end = (0.8878,0.5878);
start = (0.0693,0.513);
};
identifier = ID0x60000019dce0;
};
closed = 1;
nodes = (
(181,801,l),
(181,800,l),
(115,800,l),
(115,821,l),
(163,821,l)
);
},
{
attr = {
gradient = {
colors = (
(
(64,255),
0
),
(
(191,255),
1
)
);
end = (0.4056,0.1204);
start = (0.4192,0.8964);
};
identifier = ID0x60000019dce0;
};
closed = 1;
nodes = (
(161,737,l),
(160,737,l),
(160,800,l),
(181,800,l),
(181,755,l)
);
},
{
attr = {
gradient = {
colors = (
(
(191,255),
0
),
(
(64,255),
1
)
);
end = (0.8878,0.5878);
start = (0.0693,0.513);
};
identifier = ID0x60000019dce0;
};
closed = 1;
nodes = (
(94,757,l),
(94,758,l),
(160,758,l),
(160,737,l),
(112,737,l)
);
},
{
attr = {
gradient = {
colors = (
(
(191,255),
0
),
(
(64,255),
1
)
);
end = (0.9495,0.9626);
start = (0.0378,0.0149);
};
identifier = ID0x60000019dc00;
};
closed = 1;
nodes = (
(148,900,l),
(177,900,l),
(177,899,l),
(139,840,l),
(118,840,l)
);
}
);
width = 273;
},
{
attr = {
color = 1;
};
layerId = "E87239EE-82B8-404C-B23A-53843E270889";
shapes = (
{
attr = {
gradient = {
colors = (
(
(64,255),
0
),
(
(191,255),
1
)
);
end = (0.4877,0.9217);
start = (0.4155,-0.0037);
};
identifier = ID0x6000133fe840;
};
closed = 1;
nodes = (
(278,730,l),
(279,730,l),
(279,0,l),
(25,0,l),
(25,523,l)
);
},
{
attr = {
gradient = {
colors = (
(
(64,255),
0
),
(
(191,255),
1
)
);
end = (0.8878,0.5878);
start = (0.0693,0.513);
};
identifier = ID0x6000133fe840;
};
closed = 1;
nodes = (
(882,487,l),
(882,486,l),
(279,486,l),
(279,730,l),
(680,730,l)
);
},
{
attr = {
gradient = {
colors = (
(
(64,255),
0
),
(
(191,255),
1
)
);
end = (0.3691,0.1797);
start = (0.4192,0.8964);
};
identifier = ID0x6000133fe840;
};
closed = 1;
nodes = (
(628,0,l),
(628,486,l),
(629,486,l),
(882,486,l),
(882,0,l)
);
},
{
attr = {
gradient = {
colors = (
(
(64,255),
0
),
(
(191,255),
1
)
);
end = (0.0383,0.0895);
start = (0.8943,0.4519);
};
identifier = ID0x6000133fe840;
};
closed = 1;
nodes = (
(279,173,l),
(279,417,l),
(628,417,l),
(628,416,l),
(628,173,l)
);
},
{
attr = {
gradient = {
colors = (
(
(64,255),
0
),
(
(191,255),
1
)
);
end = (0.4877,0.9217);
start = (0.4155,-0.0037);
};
identifier = ID0x6000006279c0;
};
closed = 1;
nodes = (
(384,914,l),
(385,914,l),
(385,818,l),
(304,818,l),
(304,852,l)
);
},
{
attr = {
gradient = {
colors = (
(
(64,255),
0
),
(
(191,255),
1
)
);
end = (0.8878,0.5878);
start = (0.0693,0.513);
};
identifier = ID0x6000006279c0;
};
closed = 1;
nodes = (
(620,846,l),
(620,845,l),
(385,845,l),
(385,914,l),
(560,914,l)
);
},
{
attr = {
gradient = {
colors = (
(
(64,255),
0
),
(
(191,255),
1
)
);
end = (0.4056,0.1204);
start = (0.4192,0.8964);
};
identifier = ID0x6000006279c0;
};
closed = 1;
nodes = (
(540,751,l),
(539,751,l),
(539,845,l),
(620,845,l),
(620,807,l)
);
},
{
attr = {
gradient = {
colors = (
(
(191,255),
0
),
(
(64,255),
1
)
);
end = (0.8878,0.5878);
start = (0.0693,0.513);
};
identifier = ID0x6000006279c0;
};
closed = 1;
nodes = (
(304,817,l),
(304,818,l),
(539,818,l),
(539,751,l),
(364,751,l)
);
},
{
attr = {
gradient = {
colors = (
(
(191,255),
0
),
(
(64,255),
1
)
);
end = (0.0479,0.095);
start = (0.9467,0.9402);
};
identifier = ID0x600000627aa0;
};
closed = 1;
nodes = (
(448,1029,l),
(654,1029,l),
(654,1028,l),
(509,939,l),
(393,939,l)
);
}
);
width = 907;
}
);
unicode = 506;
},
{
glyphname = Atilde;
lastChange = "2022-04-06 11:27:52 +0000";
layers = (
{
attr = {
color = 1;
};
layerId = "33AE93C6-B8B3-427A-A53B-F24970E840CE";
shapes = (
{
attr = {
gradient = {
colors = (
(
(64,255),
0
),
(
(191,255),
1
)
);
end = (0.5074,0.9658);
start = (0.6091,0.0797);
};
identifier = ID0x6000133feae0;
};
closed = 1;
nodes = (
(76,700,l),
(77,700,l),
(77,0,l),
(53,0,l),
(53,677,l)
);
},
{
attr = {
gradient = {
colors = (
(
(64,255),
0
),
(
(191,255),
1
)
);
end = (0.8878,0.5878);
start = (0.0693,0.513);
};
identifier = ID0x6000133feae0;
};
closed = 1;
nodes = (
(220,677,l),
(220,676,l),
(77,676,l),
(77,700,l),
(197,700,l)
);
},
{
attr = {
gradient = {
colors = (
(
(64,255),
0
),
(
(191,255),
0.50056
),
(
(64,255),
1
)
);
end = (1.2582,0.0143);
start = (-0.3003,0.8873);
};
identifier = ID0x6000133feae0;
};
closed = 1;
nodes = (
(197,0,l),
(196,0,l),
(196,676,l),
(220,676,l),
(220,0,l)
);
},
{
attr = {
gradient = {
colors = (
(
(191,255),
0
),
(
(64,255),
1
)
);
end = (0.8878,0.5878);
start = (0.0693,0.513);
};
identifier = ID0x6000133feae0;
};
closed = 1;
nodes = (
(77,353,l),
(77,376,l),
(77,377,l),
(196,377,l),
(196,353,l)
);
},
{
attr = {
gradient = {
colors = (
(
(64,255),
0
),
(
(191,255),
1
)
);
end = (0.2296,0.0026);
start = (0.9852,0.6189);
};
identifier = ID0x6000133fea00;
};
closed = 1;
nodes = (
(77,837,l),
(101,838,l),
(101,786,l),
(77,786,l)
);
},
{
attr = {
gradient = {
colors = (
(
(64,255),
0
),
(
(191,255),
1
)
);
end = (0.8068,0.953);
start = (0.1553,0.418);
};
identifier = ID0x6000133fea00;
};
closed = 1;
nodes = (
(197,795,l),
(173,795,l),
(173,847,l),
(197,847,l)
);
},
{
attr = {
gradient = {
colors = (
(
(64,255),
0
),
(
(191,255),
1
)
);
end = (0.4877,0.9217);
start = (0.4155,-0.0037);
};
identifier = ID0x6000133fea00;
};
closed = 1;
nodes = (
(77,838,l),
(99,847,l),
(100,847,l),
(196,795,l),
(196,794,l),
(174,785,l),
(173,785,l),
(77,837,l)
);
}
);
width = 273;
},
{
attr = {
color = 1;
};
layerId = "E87239EE-82B8-404C-B23A-53843E270889";
shapes = (
{
attr = {
gradient = {
colors = (
(
(64,255),
0
),
(
(191,255),
1
)
);
end = (0.4877,0.9217);
start = (0.4155,-0.0037);
};
identifier = ID0x6000133fe760;
};
closed = 1;
nodes = (
(278,730,l),
(279,730,l),
(279,0,l),
(25,0,l),
(25,523,l)
);
},
{
attr = {
gradient = {
colors = (
(
(64,255),
0
),
(
(191,255),
1
)
);
end = (0.8878,0.5878);
start = (0.0693,0.513);
};
identifier = ID0x6000133fe760;
};
closed = 1;
nodes = (
(882,487,l),
(882,486,l),
(279,486,l),
(279,730,l),
(680,730,l)
);
},
{
attr = {
gradient = {
colors = (
(
(64,255),
0
),
(
(191,255),
1
)
);
end = (0.3691,0.1797);
start = (0.4192,0.8964);
};
identifier = ID0x6000133fe760;
};
closed = 1;
nodes = (
(628,0,l),
(628,486,l),
(629,486,l),
(882,486,l),
(882,0,l)
);
},
{
attr = {
gradient = {
colors = (
(
(64,255),
0
),
(
(191,255),
1
)
);
end = (0.0383,0.0895);
start = (0.8943,0.4519);
};
identifier = ID0x6000133fe760;
};
closed = 1;
nodes = (
(279,173,l),
(279,417,l),
(628,417,l),
(628,416,l),
(628,173,l)
);
},
{
attr = {
gradient = {
colors = (
(
(64,255),
0
),
(
(191,255),
1
)
);
end = (0.2296,0.0026);
start = (0.9852,0.6189);
};
identifier = ID0x6000133fe680;
};
closed = 1;
nodes = (
(238,873,l),
(358,864,l),
(358,782,l),
(238,782,l)
);
},
{
attr = {
gradient = {
colors = (
(
(64,255),
0
),
(
(191,255),
1
)
);
end = (0.8068,0.953);
start = (0.1553,0.418);
};
identifier = ID0x6000133fe680;
};
closed = 1;
nodes = (
(706,821,l),
(587,801,l),
(587,900,l),
(706,900,l)
);
},
{
attr = {
gradient = {
colors = (
(
(64,255),
0
),
(
(191,255),
1
)
);
end = (0.4877,0.9217);
start = (0.4155,-0.0037);
};
identifier = ID0x6000133fe680;
};
closed = 1;
nodes = (
(238,883,l),
(366,923,l),
(387,923,l),
(706,821,l),
(706,811,l),
(578,771,l),
(557,771,l),
(238,873,l)
);
}
);
width = 907;
}
);
unicode = 195;
},
{
glyphname = AE;
lastChange = "2022-04-06 11:27:52 +0000";
layers = (
{
attr = {
color = 1;
};
layerId = "33AE93C6-B8B3-427A-A53B-F24970E840CE";
shapes = (
{
attr = {
gradient = {
colors = (
(
(191,255),
0
),
(
(64,255),
1
)
);
end = (0.8878,0.5878);
start = (0.0693,0.513);
};
};
closed = 1;
nodes = (
(77,353,l),
(77,377,l),
(196,377,l),
(196,353,l)
);
},
{
attr = {
gradient = {
colors = (
(
(64,255),
0
),
(
(191,255),
1
)
);
end = (0.5074,0.9658);
start = (0.6091,0.0797);
};
};
closed = 1;
nodes = (
(53,0,l),
(53,677,l),
(76,700,l),
(77,700,l),
(77,0,l)
);
},
{
attr = {
gradient = {
colors = (
(
(64,255),
0
),
(
(191,255),
1
)
);
end = (0.8878,0.5878);
start = (0.0693,0.513);
};
};
closed = 1;
nodes = (
(363,699,l),
(340,676,l),
(220,676,l),
(197,700,l),
(363,700,l)
);
},
{
attr = {
gradient = {
colors = (
(
(64,255),
0
),
(
(191,255),
1
)
);
end = (0.8878,0.5878);
start = (0.0693,0.513);
};
};
closed = 1;
nodes = (
(220,353,l),
(220,377,l),
(339,377,l),
(339,353,l)
);
},
{
attr = {
gradient = {
colors = (
(
(191,255),
0
),
(
(64,255),
1
)
);
end = (0.8878,0.5878);
start = (0.0693,0.513);
};
};
closed = 1;
nodes = (
(363,0,l),
(220,0,l),
(196,23,l),
(196,24,l),
(363,24,l)
);
},
{
attr = {
gradient = {
colors = (
(
(64,255),
0
),
(
(191,255),
0.50056
),
(
(64,255),
1
)
);
end = (1.2582,0.0143);
start = (-0.3003,0.8873);
};
};
closed = 1;
nodes = (
(196,24,l),
(196,676,l),
(220,676,l),
(220,24,l)
);
},
{
attr = {
gradient = {
colors = (
(
(64,255),
0
),
(
(191,255),
1
)
);
end = (0.8878,0.5878);
start = (0.0693,0.513);
};
};
closed = 1;
nodes = (
(220,677,l),
(220,676,l),
(77,676,l),
(77,700,l),
(197,700,l)
);
}
);
width = 416;
},
{
attr = {
color = 1;
};
layerId = "E87239EE-82B8-404C-B23A-53843E270889";
shapes = (
{
attr = {
gradient = {
colors = (
(
(64,255),
0
),
(
(191,255),
1
)
);
end = (0.0383,0.0895);
start = (0.8943,0.4519);
};
};
closed = 1;
nodes = (
(279,173,l),
(279,417,l),
(588,417,l),
(651,173,l)
);
},
{
attr = {
gradient = {
colors = (
(
(64,255),
0
),
(
(191,255),
1
)
);
end = (0.4877,0.9217);
start = (0.4155,-0.0037);
};
};
closed = 1;
nodes = (
(25,0,l),
(25,523,l),
(278,730,l),
(279,730,l),
(279,0,l)
);
},
{
attr = {
gradient = {
colors = (
(
(64,255),
0
),
(
(191,255),
1
)
);
end = (0.7292,0.9344);
start = (0.1098,0.591);
};
};
closed = 1;
nodes = (
(1366,729,l),
(1164,486,l),
(842,486,l),
(640,730,l),
(1366,730,l)
);
},
{
attr = {
gradient = {
colors = (
(
(64,255),
0
),
(
(191,255),
1
)
);
end = (0.8437,0.8454);
start = (0.2604,0.1278);
};
};
closed = 1;
nodes = (
(842,263,l),
(842,467,l),
(1202,467,l),
(1202,263,l)
);
},
{
attr = {
gradient = {
colors = (
(
(64,255),
0
),
(
(191,255),
1
)
);
end = (0.1064,0.7118);
start = (0.9731,0.0568);
};
};
closed = 1;
nodes = (
(1315,0,l),
(790,0,l),
(588,243,l),
(588,244,l),
(1315,244,l)
);
},
{
attr = {
gradient = {
colors = (
(
(64,255),
0
),
(
(191,255),
1
)
);
end = (0.991,0.2053);
start = (0.0523,0.7174);
};
};
closed = 1;
nodes = (
(588,244,l),
(588,486,l),
(842,486,l),
(842,244,l)
);
},
{
attr = {
gradient = {
colors = (
(
(64,255),
0
),
(
(191,255),
1
)
);
end = (0.713,0.9264);
start = (0.0306,0.307);
};
};
closed = 1;
nodes = (
(842,487,l),
(842,486,l),
(279,486,l),
(279,730,l),
(640,730,l)
);
}
);
width = 1391;
}
);
unicode = 198;
},
{
glyphname = AEacute;
lastChange = "2022-04-06 11:27:52 +0000";
layers = (
{
attr = {
color = 1;
};
layerId = "33AE93C6-B8B3-427A-A53B-F24970E840CE";
shapes = (
{
attr = {
gradient = {
colors = (
(
(191,255),
0
),
(
(64,255),
1
)
);
end = (0.8878,0.5878);
start = (0.0693,0.513);
};
identifier = ID0x6000133fe3e0;
};
closed = 1;
nodes = (
(77,353,l),
(77,377,l),
(196,377,l),
(196,353,l)
);
},
{
attr = {
gradient = {
colors = (
(
(64,255),
0
),
(
(191,255),
1
)
);
end = (0.5074,0.9658);
start = (0.6091,0.0797);
};
identifier = ID0x6000133fe3e0;
};
closed = 1;
nodes = (
(53,0,l),
(53,677,l),
(76,700,l),
(77,700,l),
(77,0,l)
);
},
{
attr = {
gradient = {
colors = (
(
(64,255),
0
),
(
(191,255),
1
)
);
end = (0.8878,0.5878);
start = (0.0693,0.513);
};
identifier = ID0x6000133fe3e0;
};
closed = 1;
nodes = (
(363,699,l),
(340,676,l),
(220,676,l),
(197,700,l),
(363,700,l)
);
},
{
attr = {
gradient = {
colors = (
(
(64,255),
0
),
(
(191,255),
1
)
);
end = (0.8878,0.5878);
start = (0.0693,0.513);
};
identifier = ID0x6000133fe3e0;
};
closed = 1;
nodes = (
(220,353,l),
(220,377,l),
(339,377,l),
(339,353,l)
);
},
{
attr = {
gradient = {
colors = (
(
(191,255),
0
),
(
(64,255),
1
)
);
end = (0.8878,0.5878);
start = (0.0693,0.513);
};
identifier = ID0x6000133fe3e0;
};
closed = 1;
nodes = (
(363,0,l),
(220,0,l),
(196,23,l),
(196,24,l),
(363,24,l)
);
},
{
attr = {
gradient = {
colors = (
(
(64,255),
0
),
(
(191,255),
0.50056
),
(
(64,255),
1
)
);
end = (1.2582,0.0143);
start = (-0.3003,0.8873);
};
identifier = ID0x6000133fe3e0;
};
closed = 1;
nodes = (
(196,24,l),
(196,676,l),
(220,676,l),
(220,24,l)
);
},
{
attr = {
gradient = {
colors = (
(
(64,255),
0
),
(
(191,255),
1
)
);
end = (0.8878,0.5878);
start = (0.0693,0.513);
};
identifier = ID0x6000133fe3e0;
};
closed = 1;
nodes = (
(220,677,l),
(220,676,l),
(77,676,l),
(77,700,l),
(197,700,l)
);
},
{
attr = {
gradient = {
colors = (
(
(191,255),
0
),
(
(64,255),
1
)
);
end = (0.7053,1.0789);
start = (0.3543,0.0329);
};
identifier = ID0x6000133fe300;
};
closed = 1;
nodes = (
(145,855,l),
(176,855,l),
(176,854,l),
(144,765,l),
(120,765,l)
);
}
);
width = 416;
},
{
attr = {
color = 1;
};
layerId = "E87239EE-82B8-404C-B23A-53843E270889";
shapes = (
{
attr = {
gradient = {
colors = (
(
(64,255),
0
),
(
(191,255),
1
)
);
end = (0.0383,0.0895);
start = (0.8943,0.4519);
};
identifier = ID0x6000133fe5a0;
};
closed = 1;
nodes = (
(279,173,l),
(279,417,l),
(588,417,l),
(651,173,l)
);
},
{
attr = {
gradient = {
colors = (
(
(64,255),
0
),
(
(191,255),
1
)
);
end = (0.4877,0.9217);
start = (0.4155,-0.0037);
};
identifier = ID0x6000133fe5a0;
};
closed = 1;
nodes = (
(25,0,l),
(25,523,l),
(278,730,l),
(279,730,l),
(279,0,l)
);
},
{
attr = {
gradient = {
colors = (
(
(64,255),
0
),
(
(191,255),
1
)
);
end = (0.7292,0.9344);
start = (0.1098,0.591);
};
identifier = ID0x6000133fe5a0;
};
closed = 1;
nodes = (
(1366,729,l),
(1164,486,l),
(842,486,l),
(640,730,l),
(1366,730,l)
);
},
{
attr = {
gradient = {
colors = (
(
(64,255),
0
),
(
(191,255),
1
)
);
end = (0.8437,0.8454);
start = (0.2604,0.1278);
};
identifier = ID0x6000133fe5a0;
};
closed = 1;
nodes = (
(842,263,l),
(842,467,l),
(1202,467,l),
(1202,263,l)
);
},
{
attr = {
gradient = {
colors = (
(
(64,255),
0
),
(
(191,255),
1
)
);
end = (0.1064,0.7118);
start = (0.9731,0.0568);
};
identifier = ID0x6000133fe5a0;
};
closed = 1;
nodes = (
(1315,0,l),
(790,0,l),
(588,243,l),
(588,244,l),
(1315,244,l)
);
},
{
attr = {
gradient = {
colors = (
(
(64,255),
0
),
(
(191,255),
1
)
);
end = (0.991,0.2053);
start = (0.0523,0.7174);
};
identifier = ID0x6000133fe5a0;
};
closed = 1;
nodes = (
(588,244,l),
(588,486,l),
(842,486,l),
(842,244,l)
);
},
{
attr = {
gradient = {
colors = (
(
(64,255),
0
),
(
(191,255),
1
)
);
end = (0.713,0.9264);
start = (0.0306,0.307);
};
identifier = ID0x6000133fe5a0;
};
closed = 1;
nodes = (
(842,487,l),
(842,486,l),
(279,486,l),
(279,730,l),
(640,730,l)
);
},
{
attr = {
gradient = {
colors = (
(
(191,255),
0
),
(
(64,255),
1
)
);
end = (0.7053,1.0789);
start = (0.3543,0.0329);
};
identifier = ID0x6000133fe4c0;
};
closed = 1;
nodes = (
(428,900,l),
(634,900,l),
(634,899,l),
(519,760,l),
(393,760,l)
);
}
);
width = 1391;
}
);
unicode = 508;
},
{
glyphname = B;
lastChange = "2022-04-06 11:27:52 +0000";
layers = (
{
attr = {
color = 1;
};
layerId = "33AE93C6-B8B3-427A-A53B-F24970E840CE";
shapes = (
{
attr = {
gradient = {
colors = (
(
(191,255),
0
),
(
(64,255),
1
)
);
end = (0.5245,0.827);
start = (0.8235,0.1183);
};
};
closed = 1;
nodes = (
(226,0,l),
(226,0,l),
(226,377,l),
(226,377,l),
(250,354,l),
(250,23,l)
);
},
{
attr = {
gradient = {
colors = (
(
(64,255),
0
),
(
(191,255),
1
)
);
end = (0.4877,0.9217);
start = (0.4155,-0.0037);
};
};
closed = 1;
nodes = (
(77,700,l),
(77,700,l),
(77,24,l),
(53,24,l),
(53,700,l)
);
},
{
attr = {
gradient = {
colors = (
(
(64,255),
0
),
(
(128,255),
1
)
);
end = (0.522,0.9968);
start = (0.4393,0.0388);
};
};
closed = 1;
nodes = (
(152,676,l),
(77,676,l),
(77,700,l),
(152,700,l)
);
},
{
attr = {
gradient = {
colors = (
(
(64,255),
0
),
(
(191,255),
1
)
);
end = (0.1636,0.9918);
start = (0.9225,0.2287);
};
};
closed = 1;
nodes = (
(53,0,l),
(53,24,l),
(226,24,l),
(226,0,l)
);
},
{
attr = {
gradient = {
colors = (
(
(191,255),
0
),
(
(64,255),
1
)
);
end = (0.3759,0.0091);
start = (0.4447,0.6672);
};
};
closed = 1;
nodes = (
(166,377,l),
(152,377,l),
(152,700,l),
(152,700,l),
(176,677,l),
(176,377,l)
);
},
{
attr = {
gradient = {
colors = (
(
(64,255),
0
),
(
(191,255),
1
)
);
end = (0.2671,0.5486);
start = (0.937,0.3463);
};
};
closed = 1;
nodes = (
(77,353,l),
(54,377,l),
(152,377,l),
(226,377,l),
(226,353,l)
);
}
);
width = 303;
},
{
attr = {
color = 1;
};
layerId = "E87239EE-82B8-404C-B23A-53843E270889";
shapes = (
{
attr = {
gradient = {
colors = (
(
(191,255),
0
),
(
(64,255),
1
)
);
end = (0.8878,0.5878);
start = (0.0693,0.513);
};
};
closed = 1;
nodes = (
(729,0,l),
(728,0,l),
(728,467,l),
(729,467,l),
(982,274,l),
(982,193,l)
);
},
{
attr = {
gradient = {
colors = (
(
(64,255),
0
),
(
(191,255),
1
)
);
end = (0.4877,0.9217);
start = (0.4155,-0.0037);
};
};
closed = 1;
nodes = (
(278,730,l),
(279,730,l),
(279,244,l),
(25,244,l),
(25,730,l)
);
},
{
attr = {
gradient = {
colors = (
(
(64,255),
0
),
(
(128,255),
1
)
);
end = (0.522,0.9968);
start = (0.4393,0.0388);
};
};
closed = 1;
nodes = (
(574,486,l),
(279,486,l),
(279,730,l),
(574,730,l)
);
},
{
attr = {
gradient = {
colors = (
(
(64,255),
0
),
(
(191,255),
1
)
);
end = (0.1636,0.9918);
start = (0.6848,0.1052);
};
};
closed = 1;
nodes = (
(25,0,l),
(25,244,l),
(728,244,l),
(728,0,l)
);
},
{
attr = {
gradient = {
colors = (
(
(191,255),
0
),
(
(64,255),
1
)
);
end = (0.3759,0.0091);
start = (0.4447,0.6672);
};
};
closed = 1;
nodes = (
(729,467,l),
(574,467,l),
(574,730,l),
(575,730,l),
(848,533,l),
(848,376,l)
);
},
{
attr = {
gradient = {
colors = (
(
(64,255),
0
),
(
(191,255),
1
)
);
end = (0.3103,0.7788);
start = (0.9832,0.4844);
};
};
closed = 1;
nodes = (
(727,263,l),
(574,466,l),
(574,467,l),
(728,467,l),
(728,263,l)
);
}
);
width = 1007;
}
);
unicode = 66;
},
{
glyphname = C;
lastChange = "2022-04-06 11:27:52 +0000";
layers = (
{
attr = {
color = 1;
};
layerId = "33AE93C6-B8B3-427A-A53B-F24970E840CE";
shapes = (
{
attr = {
gradient = {
colors = (
(
(64,255),
0
),
(
(191,255),
1
)
);
end = (0.4877,0.9217);
start = (0.453,0.0037);
};
};
closed = 1;
nodes = (
(76,700,l),
(77,700,l),
(77,24,l),
(53,24,l),
(53,677,l)
);
},
{
attr = {
gradient = {
colors = (
(
(64,255),
0
),
(
(191,255),
1
)
);
end = (0.8878,0.5878);
start = (0.0693,0.513);
};
};
closed = 1;
nodes = (
(220,677,l),
(220,676,l),
(77,676,l),
(77,700,l),
(197,700,l)
);
},
{
attr = {
gradient = {
colors = (
(
(191,255),
0
),
(
(64,255),
1
)
);
end = (0.8878,0.5878);
start = (0.0693,0.513);
};
};
closed = 1;
nodes = (
(53,23,l),
(53,24,l),
(220,24,l),
(197,0,l),
(76,0,l)
);
}
);
width = 273;
},
{
attr = {
color = 1;
};
layerId = "E87239EE-82B8-404C-B23A-53843E270889";
shapes = (
{
attr = {
gradient = {
colors = (
(
(64,255),
0
),
(
(191,255),
1
)
);
end = (0.4877,0.9217);
start = (0.4155,-0.0037);
};
};
closed = 1;
nodes = (
(278,730,l),
(279,730,l),
(279,244,l),
(25,244,l),
(25,523,l)
);
},
{
attr = {
gradient = {
colors = (
(
(64,255),
0
),
(
(191,255),
1
)
);
end = (0.8878,0.5878);
start = (0.0693,0.513);
};
};
closed = 1;
nodes = (
(902,487,l),
(902,486,l),
(279,486,l),
(279,730,l),
(700,730,l)
);
},
{
attr = {
gradient = {
colors = (
(
(191,255),
0
),
(
(64,255),
1
)
);
end = (0.8878,0.5878);
start = (0.0693,0.513);
};
};
closed = 1;
nodes = (
(25,243,l),
(25,244,l),
(902,244,l),
(700,0,l),
(227,0,l)
);
}
);
width = 927;
}
);
unicode = 67;
},
{
glyphname = Cacute;
lastChange = "2022-04-06 11:27:52 +0000";
layers = (
{
attr = {
color = 1;
};
layerId = "33AE93C6-B8B3-427A-A53B-F24970E840CE";
shapes = (
{
attr = {
gradient = {
colors = (
(
(64,255),
0
),
(
(191,255),
1
)
);
end = (0.4877,0.9217);
start = (0.453,0.0037);
};
identifier = ID0x6000133fe220;
};
closed = 1;
nodes = (
(76,700,l),
(77,700,l),
(77,24,l),
(53,24,l),
(53,677,l)
);
},
{
attr = {
gradient = {
colors = (
(
(64,255),
0
),
(
(191,255),
1
)
);
end = (0.8878,0.5878);
start = (0.0693,0.513);
};
identifier = ID0x6000133fe220;
};
closed = 1;
nodes = (
(220,677,l),
(220,676,l),
(77,676,l),
(77,700,l),
(197,700,l)
);
},
{
attr = {
gradient = {
colors = (
(
(191,255),
0
),
(
(64,255),
1
)
);
end = (0.8878,0.5878);
start = (0.0693,0.513);
};
identifier = ID0x6000133fe220;
};
closed = 1;
nodes = (
(53,23,l),
(53,24,l),
(220,24,l),
(197,0,l),
(76,0,l)
);
},
{
attr = {
gradient = {
colors = (
(
(191,255),
0
),
(
(64,255),
1
)
);
end = (0.7053,1.0789);
start = (0.3543,0.0329);
};
identifier = ID0x6000133fe140;
};
closed = 1;
nodes = (
(145,855,l),
(176,855,l),
(176,854,l),
(144,765,l),
(120,765,l)
);
}
);
width = 273;
},
{
attr = {
color = 1;
};
layerId = "E87239EE-82B8-404C-B23A-53843E270889";
shapes = (
{
attr = {
gradient = {
colors = (
(
(64,255),
0
),
(
(191,255),
1
)
);
end = (0.4877,0.9217);
start = (0.4155,-0.0037);
};
identifier = ID0x6000133fdea0;
};
closed = 1;
nodes = (
(278,730,l),
(279,730,l),
(279,244,l),
(25,244,l),
(25,523,l)
);
},
{
attr = {
gradient = {
colors = (
(
(64,255),
0
),
(
(191,255),
1
)
);
end = (0.8878,0.5878);
start = (0.0693,0.513);
};
identifier = ID0x6000133fdea0;
};
closed = 1;
nodes = (
(902,487,l),
(902,486,l),
(279,486,l),
(279,730,l),
(700,730,l)
);
},
{
attr = {
gradient = {
colors = (
(
(191,255),
0
),
(
(64,255),
1
)
);
end = (0.8878,0.5878);
start = (0.0693,0.513);
};
identifier = ID0x6000133fdea0;
};
closed = 1;
nodes = (
(25,243,l),
(25,244,l),
(902,244,l),
(700,0,l),
(227,0,l)
);
},
{
attr = {
gradient = {
colors = (
(
(191,255),
0
),
(
(64,255),
1
)
);
end = (0.7053,1.0789);
start = (0.3543,0.0329);
};
identifier = ID0x6000133fddc0;
};
closed = 1;
nodes = (
(428,900,l),
(634,900,l),
(634,899,l),
(519,760,l),
(393,760,l)
);
}
);
width = 927;
}
);
unicode = 262;
},
{
glyphname = Ccaron;
lastChange = "2022-04-06 11:27:52 +0000";
layers = (
{
attr = {
color = 1;
};
layerId = "33AE93C6-B8B3-427A-A53B-F24970E840CE";
shapes = (
{
attr = {
gradient = {
colors = (
(
(64,255),
0
),
(
(191,255),
1
)
);
end = (0.4877,0.9217);
start = (0.453,0.0037);
};
identifier = ID0x6000133fe060;
};
closed = 1;
nodes = (
(76,700,l),
(77,700,l),
(77,24,l),
(53,24,l),
(53,677,l)
);
},
{
attr = {
gradient = {
colors = (
(
(64,255),
0
),
(
(191,255),
1
)
);
end = (0.8878,0.5878);
start = (0.0693,0.513);
};
identifier = ID0x6000133fe060;
};
closed = 1;
nodes = (
(220,677,l),
(220,676,l),
(77,676,l),
(77,700,l),
(197,700,l)
);
},
{
attr = {
gradient = {
colors = (
(
(191,255),
0
),
(
(64,255),
1
)
);
end = (0.8878,0.5878);
start = (0.0693,0.513);
};
identifier = ID0x6000133fe060;
};
closed = 1;
nodes = (
(53,23,l),
(53,24,l),
(220,24,l),
(197,0,l),
(76,0,l)
);
},
{
attr = {
gradient = {
colors = (
(
(64,255),
0
),
(
(194,255),
1
)
);
end = (0.077,1.0037);
start = (0.8521,0.1516);
};
identifier = ID0x6000133fdf80;
};
closed = 1;
nodes = (
(105,840,l),
(148,762,l),
(126,750,l),
(125,750,l),
(81,840,l)
);
},
{
attr = {
gradient = {
colors = (
(
(191,255),
0
),
(
(64,255),
1
)
);
end = (0.9007,0.953);
start = (-0.0063,0.0106);
};
identifier = ID0x6000133fdf80;
};
closed = 1;
nodes = (
(149,750,l),
(126,750,l),
(171,840,l),
(195,840,l)
);
}
);
width = 273;
},
{
attr = {
color = 1;
};
layerId = "E87239EE-82B8-404C-B23A-53843E270889";
shapes = (
{
attr = {
gradient = {
colors = (
(
(64,255),
0
),
(
(191,255),
1
)
);
end = (0.4877,0.9217);
start = (0.4155,-0.0037);
};
identifier = ID0x6000133fdce0;
};
closed = 1;
nodes = (
(278,730,l),
(279,730,l),
(279,244,l),
(25,244,l),
(25,523,l)
);
},
{
attr = {
gradient = {
colors = (
(
(64,255),
0
),
(
(191,255),
1
)
);
end = (0.8878,0.5878);
start = (0.0693,0.513);
};
identifier = ID0x6000133fdce0;
};
closed = 1;
nodes = (
(902,487,l),
(902,486,l),
(279,486,l),
(279,730,l),
(700,730,l)
);
},
{
attr = {
gradient = {
colors = (
(
(191,255),
0
),
(
(64,255),
1
)
);
end = (0.8878,0.5878);
start = (0.0693,0.513);
};
identifier = ID0x6000133fdce0;
};
closed = 1;
nodes = (
(25,243,l),
(25,244,l),
(902,244,l),
(700,0,l),
(227,0,l)
);
},
{
attr = {
gradient = {
colors = (
(
(191,255),
0
),
(
(64,255),
1
)
);
end = (0.798,0.5172);
start = (0.0969,0.9365);
};
identifier = ID0x6000133fdc00;
};
closed = 1;
nodes = (
(401,900,l),
(535,793,l),
(443,760,l),
(402,760,l),
(244,900,l)
);
},
{
attr = {
gradient = {
colors = (
(
(64,255),
0
),
(
(191,255),
1
)
);
end = (0.0363,0.0333);
start = (0.9221,0.9501);
};
identifier = ID0x6000133fdc00;
};
closed = 1;
nodes = (
(556,760,l),
(402,760,l),
(556,900,l),
(710,900,l)
);
}
);
width = 927;
}
);
unicode = 268;
},
{
glyphname = Ccedilla;
lastChange = "2022-04-06 11:27:52 +0000";
layers = (
{
attr = {
color = 1;
};
layerId = "33AE93C6-B8B3-427A-A53B-F24970E840CE";
shapes = (
{
attr = {
gradient = {
colors = (
(
(64,255),
0
),
(
(191,255),
1
)
);
end = (0.4877,0.9217);
start = (0.453,0.0037);
};
identifier = ID0x6000133fd960;
};
closed = 1;
nodes = (
(76,700,l),
(77,700,l),
(77,24,l),
(53,24,l),
(53,677,l)
);
},
{
attr = {
gradient = {
colors = (
(
(64,255),
0
),
(
(191,255),
1
)
);
end = (0.8878,0.5878);
start = (0.0693,0.513);
};
identifier = ID0x6000133fd960;
};
closed = 1;
nodes = (
(220,677,l),
(220,676,l),
(77,676,l),
(77,700,l),
(197,700,l)
);
},
{
attr = {
gradient = {
colors = (
(
(191,255),
0
),
(
(64,255),
1
)
);
end = (0.8878,0.5878);
start = (0.0693,0.513);
};
identifier = ID0x6000133fd960;
};
closed = 1;
nodes = (
(53,23,l),
(53,24,l),
(220,24,l),
(197,0,l),
(76,0,l)
);
},
{
attr = {
gradient = {
colors = (
(
(191,255),
0
),
(
(64,255),
1
)
);
end = (0.8878,0.5878);
start = (0.0693,0.513);
};
identifier = ID0x6000133fd880;
};
closed = 1;
nodes = (
(100,-91,l),
(100,-90,l),
(150,-90,l),
(150,-109,l),
(118,-109,l)
);
},
{
attr = {
gradient = {
colors = (
(
(64,255),
0
),
(
(191,255),
1
)
);
end = (0.4056,0.1204);
start = (0.4192,0.8964);
};
identifier = ID0x6000133fd880;
};
closed = 1;
nodes = (
(151,-109,l),
(150,-109,l),
(150,-44,l),
(171,-44,l),
(171,-91,l)
);
},
{
attr = {
gradient = {
colors = (
(
(64,255),
0
),
(
(191,255),
1
)
);
end = (0.8878,0.5878);
start = (0.0693,0.513);
};
identifier = ID0x6000133fd880;
};
closed = 1;
nodes = (
(171,-43,l),
(171,-44,l),
(136,-44,l),
(136,-25,l),
(153,-25,l)
);
},
{
attr = {
gradient = {
colors = (
(
(191,255),
0
),
(
(64,255),
1
)
);
end = (0.7053,1.0789);
start = (0.3543,0.0329);
};
identifier = ID0x6000133fd880;
};
closed = 1;
nodes = (
(115,-43,l),
(127,0,l),
(151,0,l),
(151,-1,l),
(136,-44,l),
(115,-44,l)
);
}
);
width = 273;
},
{
attr = {
color = 1;
};
layerId = "E87239EE-82B8-404C-B23A-53843E270889";
shapes = (
{
attr = {
gradient = {
colors = (
(
(64,255),
0
),
(
(191,255),
1
)
);
end = (0.4877,0.9217);
start = (0.4155,-0.0037);
};
identifier = ID0x6000133fdb20;
};
closed = 1;
nodes = (
(278,730,l),
(279,730,l),
(279,244,l),
(25,244,l),
(25,523,l)
);
},
{
attr = {
gradient = {
colors = (
(
(64,255),
0
),
(
(191,255),
1
)
);
end = (0.8878,0.5878);
start = (0.0693,0.513);
};
identifier = ID0x6000133fdb20;
};
closed = 1;
nodes = (
(902,487,l),
(902,486,l),
(279,486,l),
(279,730,l),
(700,730,l)
);
},
{
attr = {
gradient = {
colors = (
(
(191,255),
0
),
(
(64,255),
1
)
);
end = (0.8878,0.5878);
start = (0.0693,0.513);
};
identifier = ID0x6000133fdb20;
};
closed = 1;
nodes = (
(25,243,l),
(25,244,l),
(902,244,l),
(700,0,l),
(227,0,l)
);
},
{
attr = {
gradient = {
colors = (
(
(191,255),
0
),
(
(64,255),
1
)
);
end = (0.8878,0.5878);
start = (0.0693,0.513);
};
identifier = ID0x6000133fda40;
};
closed = 1;
nodes = (
(285,-169,l),
(285,-168,l),
(503,-168,l),
(503,-260,l),
(345,-260,l)
);
},
{
attr = {
gradient = {
colors = (
(
(64,255),
0
),
(
(191,255),
1
)
);
end = (0.4056,0.1204);
start = (0.4192,0.8964);
};
identifier = ID0x6000133fda40;
};
closed = 1;
nodes = (
(504,-260,l),
(503,-260,l),
(503,-126,l),
(611,-126,l),
(611,-204,l)
);
},
{
attr = {
gradient = {
colors = (
(
(64,255),
0
),
(
(191,255),
1
)
);
end = (0.8878,0.5878);
start = (0.0693,0.513);
};
identifier = ID0x6000133fda40;
};
closed = 1;
nodes = (
(611,-125,l),
(611,-126,l),
(461,-126,l),
(507,-32,l),
(541,-32,l)
);
},
{
attr = {
gradient = {
colors = (
(
(64,255),
0
),
(
(191,255),
1
)
);
end = (0.4877,0.9217);
start = (0.4155,-0.0037);
};
identifier = ID0x6000133fda40;
};
closed = 1;
nodes = (
(345,-125,l),
(422,0,l),
(527,0,l),
(527,-1,l),
(461,-126,l),
(345,-126,l)
);
}
);
width = 927;
}
);
unicode = 199;
},
{
glyphname = Ccircumflex;
lastChange = "2022-04-06 11:27:52 +0000";
layers = (
{
attr = {
color = 1;
};
layerId = "33AE93C6-B8B3-427A-A53B-F24970E840CE";
shapes = (
{
attr = {
gradient = {
colors = (
(
(64,255),
0
),
(
(191,255),
1
)
);
end = (0.4877,0.9217);
start = (0.453,0.0037);
};
identifier = ID0x6000133fd7a0;
};
closed = 1;
nodes = (
(76,700,l),
(77,700,l),
(77,24,l),
(53,24,l),
(53,677,l)
);
},
{
attr = {
gradient = {
colors = (
(
(64,255),
0
),
(
(191,255),
1
)
);
end = (0.8878,0.5878);
start = (0.0693,0.513);
};
identifier = ID0x6000133fd7a0;
};
closed = 1;
nodes = (
(220,677,l),
(220,676,l),
(77,676,l),
(77,700,l),
(197,700,l)
);
},
{
attr = {
gradient = {
colors = (
(
(191,255),
0
),
(
(64,255),
1
)
);
end = (0.8878,0.5878);
start = (0.0693,0.513);
};
identifier = ID0x6000133fd7a0;
};
closed = 1;
nodes = (
(53,23,l),
(53,24,l),
(220,24,l),
(197,0,l),
(76,0,l)
);
},
{
attr = {
gradient = {
colors = (
(
(191,255),
0
),
(
(64,255),
1
)
);
end = (0.077,1.0037);
start = (0.8521,0.1516);
};
identifier = ID0x6000133fd6c0;
};
closed = 1;
nodes = (
(168,760,l),
(124,850,l),
(147,850,l),
(148,850,l),
(192,761,l),
(192,760,l)
);
},
{
attr = {
gradient = {
colors = (
(
(64,255),
0
),
(
(191,255),
1
)
);
end = (0.9007,0.953);
start = (-0.0063,0.0106);
};
identifier = ID0x6000133fd6c0;
};
closed = 1;
nodes = (
(78,761,l),
(124,850,l),
(147,850,l),
(102,760,l),
(78,760,l)
);
}
);
width = 273;
},
{
attr = {
color = 1;
};
layerId = "E87239EE-82B8-404C-B23A-53843E270889";
shapes = (
{
attr = {
gradient = {
colors = (
(
(64,255),
0
),
(
(191,255),
1
)
);
end = (0.4877,0.9217);
start = (0.4155,-0.0037);
};
identifier = ID0x6000133fd420;
};
closed = 1;
nodes = (
(278,730,l),
(279,730,l),
(279,244,l),
(25,244,l),
(25,523,l)
);
},
{
attr = {
gradient = {
colors = (
(
(64,255),
0
),
(
(191,255),
1
)
);
end = (0.8878,0.5878);
start = (0.0693,0.513);
};
identifier = ID0x6000133fd420;
};
closed = 1;
nodes = (
(902,487,l),
(902,486,l),
(279,486,l),
(279,730,l),
(700,730,l)
);
},
{
attr = {
gradient = {
colors = (
(
(191,255),
0
),
(
(64,255),
1
)
);
end = (0.8878,0.5878);
start = (0.0693,0.513);
};
identifier = ID0x6000133fd420;
};
closed = 1;
nodes = (
(25,243,l),
(25,244,l),
(902,244,l),
(700,0,l),
(227,0,l)
);
},
{
attr = {
gradient = {
colors = (
(
(191,255),
0
),
(
(64,255),
1
)
);
end = (0.1166,0.52);
start = (0.7807,0.4498);
};
identifier = ID0x6000133fd340;
};
closed = 1;
nodes = (
(559,760,l),
(425,867,l),
(517,900,l),
(558,900,l),
(716,761,l),
(716,760,l)
);
},
{
attr = {
gradient = {
colors = (
(
(64,255),
0
),
(
(191,255),
1
)
);
end = (0.6682,0.9872);
start = (0.2597,-0.011);
};
identifier = ID0x6000133fd340;
};
closed = 1;
nodes = (
(250,761,l),
(404,900,l),
(558,900,l),
(404,760,l),
(250,760,l)
);
}
);
width = 927;
}
);
unicode = 264;
},
{
glyphname = Cdotaccent;
lastChange = "2022-04-06 11:27:52 +0000";
layers = (
{
attr = {
color = 1;
};
layerId = "33AE93C6-B8B3-427A-A53B-F24970E840CE";
shapes = (
{
attr = {
gradient = {
colors = (
(
(64,255),
0
),
(
(191,255),
1
)
);
end = (0.4877,0.9217);
start = (0.453,0.0037);
};
identifier = ID0x6000133fd5e0;
};
closed = 1;
nodes = (
(76,700,l),
(77,700,l),
(77,24,l),
(53,24,l),
(53,677,l)
);
},
{
attr = {
gradient = {
colors = (
(
(64,255),
0
),
(
(191,255),
1
)
);
end = (0.8878,0.5878);
start = (0.0693,0.513);
};
identifier = ID0x6000133fd5e0;
};
closed = 1;
nodes = (
(220,677,l),
(220,676,l),
(77,676,l),
(77,700,l),
(197,700,l)
);
},
{
attr = {
gradient = {
colors = (
(
(191,255),
0
),
(
(64,255),
1
)
);
end = (0.8878,0.5878);
start = (0.0693,0.513);
};
identifier = ID0x6000133fd5e0;
};
closed = 1;
nodes = (
(53,23,l),
(53,24,l),
(220,24,l),
(197,0,l),
(76,0,l)
);
},
{
attr = {
gradient = {
colors = (
(
(191,255),
0
),
(
(64,255),
1
)
);
end = (1.0106,0.0609);
start = (0.045,0.9981);
};
identifier = ID0x6000133fd500;
};
closed = 1;
nodes = (
(123,811,l),
(123,845,l),
(153,845,l),
(153,811,l)
);
}
);
width = 273;
},
{
attr = {
color = 1;
};
layerId = "E87239EE-82B8-404C-B23A-53843E270889";
shapes = (
{
attr = {
gradient = {
colors = (
(
(64,255),
0
),
(
(191,255),
1
)
);
end = (0.4877,0.9217);
start = (0.4155,-0.0037);
};
identifier = ID0x6000133fd260;
};
closed = 1;
nodes = (
(278,730,l),
(279,730,l),
(279,244,l),
(25,244,l),
(25,523,l)
);
},
{
attr = {
gradient = {
colors = (
(
(64,255),
0
),
(
(191,255),
1
)
);
end = (0.8878,0.5878);
start = (0.0693,0.513);
};
identifier = ID0x6000133fd260;
};
closed = 1;
nodes = (
(902,487,l),
(902,486,l),
(279,486,l),
(279,730,l),
(700,730,l)
);
},
{
attr = {
gradient = {
colors = (
(
(191,255),
0
),
(
(64,255),
1
)
);
end = (0.8878,0.5878);
start = (0.0693,0.513);
};
identifier = ID0x6000133fd260;
};
closed = 1;
nodes = (
(25,243,l),
(25,244,l),
(902,244,l),
(700,0,l),
(227,0,l)
);
},
{
attr = {
gradient = {
colors = (
(
(191,255),
0
),
(
(64,255),
1
)
);
end = (0.7053,1.0789);
start = (0.3543,0.0329);
};
identifier = ID0x6000133fd180;
};
closed = 1;
nodes = (
(388,768,l),
(388,900,l),
(564,900,l),
(564,768,l)
);
}
);
width = 927;
}
);
unicode = 266;
},
{
glyphname = D;
lastChange = "2022-04-06 11:27:52 +0000";
layers = (
{
attr = {
color = "1";
};
layerId = "33AE93C6-B8B3-427A-A53B-F24970E840CE";
shapes = (
{
attr = {
gradient = {
colors = (
(
(64,255),
0
),
(
(191,255),
1
)
);
end = (0.4877,0.9217);
start = (0.453,0.0037);
};
};
closed = 1;
nodes = (
(76,700,l),
(77,700,l),
(77,24,l),
(53,24,l),
(53,700,l)
);
},
{
attr = {
gradient = {
colors = (
(
(64,255),
0
),
(
(191,255),
1
)
);
end = (0.8878,0.5878);
start = (0.1375,-0.0323);
};
};
closed = 1;
nodes = (
(222,677,l),
(222,676,l),
(77,676,l),
(77,700,l),
(199,700,l)
);
},
{
attr = {
gradient = {
colors = (
(
(64,255),
0
),
(
(191,255),
1
)
);
end = (0.4056,0.1204);
start = (0.4192,0.8964);
};
};
closed = 1;
nodes = (
(199,0,l),
(198,0,l),
(198,676,l),
(222,676,l),
(222,23,l)
);
},
{
attr = {
gradient = {
colors = (
(
(191,255),
0
),
(
(64,255),
1
)
);
end = (0.8878,0.5878);
start = (0.0693,0.513);
};
};
closed = 1;
nodes = (
(53,23,l),
(53,24,l),
(198,24,l),
(198,0,l),
(53,0,l)
);
}
);
width = 273;
},
{
attr = {
color = "1";
};
layerId = "E87239EE-82B8-404C-B23A-53843E270889";
shapes = (
{
attr = {
gradient = {
colors = (
(
(64,255),
0
),
(
(191,255),
1
)
);
end = (0.4877,0.9217);
start = (0.4155,-0.0037);
};
};
closed = 1;
nodes = (
(278,730,l),
(279,730,l),
(279,240,l),
(25,240,l),
(25,730,l)
);
},
{
attr = {
gradient = {
colors = (
(
(64,255),
0
),
(
(191,255),
1
)
);
end = (0.8878,0.5878);
start = (0.0693,0.513);
};
};
closed = 1;
nodes = (
(912,487,l),
(912,486,l),
(279,486,l),
(279,730,l),
(710,730,l)
);
},
{
attr = {
gradient = {
colors = (
(
(64,255),
0
),
(
(191,255),
1
)
);
end = (0.4056,0.1204);
start = (0.4192,0.8964);
};
};
closed = 1;
nodes = (
(659,-4,l),
(658,-4,l),
(658,486,l),
(912,486,l),
(912,193,l)
);
},
{
attr = {
gradient = {
colors = (
(
(191,255),
0
),
(
(64,255),
1
)
);
end = (0.8878,0.5878);
start = (0.0693,0.513);
};
};
closed = 1;
nodes = (
(25,239,l),
(25,240,l),
(658,240,l),
(658,-4,l),
(25,-4,l)
);
}
);
width = 937;
}
);
unicode = 68;
},
{
glyphname = DZcaron;
lastChange = "2022-04-06 11:27:52 +0000";
layers = (
{
attr = {
color = 1;
};
layerId = "33AE93C6-B8B3-427A-A53B-F24970E840CE";
shapes = (
{
attr = {
gradient = {
colors = (
(
(64,255),
0
),
(
(191,255),
1
)
);
end = (0.4877,0.9217);
start = (0.453,0.0037);
};
identifier = ID0x6000133fcee0;
};
closed = 1;
nodes = (
(76,700,l),
(77,700,l),
(77,24,l),
(53,24,l),
(53,700,l)
);
},
{
attr = {
gradient = {
colors = (
(
(64,255),
0
),
(
(191,255),
1
)
);
end = (0.8878,0.5878);
start = (0.1375,-0.0323);
};
identifier = ID0x6000133fcee0;
};
closed = 1;
nodes = (
(222,677,l),
(222,676,l),
(77,676,l),
(77,700,l),
(199,700,l)
);
},
{
attr = {
gradient = {
colors = (
(
(64,255),
0
),
(
(191,255),
1
)
);
end = (0.4056,0.1204);
start = (0.4192,0.8964);
};
identifier = ID0x6000133fcee0;
};
closed = 1;
nodes = (
(199,0,l),
(198,0,l),
(198,676,l),
(222,676,l),
(222,23,l)
);
},
{
attr = {
gradient = {
colors = (
(
(191,255),
0
),
(
(64,255),
1
)
);
end = (0.8878,0.5878);
start = (0.0693,0.513);
};
identifier = ID0x6000133fcee0;
};
closed = 1;
nodes = (
(53,23,l),
(53,24,l),
(198,24,l),
(198,0,l),
(53,0,l)
);
},
{
attr = {
gradient = {
colors = (
(
(191,255),
0
),
(
(64,255),
1
)
);
end = (0.8878,0.5878);
start = (0.0693,0.513);
};
identifier = ID0x600013460000;
};
closed = 1;
nodes = (
(429,700,l),
(426,676,l),
(296,676,l),
(296,677,l),
(296,700,l)
);
},
{
attr = {
gradient = {
colors = (
(
(64,255),
0
),
(
(191,255),
1
)
);
end = (0.1006,0.9261);
start = (0.8563,0.0865);
};
identifier = ID0x600013460000;
};
closed = 1;
nodes = (
(296,24,l),
(296,25,l),
(429,700,l),
(452,667,l),
(319,24,l)
);
},
{
attr = {
gradient = {
colors = (
(
(191,255),
0
),
(
(64,255),
1
)
);
end = (0.9403,0.817);
start = (0.0693,0.513);
};
identifier = ID0x600013460000;
};
closed = 1;
nodes = (
(319,0,l),
(296,24,l),
(452,24,l),
(452,23,l),
(452,0,l)
);
},
{
attr = {
gradient = {
colors = (
(
(64,255),
0
),
(
(194,255),
1
)
);
end = (0.077,1.0037);
start = (0.8521,0.1516);
};
identifier = ID0x6000134600e0;
};
closed = 1;
nodes = (
(348,840,l),
(391,762,l),
(369,750,l),
(368,750,l),
(324,840,l)
);
},
{
attr = {
gradient = {
colors = (
(
(191,255),
0
),
(
(64,255),
1
)
);
end = (0.9007,0.953);
start = (-0.0063,0.0106);
};
identifier = ID0x6000134600e0;
};
closed = 1;
nodes = (
(392,750,l),
(369,750,l),
(414,840,l),
(438,840,l)
);
}
);
width = 505;
},
{
attr = {
color = 1;
};
layerId = "E87239EE-82B8-404C-B23A-53843E270889";
shapes = (
{
attr = {
gradient = {
colors = (
(
(64,255),
0
),
(
(191,255),
1
)
);
end = (0.4877,0.9217);
start = (0.4155,-0.0037);
};
identifier = ID0x6000133fd0a0;
};
closed = 1;
nodes = (
(278,730,l),
(279,730,l),
(279,240,l),
(25,240,l),
(25,730,l)
);
},
{
attr = {
gradient = {
colors = (
(
(64,255),
0
),
(
(191,255),
1
)
);
end = (0.8878,0.5878);
start = (0.0693,0.513);
};
identifier = ID0x6000133fd0a0;
};
closed = 1;
nodes = (
(912,487,l),
(912,486,l),
(279,486,l),
(279,730,l),
(710,730,l)
);
},
{
attr = {
gradient = {
colors = (
(
(64,255),
0
),
(
(191,255),
1
)
);
end = (0.4056,0.1204);
start = (0.4192,0.8964);
};
identifier = ID0x6000133fd0a0;
};
closed = 1;
nodes = (
(659,-4,l),
(658,-4,l),
(658,486,l),
(912,486,l),
(912,193,l)
);
},
{
attr = {
gradient = {
colors = (
(
(191,255),
0
),
(
(64,255),
1
)
);
end = (0.8878,0.5878);
start = (0.0693,0.513);
};
identifier = ID0x6000133fd0a0;
};
closed = 1;
nodes = (
(25,239,l),
(25,240,l),
(658,240,l),
(658,-4,l),
(25,-4,l)
);
},
{
attr = {
gradient = {
colors = (
(
(191,255),
0
),
(
(64,255),
1
)
);
end = (0.5665,-0.135);
start = (0.1353,1.0072);
};
identifier = ID0x6000134601c0;
};
closed = 1;
nodes = (
(1571,730,l),
(1545,486,l),
(962,486,l),
(962,487,l),
(962,730,l)
);
},
{
attr = {
gradient = {
colors = (
(
(64,255),
0
),
(
(191,255),
1
)
);
end = (0.8927,1.0894);
start = (0.4509,0.1311);
};
identifier = ID0x6000134601c0;
};
closed = 1;
nodes = (
(968,244,l),
(968,245,l),
(1571,730,l),
(1711,535,l),
(1261,119,l)
);
},
{
attr = {
gradient = {
colors = (
(
(191,255),
0
),
(
(64,255),
1
)
);
end = (0.9726,0.891);
start = (-0.0344,0.0083);
};
identifier = ID0x6000134601c0;
};
closed = 1;
nodes = (
(968,0,l),
(968,244,l),
(1717,244,l),
(1717,243,l),
(1717,0,l)
);
},
{
attr = {
gradient = {
colors = (
(
(191,255),
0
),
(
(64,255),
1
)
);
end = (0.798,0.5172);
start = (0.0969,0.9365);
};
identifier = ID0x6000134602a0;
};
closed = 1;
nodes = (
(1238,900,l),
(1372,793,l),
(1280,760,l),
(1239,760,l),
(1081,900,l)
);
},
{
attr = {
gradient = {
colors = (
(
(64,255),
0
),
(
(191,255),
1
)
);
end = (0.0363,0.0333);
start = (0.9221,0.9501);
};
identifier = ID0x6000134602a0;
};
closed = 1;
nodes = (
(1393,760,l),
(1239,760,l),
(1393,900,l),
(1547,900,l)
);
}
);
width = 1742;
}
);
unicode = 452;
},
{
glyphname = Eth;
lastChange = "2022-04-06 11:27:52 +0000";
layers = (
{
attr = {
color = 1;
};
layerId = "33AE93C6-B8B3-427A-A53B-F24970E840CE";
shapes = (
{
attr = {
gradient = {
colors = (
(
(191,255),
0
),
(
(64,255),
0.3071
),
(
(64,255),
0.66009
),
(
(191,255),
1
)
);
end = (0.9558,0.4999);
start = (0.0105,0.4062);
};
identifier = ID0x6000133fcd20;
};
closed = 1;
nodes = (
(-15,353,l),
(-15,377,l),
(146,377,l),
(146,376,l),
(146,353,l)
);
},
{
attr = {
gradient = {
colors = (
(
(64,255),
0
),
(
(191,255),
1
)
);
end = (0.4877,0.9217);
start = (0.453,0.0037);
};
identifier = ID0x6000133fcc40;
};
closed = 1;
nodes = (
(76,700,l),
(77,700,l),
(77,24,l),
(53,24,l),
(53,700,l)
);
},
{
attr = {
gradient = {
colors = (
(
(64,255),
0
),
(
(191,255),
1
)
);
end = (0.8878,0.5878);
start = (0.1375,-0.0323);
};
identifier = ID0x6000133fcc40;
};
closed = 1;
nodes = (
(222,677,l),
(222,676,l),
(77,676,l),
(77,700,l),
(199,700,l)
);
},
{
attr = {
gradient = {
colors = (
(
(64,255),
0
),
(
(191,255),
1
)
);
end = (0.4056,0.1204);
start = (0.4192,0.8964);
};
identifier = ID0x6000133fcc40;
};
closed = 1;
nodes = (
(199,0,l),
(198,0,l),
(198,676,l),
(222,676,l),
(222,23,l)
);
},
{
attr = {
gradient = {
colors = (
(
(191,255),
0
),
(
(64,255),
1
)
);
end = (0.8878,0.5878);
start = (0.0693,0.513);
};
identifier = ID0x6000133fcc40;
};
closed = 1;
nodes = (
(53,23,l),
(53,24,l),
(198,24,l),
(198,0,l),
(53,0,l)
);
}
);
width = 273;
},
{
attr = {
color = 1;
};
layerId = "E87239EE-82B8-404C-B23A-53843E270889";
shapes = (
{
attr = {
gradient = {
colors = (
(
(191,255),
0
),
(
(64,255),
1
)
);
end = (0.5344,0.697);
start = (0.0588,0.0899);
};
identifier = ID0x6000133fc8c0;
};
closed = 1;
nodes = (
(-141,269,l),
(-141,453,l),
(453,453,l),
(453,452,l),
(453,269,l)
);
},
{
attr = {
gradient = {
colors = (
(
(64,255),
0
),
(
(191,255),
1
)
);
end = (0.4877,0.9217);
start = (0.4155,-0.0037);
};
identifier = ID0x6000133fc9a0;
};
closed = 1;
nodes = (
(278,730,l),
(279,730,l),
(279,240,l),
(25,240,l),
(25,730,l)
);
},
{
attr = {
gradient = {
colors = (
(
(64,255),
0
),
(
(191,255),
1
)
);
end = (0.8878,0.5878);
start = (0.0693,0.513);
};
identifier = ID0x6000133fc9a0;
};
closed = 1;
nodes = (
(912,487,l),
(912,486,l),
(279,486,l),
(279,730,l),
(710,730,l)
);
},
{
attr = {
gradient = {
colors = (
(
(64,255),
0
),
(
(191,255),
1
)
);
end = (0.4056,0.1204);
start = (0.4192,0.8964);
};
identifier = ID0x6000133fc9a0;
};
closed = 1;
nodes = (
(659,-4,l),
(658,-4,l),
(658,486,l),
(912,486,l),
(912,193,l)
);
},
{
attr = {
gradient = {
colors = (
(
(191,255),
0
),
(
(64,255),
1
)
);
end = (0.8878,0.5878);
start = (0.0693,0.513);
};
identifier = ID0x6000133fc9a0;
};
closed = 1;
nodes = (
(25,239,l),
(25,240,l),
(658,240,l),
(658,-4,l),
(25,-4,l)
);
}
);
width = 937;
}
);
unicode = 208;
},
{
glyphname = Dcaron;
lastChange = "2022-04-06 11:27:52 +0000";
layers = (
{
attr = {
color = 1;
};
layerId = "33AE93C6-B8B3-427A-A53B-F24970E840CE";
shapes = (
{
attr = {
gradient = {
colors = (
(
(64,255),
0
),
(
(191,255),
1
)
);
end = (0.4877,0.9217);
start = (0.453,0.0037);
};
identifier = ID0x6000133fc7e0;
};
closed = 1;
nodes = (
(76,700,l),
(77,700,l),
(77,24,l),
(53,24,l),
(53,700,l)
);
},
{
attr = {
gradient = {
colors = (
(
(64,255),
0
),
(
(191,255),
1
)
);
end = (0.8878,0.5878);
start = (0.1375,-0.0323);
};
identifier = ID0x6000133fc7e0;
};
closed = 1;
nodes = (
(222,677,l),
(222,676,l),
(77,676,l),
(77,700,l),
(199,700,l)
);
},
{
attr = {
gradient = {
colors = (
(
(64,255),
0
),
(
(191,255),
1
)
);
end = (0.4056,0.1204);
start = (0.4192,0.8964);
};
identifier = ID0x6000133fc7e0;
};
closed = 1;
nodes = (
(199,0,l),
(198,0,l),
(198,676,l),
(222,676,l),
(222,23,l)
);
},
{
attr = {
gradient = {
colors = (
(
(191,255),
0
),
(
(64,255),
1
)
);
end = (0.8878,0.5878);
start = (0.0693,0.513);
};
identifier = ID0x6000133fc7e0;
};
closed = 1;
nodes = (
(53,23,l),
(53,24,l),
(198,24,l),
(198,0,l),
(53,0,l)
);
},
{
attr = {
gradient = {
colors = (
(
(64,255),
0
),
(
(194,255),
1
)
);
end = (0.077,1.0037);
start = (0.8521,0.1516);
};
identifier = ID0x6000133fc2a0;
};
closed = 1;
nodes = (
(105,840,l),
(148,762,l),
(126,750,l),
(125,750,l),
(81,840,l)
);
},
{
attr = {
gradient = {
colors = (
(
(191,255),
0
),
(
(64,255),
1
)
);
end = (0.9007,0.953);
start = (-0.0063,0.0106);
};
identifier = ID0x6000133fc2a0;
};
closed = 1;
nodes = (
(149,750,l),
(126,750,l),
(171,840,l),
(195,840,l)
);
}
);
width = 273;
},
{
attr = {
color = 1;
};
layerId = "E87239EE-82B8-404C-B23A-53843E270889";
shapes = (
{
attr = {
gradient = {
colors = (
(
(64,255),
0
),
(
(191,255),
1
)
);
end = (0.4877,0.9217);
start = (0.4155,-0.0037);
};
identifier = ID0x6000133fc540;
};
closed = 1;
nodes = (
(278,730,l),
(279,730,l),
(279,240,l),
(25,240,l),
(25,730,l)
);
},
{
attr = {
gradient = {
colors = (
(
(64,255),
0
),
(
(191,255),
1
)
);
end = (0.8878,0.5878);
start = (0.0693,0.513);
};
identifier = ID0x6000133fc540;
};
closed = 1;
nodes = (
(912,487,l),
(912,486,l),
(279,486,l),
(279,730,l),
(710,730,l)
);
},
{
attr = {
gradient = {
colors = (
(
(64,255),
0
),
(
(191,255),
1
)
);
end = (0.4056,0.1204);
start = (0.4192,0.8964);
};
identifier = ID0x6000133fc540;
};
closed = 1;
nodes = (
(659,-4,l),
(658,-4,l),
(658,486,l),
(912,486,l),
(912,193,l)
);
},
{
attr = {
gradient = {
colors = (
(
(191,255),
0
),
(
(64,255),
1
)
);
end = (0.8878,0.5878);
start = (0.0693,0.513);
};
identifier = ID0x6000133fc540;
};
closed = 1;
nodes = (
(25,239,l),
(25,240,l),
(658,240,l),
(658,-4,l),
(25,-4,l)
);
},
{
attr = {
gradient = {
colors = (
(
(191,255),
0
),
(
(64,255),
1
)
);
end = (0.798,0.5172);
start = (0.0969,0.9365);
};
identifier = ID0x6000133fc700;
};
closed = 1;
nodes = (
(391,900,l),
(525,793,l),
(433,760,l),
(392,760,l),
(234,900,l)
);
},
{
attr = {
gradient = {
colors = (
(
(64,255),
0
),
(
(191,255),
1
)
);
end = (0.0363,0.0333);
start = (0.9221,0.9501);
};
identifier = ID0x6000133fc700;
};
closed = 1;
nodes = (
(546,760,l),
(392,760,l),
(546,900,l),
(700,900,l)
);
}
);
width = 937;
}
);
unicode = 270;
},
{
glyphname = Dcroat;
lastChange = "2022-04-06 11:27:52 +0000";
layers = (
{
attr = {
color = 1;
};
layerId = "33AE93C6-B8B3-427A-A53B-F24970E840CE";
shapes = (
{
attr = {
gradient = {
colors = (
(
(191,255),
0
),
(
(64,255),
0.3071
),
(
(64,255),
0.66009
),
(
(191,255),
1
)
);
end = (0.9558,0.4999);
start = (0.0105,0.4062);
};
identifier = ID0x6000133d4620;
};
closed = 1;
nodes = (
(-15,353,l),
(-15,377,l),
(146,377,l),
(146,376,l),
(146,353,l)
);
},
{
attr = {
gradient = {
colors = (
(
(64,255),
0
),
(
(191,255),
1
)
);
end = (0.4877,0.9217);
start = (0.453,0.0037);
};
identifier = ID0x6000133d4620;
};
closed = 1;
nodes = (
(76,700,l),
(77,700,l),
(77,24,l),
(53,24,l),
(53,700,l)
);
},
{
attr = {
gradient = {
colors = (
(
(64,255),
0
),
(
(191,255),
1
)
);
end = (0.8878,0.5878);
start = (0.1375,-0.0323);
};
identifier = ID0x6000133d4620;
};
closed = 1;
nodes = (
(222,677,l),
(222,676,l),
(77,676,l),
(77,700,l),
(199,700,l)
);
},
{
attr = {
gradient = {
colors = (
(
(64,255),
0
),
(
(191,255),
1
)
);
end = (0.4056,0.1204);
start = (0.4192,0.8964);
};
identifier = ID0x6000133d4620;
};
closed = 1;
nodes = (
(199,0,l),
(198,0,l),
(198,676,l),
(222,676,l),
(222,23,l)
);
},
{
attr = {
gradient = {
colors = (
(
(191,255),
0
),
(
(64,255),
1
)
);
end = (0.8878,0.5878);
start = (0.0693,0.513);
};
identifier = ID0x6000133d4620;
};
closed = 1;
nodes = (
(53,23,l),
(53,24,l),
(198,24,l),
(198,0,l),
(53,0,l)
);
}
);
width = 273;
},
{
attr = {
color = 1;
};
layerId = "E87239EE-82B8-404C-B23A-53843E270889";
shapes = (
{
attr = {
gradient = {
colors = (
(
(191,255),
0
),
(
(64,255),
1
)
);
end = (0.5344,0.697);
start = (0.0588,0.0899);
};
identifier = ID0x6000133d41c0;
};
closed = 1;
nodes = (
(-141,269,l),
(-141,453,l),
(453,453,l),
(453,452,l),
(453,269,l)
);
},
{
attr = {
gradient = {
colors = (
(
(64,255),
0
),
(
(191,255),
1
)
);
end = (0.4877,0.9217);
start = (0.4155,-0.0037);
};
identifier = ID0x6000133d41c0;
};
closed = 1;
nodes = (
(278,730,l),
(279,730,l),
(279,240,l),
(25,240,l),
(25,730,l)
);
},
{
attr = {
gradient = {
colors = (
(
(64,255),
0
),
(
(191,255),
1
)
);
end = (0.8878,0.5878);
start = (0.0693,0.513);
};
identifier = ID0x6000133d41c0;
};
closed = 1;
nodes = (
(912,487,l),
(912,486,l),
(279,486,l),
(279,730,l),
(710,730,l)
);
},
{
attr = {
gradient = {
colors = (
(
(64,255),
0
),
(
(191,255),
1
)
);
end = (0.4056,0.1204);
start = (0.4192,0.8964);
};
identifier = ID0x6000133d41c0;
};
closed = 1;
nodes = (
(659,-4,l),
(658,-4,l),
(658,486,l),
(912,486,l),
(912,193,l)
);
},
{
attr = {
gradient = {
colors = (
(
(191,255),
0
),
(
(64,255),
1
)
);
end = (0.8878,0.5878);
start = (0.0693,0.513);
};
identifier = ID0x6000133d41c0;
};
closed = 1;
nodes = (
(25,239,l),
(25,240,l),
(658,240,l),
(658,-4,l),
(25,-4,l)
);
}
);
width = 937;
}
);
unicode = 272;
},
{
glyphname = Dzcaron;
lastChange = "2022-04-06 11:27:52 +0000";
layers = (
{
attr = {
color = 1;
};
layerId = "33AE93C6-B8B3-427A-A53B-F24970E840CE";
shapes = (
{
attr = {
gradient = {
colors = (
(
(64,255),
0
),
(
(191,255),
1
)
);
end = (0.4877,0.9217);
start = (0.453,0.0037);
};
identifier = ID0x6000133d4380;
};
closed = 1;
nodes = (
(76,700,l),
(77,700,l),
(77,24,l),
(53,24,l),
(53,700,l)
);
},
{
attr = {
gradient = {
colors = (
(
(64,255),
0
),
(
(191,255),
1
)
);
end = (0.8878,0.5878);
start = (0.1375,-0.0323);
};
identifier = ID0x6000133d4380;
};
closed = 1;
nodes = (
(222,677,l),
(222,676,l),
(77,676,l),
(77,700,l),
(199,700,l)
);
},
{
attr = {
gradient = {
colors = (
(
(64,255),
0
),
(
(191,255),
1
)
);
end = (0.4056,0.1204);
start = (0.4192,0.8964);
};
identifier = ID0x6000133d4380;
};
closed = 1;
nodes = (
(199,0,l),
(198,0,l),
(198,676,l),
(222,676,l),
(222,23,l)
);
},
{
attr = {
gradient = {
colors = (
(
(191,255),
0
),
(
(64,255),
1
)
);
end = (0.8878,0.5878);
start = (0.0693,0.513);
};
identifier = ID0x6000133d4380;
};
closed = 1;
nodes = (
(53,23,l),
(53,24,l),
(198,24,l),
(198,0,l),
(53,0,l)
);
},
{
attr = {
gradient = {
colors = (
(
(191,255),
0
),
(
(64,255),
1
)
);
end = (0.8878,0.5878);
start = (0.0693,0.513);
};
identifier = ID0x600013460380;
};
closed = 1;
nodes = (
(429,500,l),
(426,476,l),
(326,476,l),
(326,477,l),
(326,500,l)
);
},
{
attr = {
gradient = {
colors = (
(
(64,255),
0
),
(
(191,255),
1
)
);
end = (0.1006,0.9261);
start = (0.8563,0.0865);
};
identifier = ID0x600013460380;
};
closed = 1;
nodes = (
(326,24,l),
(326,25,l),
(429,500,l),
(452,467,l),
(349,24,l)
);
},
{
attr = {
gradient = {
colors = (
(
(191,255),
0
),
(
(64,255),
1
)
);
end = (0.9403,0.817);
start = (0.0693,0.513);
};
identifier = ID0x600013460380;
};
closed = 1;
nodes = (
(349,0,l),
(326,24,l),
(452,24,l),
(452,23,l),
(452,0,l)
);
},
{
attr = {
gradient = {
colors = (
(
(64,255),
0
),
(
(194,255),
1
)
);
end = (0.077,1.0037);
start = (0.8521,0.1516);
};
identifier = ID0x600013460460;
};
closed = 1;
nodes = (
(354,680,l),
(397,602,l),
(375,590,l),
(374,590,l),
(330,680,l)
);
},
{
attr = {
gradient = {
colors = (
(
(191,255),
0
),
(
(64,255),
1
)
);
end = (0.9007,0.953);
start = (-0.0063,0.0106);
};
identifier = ID0x600013460460;
};
closed = 1;
nodes = (
(398,590,l),
(375,590,l),
(420,680,l),
(444,680,l)
);
}
);
width = 475;
},
{
attr = {
color = 1;
};
layerId = "E87239EE-82B8-404C-B23A-53843E270889";
shapes = (
{
attr = {
gradient = {
colors = (
(
(64,255),
0
),
(
(191,255),
1
)
);
end = (0.4877,0.9217);
start = (0.4155,-0.0037);
};
identifier = ID0x6000133d7e20;
};
closed = 1;
nodes = (
(278,730,l),
(279,730,l),
(279,240,l),
(25,240,l),
(25,730,l)
);
},
{
attr = {
gradient = {
colors = (
(
(64,255),
0
),
(
(191,255),
1
)
);
end = (0.8878,0.5878);
start = (0.0693,0.513);
};
identifier = ID0x6000133d7e20;
};
closed = 1;
nodes = (
(912,487,l),
(912,486,l),
(279,486,l),
(279,730,l),
(710,730,l)
);
},
{
attr = {
gradient = {
colors = (
(
(64,255),
0
),
(
(191,255),
1
)
);
end = (0.4056,0.1204);
start = (0.4192,0.8964);
};
identifier = ID0x6000133d7e20;
};
closed = 1;
nodes = (
(659,-4,l),
(658,-4,l),
(658,486,l),
(912,486,l),
(912,193,l)
);
},
{
attr = {
gradient = {
colors = (
(
(191,255),
0
),
(
(64,255),
1
)
);
end = (0.8878,0.5878);
start = (0.0693,0.513);
};
identifier = ID0x6000133d7e20;
};
closed = 1;
nodes = (
(25,239,l),
(25,240,l),
(658,240,l),
(658,-4,l),
(25,-4,l)
);
},
{
attr = {
gradient = {
colors = (
(
(191,255),
0
),
(
(64,255),
1
)
);
end = (0.5665,-0.135);
start = (0.1353,1.0072);
};
identifier = ID0x600013460540;
};
closed = 1;
nodes = (
(1615,530,l),
(1589,351,l),
(978,351,l),
(978,352,l),
(1085,530,l)
);
},
{
attr = {
gradient = {
colors = (
(
(64,255),
0
),
(
(191,255),
1
)
);
end = (0.8927,1.0894);
start = (0.4509,0.1311);
};
identifier = ID0x600013460540;
};
closed = 1;
nodes = (
(972,179,l),
(972,180,l),
(1615,530,l),
(1705,365,l),
(1215,149,l)
);
},
{
attr = {
gradient = {
colors = (
(
(191,255),
0
),
(
(64,255),
1
)
);
end = (0.8799,0.3164);
start = (-0.0095,0.8379);
};
identifier = ID0x600013460540;
};
closed = 1;
nodes = (
(1079,0,l),
(972,179,l),
(1699,179,l),
(1699,178,l),
(1699,0,l)
);
},
{
attr = {
gradient = {
colors = (
(
(64,255),
0
),
(
(194,255),
1
)
);
end = (0.1166,0.52);
start = (0.7807,0.4498);
};
identifier = ID0x600013460620;
};
closed = 1;
nodes = (
(1287,750,l),
(1391,613,l),
(1309,582,l),
(1268,582,l),
(1130,750,l)
);
},
{
attr = {
gradient = {
colors = (
(
(191,255),
0
),
(
(64,255),
1
)
);
end = (0.6682,0.9872);
start = (0.2597,-0.011);
};
identifier = ID0x600013460620;
};
closed = 1;
nodes = (
(1412,582,l),
(1268,582,l),
(1402,750,l),
(1556,750,l)
);
}
);
width = 1740;
}
);
unicode = 453;
},
{
glyphname = E;
lastChange = "2022-04-06 11:27:52 +0000";
layers = (
{
attr = {
color = 1;
};
layerId = "33AE93C6-B8B3-427A-A53B-F24970E840CE";
shapes = (
{
attr = {
gradient = {
colors = (
(
(64,255),
0
),
(
(191,255),
1
)
);
end = (0.5074,0.9658);
start = (0.6091,0.0797);
};
};
closed = 1;
nodes = (
(76,700,l),
(77,700,l),
(77,24,l),
(53,24,l),
(53,700,l)
);
},
{
attr = {
gradient = {
colors = (
(
(64,255),
0
),
(
(191,255),
1
)
);
end = (0.8878,0.5878);
start = (0.0693,0.513);
};
};
closed = 1;
nodes = (
(77,676,l),
(77,700,l),
(220,700,l),
(220,699,l),
(197,676,l)
);
},
{
attr = {
gradient = {
colors = (
(
(64,255),
0
),
(
(191,255),
1
)
);
end = (0.8878,0.5878);
start = (0.0693,0.513);
};
};
closed = 1;
nodes = (
(77,353,l),
(77,376,l),
(77,377,l),
(196,377,l),
(196,353,l)
);
},
{
attr = {
gradient = {
colors = (
(
(191,255),
0
),
(
(64,255),
1
)
);
end = (0.8878,0.5878);
start = (0.0693,0.513);
};
};
closed = 1;
nodes = (
(77,0,l),
(53,23,l),
(53,24,l),
(220,24,l),
(220,0,l)
);
}
);
width = 273;
},
{
attr = {
color = 1;
};
layerId = "E87239EE-82B8-404C-B23A-53843E270889";
shapes = (
{
attr = {
gradient = {
colors = (
(
(64,255),
0
),
(
(191,255),
1
)
);
end = (0.4877,0.9217);
start = (0.4155,-0.0037);
};
};
closed = 1;
nodes = (
(278,730,l),
(279,730,l),
(279,244,l),
(25,244,l),
(25,730,l)
);
},
{
attr = {
gradient = {
colors = (
(
(64,255),
0
),
(
(191,255),
1
)
);
end = (0.713,0.9264);
start = (0.0306,0.307);
};
};
closed = 1;
nodes = (
(279,486,l),
(279,730,l),
(842,730,l),
(842,729,l),
(640,486,l)
);
},
{
attr = {
gradient = {
colors = (
(
(64,255),
0
),
(
(191,255),
1
)
);
end = (0.8437,0.8454);
start = (0.2604,0.1278);
};
};
closed = 1;
nodes = (
(279,263,l),
(279,467,l),
(688,467,l),
(688,466,l),
(688,263,l)
);
},
{
attr = {
gradient = {
colors = (
(
(64,255),
0
),
(
(191,255),
1
)
);
end = (0.2497,0.9606);
start = (0.5205,-0.1117);
};
};
closed = 1;
nodes = (
(227,0,l),
(25,243,l),
(25,244,l),
(791,244,l),
(791,0,l)
);
}
);
width = 832;
}
);
unicode = 69;
},
{
glyphname = Eacute;
lastChange = "2022-04-06 11:27:52 +0000";
layers = (
{
attr = {
color = 1;
};
layerId = "33AE93C6-B8B3-427A-A53B-F24970E840CE";
shapes = (
{
attr = {
gradient = {
colors = (
(
(64,255),
0
),
(
(191,255),
1
)
);
end = (0.5074,0.9658);
start = (0.6091,0.0797);
};
identifier = ID0x6000133d7c60;
};
closed = 1;
nodes = (
(76,700,l),
(77,700,l),
(77,24,l),
(53,24,l),
(53,700,l)
);
},
{
attr = {
gradient = {
colors = (
(
(64,255),
0
),
(
(191,255),
1
)
);
end = (0.8878,0.5878);
start = (0.0693,0.513);
};
identifier = ID0x6000133d7c60;
};
closed = 1;
nodes = (
(77,676,l),
(77,700,l),
(220,700,l),
(220,699,l),
(197,676,l)
);
},
{
attr = {
gradient = {
colors = (
(
(64,255),
0
),
(
(191,255),
1
)
);
end = (0.8878,0.5878);
start = (0.0693,0.513);
};
identifier = ID0x6000133d7c60;
};
closed = 1;
nodes = (
(77,353,l),
(77,376,l),
(77,377,l),
(196,377,l),
(196,353,l)
);
},
{
attr = {
gradient = {
colors = (
(
(191,255),
0
),
(
(64,255),
1
)
);
end = (0.8878,0.5878);
start = (0.0693,0.513);
};
identifier = ID0x6000133d7c60;
};
closed = 1;
nodes = (
(77,0,l),
(53,23,l),
(53,24,l),
(220,24,l),
(220,0,l)
);
},
{
attr = {
gradient = {
colors = (
(
(191,255),
0
),
(
(64,255),
1
)
);
end = (0.7053,1.0789);
start = (0.3543,0.0329);
};
identifier = ID0x6000133d7b80;
};
closed = 1;
nodes = (
(145,855,l),
(176,855,l),
(176,854,l),
(144,765,l),
(120,765,l)
);
}
);
width = 273;
},
{
attr = {
color = 1;
};
layerId = "E87239EE-82B8-404C-B23A-53843E270889";
shapes = (
{
attr = {
gradient = {
colors = (
(
(64,255),
0
),
(
(191,255),
1
)
);
end = (0.4877,0.9217);
start = (0.4155,-0.0037);
};
identifier = ID0x6000133d7aa0;
};
closed = 1;
nodes = (
(278,730,l),
(279,730,l),
(279,244,l),
(25,244,l),
(25,730,l)
);
},
{
attr = {
gradient = {
colors = (
(
(64,255),
0
),
(
(191,255),
1
)
);
end = (0.713,0.9264);
start = (0.0306,0.307);
};
identifier = ID0x6000133d7aa0;
};
closed = 1;
nodes = (
(279,486,l),
(279,730,l),
(842,730,l),
(842,729,l),
(640,486,l)
);
},
{
attr = {
gradient = {
colors = (
(
(64,255),
0
),
(
(191,255),
1
)
);
end = (0.8437,0.8454);
start = (0.2604,0.1278);
};
identifier = ID0x6000133d7aa0;
};
closed = 1;
nodes = (
(279,263,l),
(279,467,l),
(688,467,l),
(688,466,l),
(688,263,l)
);
},
{
attr = {
gradient = {
colors = (
(
(64,255),
0
),
(
(191,255),
1
)
);
end = (0.2497,0.9606);
start = (0.5205,-0.1117);
};
identifier = ID0x6000133d7aa0;
};
closed = 1;
nodes = (
(227,0,l),
(25,243,l),
(25,244,l),
(791,244,l),
(791,0,l)
);
},
{
attr = {
gradient = {
colors = (
(
(191,255),
0
),
(
(64,255),
1
)
);
end = (0.7053,1.0789);
start = (0.3543,0.0329);
};
identifier = ID0x6000133d79c0;
};
closed = 1;
nodes = (
(398,900,l),
(604,900,l),
(604,899,l),
(489,760,l),
(363,760,l)
);
}
);
width = 832;
}
);
unicode = 201;
},
{
glyphname = Ebreve;
lastChange = "2022-04-06 11:27:52 +0000";
layers = (
{
attr = {
color = 1;
};
layerId = "33AE93C6-B8B3-427A-A53B-F24970E840CE";
shapes = (
{
attr = {
gradient = {
colors = (
(
(64,255),
0
),
(
(191,255),
1
)
);
end = (0.5074,0.9658);
start = (0.6091,0.0797);
};
identifier = ID0x6000133d78e0;
};
closed = 1;
nodes = (
(76,700,l),
(77,700,l),
(77,24,l),
(53,24,l),
(53,700,l)
);
},
{
attr = {
gradient = {
colors = (
(
(64,255),
0
),
(
(191,255),
1
)
);
end = (0.8878,0.5878);
start = (0.0693,0.513);
};
identifier = ID0x6000133d78e0;
};
closed = 1;
nodes = (
(77,676,l),
(77,700,l),
(220,700,l),
(220,699,l),
(197,676,l)
);
},
{
attr = {
gradient = {
colors = (
(
(64,255),
0
),
(
(191,255),
1
)
);
end = (0.8878,0.5878);
start = (0.0693,0.513);
};
identifier = ID0x6000133d78e0;
};
closed = 1;
nodes = (
(77,353,l),
(77,376,l),
(77,377,l),
(196,377,l),
(196,353,l)
);
},
{
attr = {
gradient = {
colors = (
(
(191,255),
0
),
(
(64,255),
1
)
);
end = (0.8878,0.5878);
start = (0.0693,0.513);
};
identifier = ID0x6000133d78e0;
};
closed = 1;
nodes = (
(77,0,l),
(53,23,l),
(53,24,l),
(220,24,l),
(220,0,l)
);
},
{
attr = {
gradient = {
colors = (
(
(191,255),
0
),
(
(64,255),
1
)
);
end = (0.8593,0.0383);
start = (0.1213,0.9446);
};
identifier = ID0x6000133d7800;
};
closed = 1;
nodes = (
(91,803,l),
(60,839,l),
(60,840,l),
(92,840,l),
(123,803,l)
);
},
{
attr = {
gradient = {
colors = (
(
(191,255),
0
),
(
(64,255),
1
)
);
end = (0.107,0.0319);
start = (0.5888,0.9521);
};
identifier = ID0x6000133d7800;
};
closed = 1;
nodes = (
(184,840,l),
(216,840,l),
(216,839,l),
(185,803,l),
(153,803,l)
);
},
{
attr = {
gradient = {
colors = (
(
(191,255),
0
),
(
(64,255),
1
)
);
end = (0.7849,0.1074);
start = (0.2241,0.0674);
};
identifier = ID0x6000133d7800;
};
closed = 1;
nodes = (
(110,781,l),
(91,803,l),
(185,803,l),
(166,781,l)
);
}
);
width = 273;
},
{
attr = {
color = 1;
};
layerId = "E87239EE-82B8-404C-B23A-53843E270889";
shapes = (
{
attr = {
gradient = {
colors = (
(
(64,255),
0
),
(
(191,255),
1
)
);
end = (0.4877,0.9217);
start = (0.4155,-0.0037);
};
identifier = ID0x6000133d7720;
};
closed = 1;
nodes = (
(278,730,l),
(279,730,l),
(279,244,l),
(25,244,l),
(25,730,l)
);
},
{
attr = {
gradient = {
colors = (
(
(64,255),
0
),
(
(191,255),
1
)
);
end = (0.713,0.9264);
start = (0.0306,0.307);
};
identifier = ID0x6000133d7720;
};
closed = 1;
nodes = (
(279,486,l),
(279,730,l),
(842,730,l),
(842,729,l),
(640,486,l)
);
},
{
attr = {
gradient = {
colors = (
(
(64,255),
0
),
(
(191,255),
1
)
);
end = (0.8437,0.8454);
start = (0.2604,0.1278);
};
identifier = ID0x6000133d7720;
};
closed = 1;
nodes = (
(279,263,l),
(279,467,l),
(688,467,l),
(688,466,l),
(688,263,l)
);
},
{
attr = {
gradient = {
colors = (
(
(64,255),
0
),
(
(191,255),
1
)
);
end = (0.2497,0.9606);
start = (0.5205,-0.1117);
};
identifier = ID0x6000133d7720;
};
closed = 1;
nodes = (
(227,0,l),
(25,243,l),
(25,244,l),
(791,244,l),
(791,0,l)
);
},
{
attr = {
gradient = {
colors = (
(
(191,255),
0
),
(
(64,255),
1
)
);
end = (0.9062,0.0359);
start = (0.411,0.9896);
};
identifier = ID0x6000133d7640;
};
closed = 1;
nodes = (
(240,840,l),
(186,898,l),
(186,900,l),
(342,900,l),
(399,840,l)
);
},
{
attr = {
gradient = {
colors = (
(
(191,255),
0
),
(
(64,255),
1
)
);
end = (0.0683,0.0486);
start = (0.9695,0.9699);
};
identifier = ID0x6000133d7640;
};
closed = 1;
nodes = (
(531,900,l),
(687,900,l),
(687,899,l),
(633,840,l),
(474,840,l)
);
},
{
attr = {
gradient = {
colors = (
(
(64,255),
0
),
(
(191,255),
1
)
);
end = (0.0709,0.837);
start = (0.799,0.0857);
};
identifier = ID0x6000133d7640;
};
closed = 1;
nodes = (
(314,760,l),
(240,840,l),
(633,840,l),
(559,760,l)
);
}
);
width = 832;
}
);
unicode = 276;
},
{
glyphname = Ecaron;
lastChange = "2022-04-06 11:27:52 +0000";
layers = (
{
attr = {
color = 1;
};
layerId = "33AE93C6-B8B3-427A-A53B-F24970E840CE";
shapes = (
{
attr = {
gradient = {
colors = (
(
(64,255),
0
),
(
(191,255),
1
)
);
end = (0.5074,0.9658);
start = (0.6091,0.0797);
};
identifier = ID0x6000133d7560;
};
closed = 1;
nodes = (
(76,700,l),
(77,700,l),
(77,24,l),
(53,24,l),
(53,700,l)
);
},
{
attr = {
gradient = {
colors = (
(
(64,255),
0
),
(
(191,255),
1
)
);
end = (0.8878,0.5878);
start = (0.0693,0.513);
};
identifier = ID0x6000133d7560;
};
closed = 1;
nodes = (
(77,676,l),
(77,700,l),
(220,700,l),
(220,699,l),
(197,676,l)
);
},
{
attr = {
gradient = {
colors = (
(
(64,255),
0
),
(
(191,255),
1
)
);
end = (0.8878,0.5878);
start = (0.0693,0.513);
};
identifier = ID0x6000133d7560;
};
closed = 1;
nodes = (
(77,353,l),
(77,376,l),
(77,377,l),
(196,377,l),
(196,353,l)
);
},
{
attr = {
gradient = {
colors = (
(
(191,255),
0
),
(
(64,255),
1
)
);
end = (0.8878,0.5878);
start = (0.0693,0.513);
};
identifier = ID0x6000133d7560;
};
closed = 1;
nodes = (
(77,0,l),
(53,23,l),
(53,24,l),
(220,24,l),
(220,0,l)
);
},
{
attr = {
gradient = {
colors = (
(
(64,255),
0
),
(
(194,255),
1
)
);
end = (0.077,1.0037);
start = (0.8521,0.1516);
};
identifier = ID0x6000133d7480;
};
closed = 1;
nodes = (
(105,840,l),
(148,762,l),
(126,750,l),
(125,750,l),
(81,840,l)
);
},
{
attr = {
gradient = {
colors = (
(
(191,255),
0
),
(
(64,255),
1
)
);
end = (0.9007,0.953);
start = (-0.0063,0.0106);
};
identifier = ID0x6000133d7480;
};
closed = 1;
nodes = (
(149,750,l),
(126,750,l),
(171,840,l),
(195,840,l)
);
}
);
width = 273;
},
{
attr = {
color = 1;
};
layerId = "E87239EE-82B8-404C-B23A-53843E270889";
shapes = (
{
attr = {
gradient = {
colors = (
(
(64,255),
0
),
(
(191,255),
1
)
);
end = (0.4877,0.9217);
start = (0.4155,-0.0037);
};
identifier = ID0x6000133d73a0;
};
closed = 1;
nodes = (
(278,730,l),
(279,730,l),
(279,244,l),
(25,244,l),
(25,730,l)
);
},
{
attr = {
gradient = {
colors = (
(
(64,255),
0
),
(
(191,255),
1
)
);
end = (0.713,0.9264);
start = (0.0306,0.307);
};
identifier = ID0x6000133d73a0;
};
closed = 1;
nodes = (
(279,486,l),
(279,730,l),
(842,730,l),
(842,729,l),
(640,486,l)
);
},
{
attr = {
gradient = {
colors = (
(
(64,255),
0
),
(
(191,255),
1
)
);
end = (0.8437,0.8454);
start = (0.2604,0.1278);
};
identifier = ID0x6000133d73a0;
};
closed = 1;
nodes = (
(279,263,l),
(279,467,l),
(688,467,l),
(688,466,l),
(688,263,l)
);
},
{
attr = {
gradient = {
colors = (
(
(64,255),
0
),
(
(191,255),
1
)
);
end = (0.2497,0.9606);
start = (0.5205,-0.1117);
};
identifier = ID0x6000133d73a0;
};
closed = 1;
nodes = (
(227,0,l),
(25,243,l),
(25,244,l),
(791,244,l),
(791,0,l)
);
},
{
attr = {
gradient = {
colors = (
(
(191,255),
0
),
(
(64,255),
1
)
);
end = (0.798,0.5172);
start = (0.0969,0.9365);
};
identifier = ID0x6000133d72c0;
};
closed = 1;
nodes = (
(371,900,l),
(505,793,l),
(413,760,l),
(372,760,l),
(214,900,l)
);
},
{
attr = {
gradient = {
colors = (
(
(64,255),
0
),
(
(191,255),
1
)
);
end = (0.0363,0.0333);
start = (0.9221,0.9501);
};
identifier = ID0x6000133d72c0;
};
closed = 1;
nodes = (
(526,760,l),
(372,760,l),
(526,900,l),
(680,900,l)
);
}
);
width = 832;
}
);
unicode = 282;
},
{
glyphname = Ecircumflex;
lastChange = "2022-04-06 11:27:52 +0000";
layers = (
{
attr = {
color = 1;
};
layerId = "33AE93C6-B8B3-427A-A53B-F24970E840CE";
shapes = (
{
attr = {
gradient = {
colors = (
(
(64,255),
0
),
(
(191,255),
1
)
);
end = (0.5074,0.9658);
start = (0.6091,0.0797);
};
identifier = ID0x6000133d71e0;
};
closed = 1;
nodes = (
(76,700,l),
(77,700,l),
(77,24,l),
(53,24,l),
(53,700,l)
);
},
{
attr = {
gradient = {
colors = (
(
(64,255),
0
),
(
(191,255),
1
)
);
end = (0.8878,0.5878);
start = (0.0693,0.513);
};
identifier = ID0x6000133d71e0;
};
closed = 1;
nodes = (
(77,676,l),
(77,700,l),
(220,700,l),
(220,699,l),
(197,676,l)
);
},
{
attr = {
gradient = {
colors = (
(
(64,255),
0
),
(
(191,255),
1
)
);
end = (0.8878,0.5878);
start = (0.0693,0.513);
};
identifier = ID0x6000133d71e0;
};
closed = 1;
nodes = (
(77,353,l),
(77,376,l),
(77,377,l),
(196,377,l),
(196,353,l)
);
},
{
attr = {
gradient = {
colors = (
(
(191,255),
0
),
(
(64,255),
1
)
);
end = (0.8878,0.5878);
start = (0.0693,0.513);
};
identifier = ID0x6000133d71e0;
};
closed = 1;
nodes = (
(77,0,l),
(53,23,l),
(53,24,l),
(220,24,l),
(220,0,l)
);
},
{
attr = {
gradient = {
colors = (
(
(191,255),
0
),
(
(64,255),
1
)
);
end = (0.077,1.0037);
start = (0.8521,0.1516);
};
identifier = ID0x6000133d7100;
};
closed = 1;
nodes = (
(168,760,l),
(124,850,l),
(147,850,l),
(148,850,l),
(192,761,l),
(192,760,l)
);
},
{
attr = {
gradient = {
colors = (
(
(64,255),
0
),
(
(191,255),
1
)
);
end = (0.9007,0.953);
start = (-0.0063,0.0106);
};
identifier = ID0x6000133d7100;
};
closed = 1;
nodes = (
(78,761,l),
(124,850,l),
(147,850,l),
(102,760,l),
(78,760,l)
);
}
);
width = 273;
},
{
attr = {
color = 1;
};
layerId = "E87239EE-82B8-404C-B23A-53843E270889";
shapes = (
{
attr = {
gradient = {
colors = (
(
(64,255),
0
),
(
(191,255),
1
)
);
end = (0.4877,0.9217);
start = (0.4155,-0.0037);
};
identifier = ID0x6000133d7020;
};
closed = 1;
nodes = (
(278,730,l),
(279,730,l),
(279,244,l),
(25,244,l),
(25,730,l)
);
},
{
attr = {
gradient = {
colors = (
(
(64,255),
0
),
(
(191,255),
1
)
);
end = (0.713,0.9264);
start = (0.0306,0.307);
};
identifier = ID0x6000133d7020;
};
closed = 1;
nodes = (
(279,486,l),
(279,730,l),
(842,730,l),
(842,729,l),
(640,486,l)
);
},
{
attr = {
gradient = {
colors = (
(
(64,255),
0
),
(
(191,255),
1
)
);
end = (0.8437,0.8454);
start = (0.2604,0.1278);
};
identifier = ID0x6000133d7020;
};
closed = 1;
nodes = (
(279,263,l),
(279,467,l),
(688,467,l),
(688,466,l),
(688,263,l)
);
},
{
attr = {
gradient = {
colors = (
(
(64,255),
0
),
(
(191,255),
1
)
);
end = (0.2497,0.9606);
start = (0.5205,-0.1117);
};
identifier = ID0x6000133d7020;
};
closed = 1;
nodes = (
(227,0,l),
(25,243,l),
(25,244,l),
(791,244,l),
(791,0,l)
);
},
{
attr = {
gradient = {
colors = (
(
(191,255),
0
),
(
(64,255),
1
)
);
end = (0.1166,0.52);
start = (0.7807,0.4498);
};
identifier = ID0x6000133d6f40;
};
closed = 1;
nodes = (
(529,760,l),
(395,867,l),
(487,900,l),
(528,900,l),
(686,761,l),
(686,760,l)
);
},
{
attr = {
gradient = {
colors = (
(
(64,255),
0
),
(
(191,255),
1
)
);
end = (0.6682,0.9872);
start = (0.2597,-0.011);
};
identifier = ID0x6000133d6f40;
};
closed = 1;
nodes = (
(220,761,l),
(374,900,l),
(528,900,l),
(374,760,l),
(220,760,l)
);
}
);
width = 832;
}
);
unicode = 202;
},
{
glyphname = Ecircumflexacute;
lastChange = "2022-04-06 11:27:52 +0000";
layers = (
{
attr = {
color = 1;
};
layerId = "33AE93C6-B8B3-427A-A53B-F24970E840CE";
shapes = (
{
attr = {
gradient = {
colors = (
(
(64,255),
0
),
(
(191,255),
1
)
);
end = (0.5074,0.9658);
start = (0.6091,0.0797);
};
identifier = ID0x6000133d6e60;
};
closed = 1;
nodes = (
(76,700,l),
(77,700,l),
(77,24,l),
(53,24,l),
(53,700,l)
);
},
{
attr = {
gradient = {
colors = (
(
(64,255),
0
),
(
(191,255),
1
)
);
end = (0.8878,0.5878);
start = (0.0693,0.513);
};
identifier = ID0x6000133d6e60;
};
closed = 1;
nodes = (
(77,676,l),
(77,700,l),
(220,700,l),
(220,699,l),
(197,676,l)
);
},
{
attr = {
gradient = {
colors = (
(
(64,255),
0
),
(
(191,255),
1
)
);
end = (0.8878,0.5878);
start = (0.0693,0.513);
};
identifier = ID0x6000133d6e60;
};
closed = 1;
nodes = (
(77,353,l),
(77,376,l),
(77,377,l),
(196,377,l),
(196,353,l)
);
},
{
attr = {
gradient = {
colors = (
(
(191,255),
0
),
(
(64,255),
1
)
);
end = (0.8878,0.5878);
start = (0.0693,0.513);
};
identifier = ID0x6000133d6e60;
};
closed = 1;
nodes = (
(77,0,l),
(53,23,l),
(53,24,l),
(220,24,l),
(220,0,l)
);
},
{
attr = {
gradient = {
colors = (
(
(191,255),
0
),
(
(64,255),
1
)
);
end = (0.7053,1.0789);
start = (0.3543,0.0329);
};
identifier = ID0x6000133d6d80;
};
closed = 1;
nodes = (
(214,900,l),
(242,900,l),
(242,899,l),
(210,810,l),
(189,810,l)
);
},
{
attr = {
gradient = {
colors = (
(
(191,255),
0
),
(
(64,255),
1
)
);
end = (0.077,1.0037);
start = (0.8521,0.1516);
};
identifier = ID0x6000133d6d80;
};
closed = 1;
nodes = (
(171,770,l),
(127,860,l),
(150,860,l),
(151,860,l),
(195,771,l),
(195,770,l)
);
},
{
attr = {
gradient = {
colors = (
(
(64,255),
0
),
(
(191,255),
1
)
);
end = (0.9007,0.953);
start = (-0.0063,0.0106);
};
identifier = ID0x6000133d6d80;
};
closed = 1;
nodes = (
(81,771,l),
(127,860,l),
(151,859,l),
(105,770,l),
(81,770,l)
);
}
);
width = 273;
},
{
attr = {
color = 1;
};
layerId = "E87239EE-82B8-404C-B23A-53843E270889";
shapes = (
{
attr = {
gradient = {
colors = (
(
(64,255),
0
),
(
(191,255),
1
)
);
end = (0.4877,0.9217);
start = (0.4155,-0.0037);
};
identifier = ID0x6000133d6ca0;
};
closed = 1;
nodes = (
(278,730,l),
(279,730,l),
(279,244,l),
(25,244,l),
(25,730,l)
);
},
{
attr = {
gradient = {
colors = (
(
(64,255),
0
),
(
(191,255),
1
)
);
end = (0.713,0.9264);
start = (0.0306,0.307);
};
identifier = ID0x6000133d6ca0;
};
closed = 1;
nodes = (
(279,486,l),
(279,730,l),
(842,730,l),
(842,729,l),
(640,486,l)
);
},
{
attr = {
gradient = {
colors = (
(
(64,255),
0
),
(
(191,255),
1
)
);
end = (0.8437,0.8454);
start = (0.2604,0.1278);
};
identifier = ID0x6000133d6ca0;
};
closed = 1;
nodes = (
(279,263,l),
(279,467,l),
(688,467,l),
(688,466,l),
(688,263,l)
);
},
{
attr = {
gradient = {
colors = (
(
(64,255),
0
),
(
(191,255),
1
)
);
end = (0.2497,0.9606);
start = (0.5205,-0.1117);
};
identifier = ID0x6000133d6ca0;
};
closed = 1;
nodes = (
(227,0,l),
(25,243,l),
(25,244,l),
(791,244,l),
(791,0,l)
);
},
{
attr = {
gradient = {
colors = (
(
(191,255),
0
),
(
(64,255),
1
)
);
end = (0.9273,0.9922);
start = (0.3543,0.0329);
};
identifier = ID0x6000133d6bc0;
};
closed = 1;
nodes = (
(635,900,l),
(831,900,l),
(831,899,l),
(748,808,l),
(602,808,l)
);
},
{
attr = {
gradient = {
colors = (
(
(191,255),
0
),
(
(64,255),
1
)
);
end = (0.2769,0.5572);
start = (0.7807,0.4498);
};
identifier = ID0x6000133d6bc0;
};
closed = 1;
nodes = (
(479,755,l),
(375,852,l),
(457,883,l),
(508,883,l),
(636,756,l),
(636,755,l)
);
},
{
attr = {
gradient = {
colors = (
(
(64,255),
0
),
(
(191,255),
1
)
);
end = (0.6471,0.9661);
start = (0.2597,-0.011);
};
identifier = ID0x6000133d6bc0;
};
closed = 1;
nodes = (
(210,756,l),
(344,883,l),
(508,883,l),
(364,755,l),
(210,755,l)
);
}
);
width = 832;
}
);
unicode = 7870;
},
{
glyphname = Ecircumflexdotbelow;
lastChange = "2022-04-06 11:27:52 +0000";
layers = (
{
attr = {
color = 1;
};
layerId = "33AE93C6-B8B3-427A-A53B-F24970E840CE";
shapes = (
{
attr = {
gradient = {
colors = (
(
(64,255),
0
),
(
(191,255),
1
)
);
end = (0.5074,0.9658);
start = (0.6091,0.0797);
};
identifier = ID0x6000133d6ae0;
};
closed = 1;
nodes = (
(76,700,l),
(77,700,l),
(77,24,l),
(53,24,l),
(53,700,l)
);
},
{
attr = {
gradient = {
colors = (
(
(64,255),
0
),
(
(191,255),
1
)
);
end = (0.8878,0.5878);
start = (0.0693,0.513);
};
identifier = ID0x6000133d6ae0;
};
closed = 1;
nodes = (
(77,676,l),
(77,700,l),
(220,700,l),
(220,699,l),
(197,676,l)
);
},
{
attr = {
gradient = {
colors = (
(
(64,255),
0
),
(
(191,255),
1
)
);
end = (0.8878,0.5878);
start = (0.0693,0.513);
};
identifier = ID0x6000133d6ae0;
};
closed = 1;
nodes = (
(77,353,l),
(77,376,l),
(77,377,l),
(196,377,l),
(196,353,l)
);
},
{
attr = {
gradient = {
colors = (
(
(191,255),
0
),
(
(64,255),
1
)
);
end = (0.8878,0.5878);
start = (0.0693,0.513);
};
identifier = ID0x6000133d6ae0;
};
closed = 1;
nodes = (
(77,0,l),
(53,23,l),
(53,24,l),
(220,24,l),
(220,0,l)
);
},
{
attr = {
gradient = {
colors = (
(
(191,255),
0
),
(
(64,255),
1
)
);
end = (1.0106,0.0609);
start = (0.045,0.9981);
};
identifier = ID0x6000133d6a00;
};
closed = 1;
nodes = (
(121,-119,l),
(121,-85,l),
(151,-85,l),
(151,-119,l)
);
},
{
attr = {
gradient = {
colors = (
(
(191,255),
0
),
(
(64,255),
1
)
);
end = (0.077,1.0037);
start = (0.8521,0.1516);
};
identifier = ID0x6000133d6920;
};
closed = 1;
nodes = (
(168,760,l),
(124,850,l),
(147,850,l),
(148,850,l),
(192,761,l),
(192,760,l)
);
},
{
attr = {
gradient = {
colors = (
(
(64,255),
0
),
(
(191,255),
1
)
);
end = (0.9007,0.953);
start = (-0.0063,0.0106);
};
identifier = ID0x6000133d6920;
};
closed = 1;
nodes = (
(78,761,l),
(124,850,l),
(147,850,l),
(102,760,l),
(78,760,l)
);
}
);
width = 273;
},
{
attr = {
color = 1;
};
layerId = "E87239EE-82B8-404C-B23A-53843E270889";
shapes = (
{
attr = {
gradient = {
colors = (
(
(64,255),
0
),
(
(191,255),
1
)
);
end = (0.4877,0.9217);
start = (0.4155,-0.0037);
};
identifier = ID0x6000133d6840;
};
closed = 1;
nodes = (
(278,730,l),
(279,730,l),
(279,244,l),
(25,244,l),
(25,730,l)
);
},
{
attr = {
gradient = {
colors = (
(
(64,255),
0
),
(
(191,255),
1
)
);
end = (0.713,0.9264);
start = (0.0306,0.307);
};
identifier = ID0x6000133d6840;
};
closed = 1;
nodes = (
(279,486,l),
(279,730,l),
(842,730,l),
(842,729,l),
(640,486,l)
);
},
{
attr = {
gradient = {
colors = (
(
(64,255),
0
),
(
(191,255),
1
)
);
end = (0.8437,0.8454);
start = (0.2604,0.1278);
};
identifier = ID0x6000133d6840;
};
closed = 1;
nodes = (
(279,263,l),
(279,467,l),
(688,467,l),
(688,466,l),
(688,263,l)
);
},
{
attr = {
gradient = {
colors = (
(
(64,255),
0
),
(
(191,255),
1
)
);
end = (0.2497,0.9606);
start = (0.5205,-0.1117);
};
identifier = ID0x6000133d6840;
};
closed = 1;
nodes = (
(227,0,l),
(25,243,l),
(25,244,l),
(791,244,l),
(791,0,l)
);
},
{
attr = {
gradient = {
colors = (
(
(191,255),
0
),
(
(64,255),
1
)
);
end = (0.8798,-0.0104);
start = (0.1135,0.9935);
};
identifier = ID0x6000133d6760;
};
closed = 1;
nodes = (
(344,-172,l),
(344,-40,l),
(520,-40,l),
(520,-172,l)
);
},
{
attr = {
gradient = {
colors = (
(
(191,255),
0
),
(
(64,255),
1
)
);
end = (0.1166,0.52);
start = (0.7807,0.4498);
};
identifier = ID0x6000133d6680;
};
closed = 1;
nodes = (
(529,760,l),
(395,867,l),
(487,900,l),
(528,900,l),
(686,761,l),
(686,760,l)
);
},
{
attr = {
gradient = {
colors = (
(
(64,255),
0
),
(
(191,255),
1
)
);
end = (0.6682,0.9872);
start = (0.2597,-0.011);
};
identifier = ID0x6000133d6680;
};
closed = 1;
nodes = (
(220,761,l),
(374,900,l),
(528,900,l),
(374,760,l),
(220,760,l)
);
}
);
width = 832;
}
);
unicode = 7878;
},
{
glyphname = Ecircumflexgrave;
lastChange = "2022-04-06 11:27:52 +0000";
layers = (
{
attr = {
color = 1;
};
layerId = "33AE93C6-B8B3-427A-A53B-F24970E840CE";
shapes = (
{
attr = {
gradient = {
colors = (
(
(64,255),
0
),
(
(191,255),
1
)
);
end = (0.5074,0.9658);
start = (0.6091,0.0797);
};
identifier = ID0x6000133d65a0;
};
closed = 1;
nodes = (
(76,700,l),
(77,700,l),
(77,24,l),
(53,24,l),
(53,700,l)
);
},
{
attr = {
gradient = {
colors = (
(
(64,255),
0
),
(
(191,255),
1
)
);
end = (0.8878,0.5878);
start = (0.0693,0.513);
};
identifier = ID0x6000133d65a0;
};
closed = 1;
nodes = (
(77,676,l),
(77,700,l),
(220,700,l),
(220,699,l),
(197,676,l)
);
},
{
attr = {
gradient = {
colors = (
(
(64,255),
0
),
(
(191,255),
1
)
);
end = (0.8878,0.5878);
start = (0.0693,0.513);
};
identifier = ID0x6000133d65a0;
};
closed = 1;
nodes = (
(77,353,l),
(77,376,l),
(77,377,l),
(196,377,l),
(196,353,l)
);
},
{
attr = {
gradient = {
colors = (
(
(191,255),
0
),
(
(64,255),
1
)
);
end = (0.8878,0.5878);
start = (0.0693,0.513);
};
identifier = ID0x6000133d65a0;
};
closed = 1;
nodes = (
(77,0,l),
(53,23,l),
(53,24,l),
(220,24,l),
(220,0,l)
);
},
{
attr = {
gradient = {
colors = (
(
(191,255),
0
),
(
(64,255),
1
)
);
end = (0.7053,1.0789);
start = (0.3543,0.0329);
};
identifier = ID0x6000133d64c0;
};
closed = 1;
nodes = (
(202,810,l),
(170,899,l),
(170,900,l),
(198,900,l),
(223,810,l)
);
},
{
attr = {
gradient = {
colors = (
(
(191,255),
0
),
(
(64,255),
1
)
);
end = (0.077,1.0037);
start = (0.8521,0.1516);
};
identifier = ID0x6000133d64c0;
};
closed = 1;
nodes = (
(172,744,l),
(128,834,l),
(151,834,l),
(152,834,l),
(196,745,l),
(196,744,l)
);
},
{
attr = {
gradient = {
colors = (
(
(64,255),
0
),
(
(191,255),
1
)
);
end = (0.9007,0.953);
start = (-0.0063,0.0106);
};
identifier = ID0x6000133d64c0;
};
closed = 1;
nodes = (
(82,745,l),
(128,834,l),
(151,834,l),
(106,744,l),
(82,744,l)
);
}
);
width = 273;
},
{
attr = {
color = 1;
};
layerId = "E87239EE-82B8-404C-B23A-53843E270889";
shapes = (
{
attr = {
gradient = {
colors = (
(
(64,255),
0
),
(
(191,255),
1
)
);
end = (0.4877,0.9217);
start = (0.4155,-0.0037);
};
identifier = ID0x6000133d63e0;
};
closed = 1;
nodes = (
(278,730,l),
(279,730,l),
(279,244,l),
(25,244,l),
(25,730,l)
);
},
{
attr = {
gradient = {
colors = (
(
(64,255),
0
),
(
(191,255),
1
)
);
end = (0.713,0.9264);
start = (0.0306,0.307);
};
identifier = ID0x6000133d63e0;
};
closed = 1;
nodes = (
(279,486,l),
(279,730,l),
(842,730,l),
(842,729,l),
(640,486,l)
);
},
{
attr = {
gradient = {
colors = (
(
(64,255),
0
),
(
(191,255),
1
)
);
end = (0.8437,0.8454);
start = (0.2604,0.1278);
};
identifier = ID0x6000133d63e0;
};
closed = 1;
nodes = (
(279,263,l),
(279,467,l),
(688,467,l),
(688,466,l),
(688,263,l)
);
},
{
attr = {
gradient = {
colors = (
(
(64,255),
0
),
(
(191,255),
1
)
);
end = (0.2497,0.9606);
start = (0.5205,-0.1117);
};
identifier = ID0x6000133d63e0;
};
closed = 1;
nodes = (
(227,0,l),
(25,243,l),
(25,244,l),
(791,244,l),
(791,0,l)
);
},
{
attr = {
gradient = {
colors = (
(
(191,255),
0
),
(
(64,255),
1
)
);
end = (0.9356,0.1167);
start = (0.1313,0.8899);
};
identifier = ID0x6000133d6300;
};
closed = 1;
nodes = (
(655,795,l),
(572,899,l),
(572,900,l),
(748,900,l),
(771,795,l)
);
},
{
attr = {
gradient = {
colors = (
(
(191,255),
0
),
(
(64,255),
1
)
);
end = (0.2769,0.5572);
start = (0.7807,0.4498);
};
identifier = ID0x6000133d6300;
};
closed = 1;
nodes = (
(479,755,l),
(375,852,l),
(457,883,l),
(508,883,l),
(636,756,l),
(636,755,l)
);
},
{
attr = {
gradient = {
colors = (
(
(64,255),
0
),
(
(191,255),
1
)
);
end = (0.6471,0.9661);
start = (0.2597,-0.011);
};
identifier = ID0x6000133d6300;
};
closed = 1;
nodes = (
(210,756,l),
(344,883,l),
(508,883,l),
(364,755,l),
(210,755,l)
);
}
);
width = 832;
}
);
unicode = 7872;
},
{
glyphname = Ecircumflexhookabove;
lastChange = "2022-04-06 11:27:52 +0000";
layers = (
{
attr = {
color = 1;
};
layerId = "33AE93C6-B8B3-427A-A53B-F24970E840CE";
shapes = (
{
attr = {
gradient = {
colors = (
(
(64,255),
0
),
(
(191,255),
1
)
);
end = (0.5074,0.9658);
start = (0.6091,0.0797);
};
identifier = ID0x6000133d6220;
};
closed = 1;
nodes = (
(76,700,l),
(77,700,l),
(77,24,l),
(53,24,l),
(53,700,l)
);
},
{
attr = {
gradient = {
colors = (
(
(64,255),
0
),
(
(191,255),
1
)
);
end = (0.8878,0.5878);
start = (0.0693,0.513);
};
identifier = ID0x6000133d6220;
};
closed = 1;
nodes = (
(77,676,l),
(77,700,l),
(220,700,l),
(220,699,l),
(197,676,l)
);
},
{
attr = {
gradient = {
colors = (
(
(64,255),
0
),
(
(191,255),
1
)
);
end = (0.8878,0.5878);
start = (0.0693,0.513);
};
identifier = ID0x6000133d6220;
};
closed = 1;
nodes = (
(77,353,l),
(77,376,l),
(77,377,l),
(196,377,l),
(196,353,l)
);
},
{
attr = {
gradient = {
colors = (
(
(191,255),
0
),
(
(64,255),
1
)
);
end = (0.8878,0.5878);
start = (0.0693,0.513);
};
identifier = ID0x6000133d6220;
};
closed = 1;
nodes = (
(77,0,l),
(53,23,l),
(53,24,l),
(220,24,l),
(220,0,l)
);
},
{
attr = {
gradient = {
colors = (
(
(191,255),
0
),
(
(64,255),
1
)
);
end = (0.077,1.0037);
start = (0.8521,0.1516);
};
identifier = ID0x6000133d6140;
};
closed = 1;
nodes = (
(173,760,l),
(129,850,l),
(152,850,l),
(153,850,l),
(197,761,l),
(197,760,l)
);
},
{
attr = {
gradient = {
colors = (
(
(64,255),
0
),
(
(191,255),
1
)
);
end = (0.9007,0.953);
start = (-0.0063,0.0106);
};
identifier = ID0x6000133d6140;
};
closed = 1;
nodes = (
(83,761,l),
(129,850,l),
(152,850,l),
(107,760,l),
(83,760,l)
);
},
{
attr = {
gradient = {
colors = (
(
(64,255),
0
),
(
(191,255),
1
)
);
end = (0.0416,0.8836);
start = (0.6428,0.1867);
};
identifier = ID0x6000133d6140;
};
closed = 1;
nodes = (
(173,876,l),
(173,900,l),
(232,900,l),
(250,877,l),
(250,876,l)
);
},
{
attr = {
gradient = {
colors = (
(
(191,255),
0
),
(
(64,255),
1
)
);
end = (0.2224,-0.0167);
start = (0.6536,0.9461);
};
identifier = ID0x6000133d6140;
};
closed = 1;
nodes = (
(194,805,l),
(194,806,l),
(232,900,l),
(250,877,l),
(250,876,l),
(217,805,l)
);
}
);
width = 273;
},
{
attr = {
color = 1;
};
layerId = "E87239EE-82B8-404C-B23A-53843E270889";
shapes = (
{
attr = {
gradient = {
colors = (
(
(64,255),
0
),
(
(191,255),
1
)
);
end = (0.4877,0.9217);
start = (0.4155,-0.0037);
};
identifier = ID0x6000133d6060;
};
closed = 1;
nodes = (
(278,730,l),
(279,730,l),
(279,244,l),
(25,244,l),
(25,730,l)
);
},
{
attr = {
gradient = {
colors = (
(
(64,255),
0
),
(
(191,255),
1
)
);
end = (0.713,0.9264);
start = (0.0306,0.307);
};
identifier = ID0x6000133d6060;
};
closed = 1;
nodes = (
(279,486,l),
(279,730,l),
(842,730,l),
(842,729,l),
(640,486,l)
);
},
{
attr = {
gradient = {
colors = (
(
(64,255),
0
),
(
(191,255),
1
)
);
end = (0.8437,0.8454);
start = (0.2604,0.1278);
};
identifier = ID0x6000133d6060;
};
closed = 1;
nodes = (
(279,263,l),
(279,467,l),
(688,467,l),
(688,466,l),
(688,263,l)
);
},
{
attr = {
gradient = {
colors = (
(
(64,255),
0
),
(
(191,255),
1
)
);
end = (0.2497,0.9606);
start = (0.5205,-0.1117);
};
identifier = ID0x6000133d6060;
};
closed = 1;
nodes = (
(227,0,l),
(25,243,l),
(25,244,l),
(791,244,l),
(791,0,l)
);
},
{
attr = {
gradient = {
colors = (
(
(191,255),
0
),
(
(64,255),
1
)
);
end = (0.1946,0.6066);
start = (0.7293,-0.016);
};
identifier = ID0x6000133d5f80;
};
closed = 1;
nodes = (
(518,755,l),
(384,838,l),
(444,854,l),
(513,873,l),
(652,766,l),
(652,755,l)
);
},
{
attr = {
gradient = {
colors = (
(
(64,255),
0
),
(
(191,255),
1
)
);
end = (0.68,0.9557);
start = (0.022,0.1164);
};
identifier = ID0x6000133d5f80;
};
closed = 1;
nodes = (
(220,766,l),
(354,873,l),
(513,873,l),
(354,755,l),
(220,755,l)
);
},
{
attr = {
gradient = {
colors = (
(
(64,255),
0
),
(
(191,255),
1
)
);
end = (0.0611,0.8551);
start = (0.4734,0.0581);
};
identifier = ID0x6000133d5f80;
};
closed = 1;
nodes = (
(466,898,l),
(466,980,l),
(687,980,l),
(744,899,l),
(744,898,l)
);
},
{
attr = {
gradient = {
colors = (
(
(191,255),
0
),
(
(64,255),
1
)
);
end = (0.372,0.0258);
start = (0.6171,0.8745);
};
identifier = ID0x6000133d5f80;
};
closed = 1;
nodes = (
(580,824,l),
(579,824,l),
(687,980,l),
(744,899,l),
(744,898,l),
(667,824,l)
);
}
);
width = 832;
}
);
unicode = 7874;
},
{
glyphname = Ecircumflextilde;
lastChange = "2022-04-06 11:27:52 +0000";
layers = (
{
attr = {
color = 1;
};
layerId = "33AE93C6-B8B3-427A-A53B-F24970E840CE";
shapes = (
{
attr = {
gradient = {
colors = (
(
(64,255),
0
),
(
(191,255),
1
)
);
end = (0.5074,0.9658);
start = (0.6091,0.0797);
};
identifier = ID0x6000133d5ea0;
};
closed = 1;
nodes = (
(76,700,l),
(77,700,l),
(77,24,l),
(53,24,l),
(53,700,l)
);
},
{
attr = {
gradient = {
colors = (
(
(64,255),
0
),
(
(191,255),
1
)
);
end = (0.8878,0.5878);
start = (0.0693,0.513);
};
identifier = ID0x6000133d5ea0;
};
closed = 1;
nodes = (
(77,676,l),
(77,700,l),
(220,700,l),
(220,699,l),
(197,676,l)
);
},
{
attr = {
gradient = {
colors = (
(
(64,255),
0
),
(
(191,255),
1
)
);
end = (0.8878,0.5878);
start = (0.0693,0.513);
};
identifier = ID0x6000133d5ea0;
};
closed = 1;
nodes = (
(77,353,l),
(77,376,l),
(77,377,l),
(196,377,l),
(196,353,l)
);
},
{
attr = {
gradient = {
colors = (
(
(191,255),
0
),
(
(64,255),
1
)
);
end = (0.8878,0.5878);
start = (0.0693,0.513);
};
identifier = ID0x6000133d5ea0;
};
closed = 1;
nodes = (
(77,0,l),
(53,23,l),
(53,24,l),
(220,24,l),
(220,0,l)
);
},
{
attr = {
gradient = {
colors = (
(
(64,255),
0
),
(
(191,255),
1
)
);
end = (0.2296,0.0026);
start = (0.9852,0.6189);
};
identifier = ID0x6000133d5dc0;
};
closed = 1;
nodes = (
(72,890,l),
(96,891,l),
(96,839,l),
(72,839,l)
);
},
{
attr = {
gradient = {
colors = (
(
(64,255),
0
),
(
(191,255),
1
)
);
end = (0.8068,0.953);
start = (0.1553,0.418);
};
identifier = ID0x6000133d5dc0;
};
closed = 1;
nodes = (
(192,848,l),
(168,848,l),
(168,900,l),
(192,900,l)
);
},
{
attr = {
gradient = {
colors = (
(
(64,255),
0
),
(
(191,255),
1
)
);
end = (0.4877,0.9217);
start = (0.4155,-0.0037);
};
identifier = ID0x6000133d5dc0;
};
closed = 1;
nodes = (
(72,891,l),
(94,900,l),
(95,900,l),
(191,848,l),
(191,847,l),
(169,838,l),
(168,838,l),
(72,890,l)
);
},
{
attr = {
gradient = {
colors = (
(
(191,255),
0
),
(
(64,255),
1
)
);
end = (0.077,1.0037);
start = (0.8521,0.1516);
};
identifier = ID0x6000133d5dc0;
};
closed = 1;
nodes = (
(174,740,l),
(120,815,l),
(150,815,l),
(204,741,l),
(204,740,l)
);
},
{
attr = {
gradient = {
colors = (
(
(64,255),
0
),
(
(191,255),
1
)
);
end = (0.9007,0.953);
start = (-0.0063,0.0106);
};
identifier = ID0x6000133d5dc0;
};
closed = 1;
nodes = (
(64,741,l),
(120,815,l),
(150,814,l),
(94,740,l),
(64,740,l)
);
}
);
width = 273;
},
{
attr = {
color = 1;
};
layerId = "E87239EE-82B8-404C-B23A-53843E270889";
shapes = (
{
attr = {
gradient = {
colors = (
(
(64,255),
0
),
(
(191,255),
1
)
);
end = (0.4877,0.9217);
start = (0.4155,-0.0037);
};
identifier = ID0x6000133d5ce0;
};
closed = 1;
nodes = (
(278,730,l),
(279,730,l),
(279,244,l),
(25,244,l),
(25,730,l)
);
},
{
attr = {
gradient = {
colors = (
(
(64,255),
0
),
(
(191,255),
1
)
);
end = (0.713,0.9264);
start = (0.0306,0.307);
};
identifier = ID0x6000133d5ce0;
};
closed = 1;
nodes = (
(279,486,l),
(279,730,l),
(842,730,l),
(842,729,l),
(640,486,l)
);
},
{
attr = {
gradient = {
colors = (
(
(64,255),
0
),
(
(191,255),
1
)
);
end = (0.8437,0.8454);
start = (0.2604,0.1278);
};
identifier = ID0x6000133d5ce0;
};
closed = 1;
nodes = (
(279,263,l),
(279,467,l),
(688,467,l),
(688,466,l),
(688,263,l)
);
},
{
attr = {
gradient = {
colors = (
(
(64,255),
0
),
(
(191,255),
1
)
);
end = (0.2497,0.9606);
start = (0.5205,-0.1117);
};
identifier = ID0x6000133d5ce0;
};
closed = 1;
nodes = (
(227,0,l),
(25,243,l),
(25,244,l),
(791,244,l),
(791,0,l)
);
},
{
attr = {
gradient = {
colors = (
(
(64,255),
0
),
(
(191,255),
1
)
);
end = (0.2296,0.0026);
start = (0.8243,0.8062);
};
identifier = ID0x6000133d5c00;
};
closed = 1;
nodes = (
(256,954,l),
(336,945,l),
(336,868,l),
(256,868,l)
);
},
{
attr = {
gradient = {
colors = (
(
(64,255),
0
),
(
(191,255),
1
)
);
end = (0.6972,1.0012);
start = (0.1318,0.5871);
};
identifier = ID0x6000133d5c00;
};
closed = 1;
nodes = (
(625,896,l),
(545,897,l),
(545,980,l),
(625,980,l)
);
},
{
attr = {
gradient = {
colors = (
(
(191,255),
0
),
(
(64,255),
0.52095
),
(
(191,255),
1
)
);
end = (0.2013,0.9834);
start = (0.8337,0.0203);
};
identifier = ID0x6000133d5c00;
};
closed = 1;
nodes = (
(336,984,l),
(337,984,l),
(625,917,l),
(625,896,l),
(563,871,l),
(562,871,l),
(256,944,l),
(256,955,l)
);
},
{
attr = {
gradient = {
colors = (
(
(191,255),
0
),
(
(64,255),
1
)
);
end = (0.1946,0.6066);
start = (0.7293,-0.016);
};
identifier = ID0x6000133d5c00;
};
closed = 1;
nodes = (
(518,755,l),
(384,818,l),
(508,853,l),
(652,766,l),
(652,755,l)
);
},
{
attr = {
gradient = {
colors = (
(
(64,255),
0
),
(
(191,255),
1
)
);
end = (0.68,0.9557);
start = (0.022,0.1164);
};
identifier = ID0x6000133d5c00;
};
closed = 1;
nodes = (
(220,766,l),
(364,853,l),
(508,853,l),
(354,755,l),
(220,755,l)
);
}
);
width = 832;
}
);
unicode = 7876;
},
{
glyphname = Edblgrave;
lastChange = "2022-04-06 11:27:52 +0000";
layers = (
{
attr = {
color = 1;
};
layerId = "33AE93C6-B8B3-427A-A53B-F24970E840CE";
shapes = (
{
attr = {
gradient = {
colors = (
(
(64,255),
0
),
(
(191,255),
1
)
);
end = (0.5074,0.9658);
start = (0.6091,0.0797);
};
identifier = ID0x6000133d5b20;
};
closed = 1;
nodes = (
(76,700,l),
(77,700,l),
(77,24,l),
(53,24,l),
(53,700,l)
);
},
{
attr = {
gradient = {
colors = (
(
(64,255),
0
),
(
(191,255),
1
)
);
end = (0.8878,0.5878);
start = (0.0693,0.513);
};
identifier = ID0x6000133d5b20;
};
closed = 1;
nodes = (
(77,676,l),
(77,700,l),
(220,700,l),
(220,699,l),
(197,676,l)
);
},
{
attr = {
gradient = {
colors = (
(
(64,255),
0
),
(
(191,255),
1
)
);
end = (0.8878,0.5878);
start = (0.0693,0.513);
};
identifier = ID0x6000133d5b20;
};
closed = 1;
nodes = (
(77,353,l),
(77,376,l),
(77,377,l),
(196,377,l),
(196,353,l)
);
},
{
attr = {
gradient = {
colors = (
(
(191,255),
0
),
(
(64,255),
1
)
);
end = (0.8878,0.5878);
start = (0.0693,0.513);
};
identifier = ID0x6000133d5b20;
};
closed = 1;
nodes = (
(77,0,l),
(53,23,l),
(53,24,l),
(220,24,l),
(220,0,l)
);
},
{
attr = {
gradient = {
colors = (
(
(191,255),
0
),
(
(64,255),
1
)
);
end = (0.7053,1.0789);
start = (0.3543,0.0329);
};
identifier = ID0x6000133d5a40;
};
closed = 1;
nodes = (
(155,770,l),
(123,859,l),
(123,860,l),
(154,860,l),
(179,770,l)
);
},
{
attr = {
gradient = {
colors = (
(
(191,255),
0
),
(
(64,255),
1
)
);
end = (0.7053,1.0789);
start = (0.3543,0.0329);
};
identifier = ID0x6000133d5a40;
};
closed = 1;
nodes = (
(98,770,l),
(66,859,l),
(66,860,l),
(97,860,l),
(122,770,l)
);
}
);
width = 273;
},
{
attr = {
color = 1;
};
layerId = "E87239EE-82B8-404C-B23A-53843E270889";
shapes = (
{
attr = {
gradient = {
colors = (
(
(64,255),
0
),
(
(191,255),
1
)
);
end = (0.4877,0.9217);
start = (0.4155,-0.0037);
};
identifier = ID0x6000133d5960;
};
closed = 1;
nodes = (
(278,730,l),
(279,730,l),
(279,244,l),
(25,244,l),
(25,730,l)
);
},
{
attr = {
gradient = {
colors = (
(
(64,255),
0
),
(
(191,255),
1
)
);
end = (0.713,0.9264);
start = (0.0306,0.307);
};
identifier = ID0x6000133d5960;
};
closed = 1;
nodes = (
(279,486,l),
(279,730,l),
(842,730,l),
(842,729,l),
(640,486,l)
);
},
{
attr = {
gradient = {
colors = (
(
(64,255),
0
),
(
(191,255),
1
)
);
end = (0.8437,0.8454);
start = (0.2604,0.1278);
};
identifier = ID0x6000133d5960;
};
closed = 1;
nodes = (
(279,263,l),
(279,467,l),
(688,467,l),
(688,466,l),
(688,263,l)
);
},
{
attr = {
gradient = {
colors = (
(
(64,255),
0
),
(
(191,255),
1
)
);
end = (0.2497,0.9606);
start = (0.5205,-0.1117);
};
identifier = ID0x6000133d5960;
};
closed = 1;
nodes = (
(227,0,l),
(25,243,l),
(25,244,l),
(791,244,l),
(791,0,l)
);
},
{
attr = {
gradient = {
colors = (
(
(191,255),
0
),
(
(64,255),
1
)
);
end = (0.9437,0.9462);
start = (0.4588,0.0634);
};
identifier = ID0x6000133d5880;
};
closed = 1;
nodes = (
(508,760,l),
(393,899,l),
(393,900,l),
(599,900,l),
(634,760,l)
);
},
{
attr = {
gradient = {
colors = (
(
(191,255),
0
),
(
(64,255),
1
)
);
end = (0.9441,0.9387);
start = (0.3543,0.0329);
};
identifier = ID0x6000133d5880;
};
closed = 1;
nodes = (
(278,760,l),
(163,899,l),
(163,900,l),
(369,900,l),
(404,760,l)
);
}
);
width = 832;
}
);
unicode = 516;
},
{
glyphname = Edieresis;
lastChange = "2022-04-06 11:27:52 +0000";
layers = (
{
attr = {
color = 1;
};
layerId = "33AE93C6-B8B3-427A-A53B-F24970E840CE";
shapes = (
{
attr = {
gradient = {
colors = (
(
(64,255),
0
),
(
(191,255),
1
)
);
end = (0.5074,0.9658);
start = (0.6091,0.0797);
};
identifier = ID0x6000133d57a0;
};
closed = 1;
nodes = (
(76,700,l),
(77,700,l),
(77,24,l),
(53,24,l),
(53,700,l)
);
},
{
attr = {
gradient = {
colors = (
(
(64,255),
0
),
(
(191,255),
1
)
);
end = (0.8878,0.5878);
start = (0.0693,0.513);
};
identifier = ID0x6000133d57a0;
};
closed = 1;
nodes = (
(77,676,l),
(77,700,l),
(220,700,l),
(220,699,l),
(197,676,l)
);
},
{
attr = {
gradient = {
colors = (
(
(64,255),
0
),
(
(191,255),
1
)
);
end = (0.8878,0.5878);
start = (0.0693,0.513);
};
identifier = ID0x6000133d57a0;
};
closed = 1;
nodes = (
(77,353,l),
(77,376,l),
(77,377,l),
(196,377,l),
(196,353,l)
);
},
{
attr = {
gradient = {
colors = (
(
(191,255),
0
),
(
(64,255),
1
)
);
end = (0.8878,0.5878);
start = (0.0693,0.513);
};
identifier = ID0x6000133d57a0;
};
closed = 1;
nodes = (
(77,0,l),
(53,23,l),
(53,24,l),
(220,24,l),
(220,0,l)
);
},
{
attr = {
gradient = {
colors = (
(
(191,255),
0
),
(
(64,255),
1
)
);
end = (0.425,-0.0572);
start = (0.6213,1.0235);
};
identifier = ID0x6000133d56c0;
};
closed = 1;
nodes = (
(90,811,l),
(90,845,l),
(121,845,l),
(121,811,l)
);
},
{
attr = {
gradient = {
colors = (
(
(191,255),
0
),
(
(64,255),
1
)
);
end = (0.3707,-0.0282);
start = (0.6727,0.9761);
};
identifier = ID0x6000133d56c0;
};
closed = 1;
nodes = (
(155,811,l),
(155,845,l),
(186,845,l),
(186,811,l)
);
}
);
width = 273;
},
{
attr = {
color = 1;
};
layerId = "E87239EE-82B8-404C-B23A-53843E270889";
shapes = (
{
attr = {
gradient = {
colors = (
(
(64,255),
0
),
(
(191,255),
1
)
);
end = (0.4877,0.9217);
start = (0.4155,-0.0037);
};
identifier = ID0x6000133d55e0;
};
closed = 1;
nodes = (
(278,730,l),
(279,730,l),
(279,244,l),
(25,244,l),
(25,730,l)
);
},
{
attr = {
gradient = {
colors = (
(
(64,255),
0
),
(
(191,255),
1
)
);
end = (0.713,0.9264);
start = (0.0306,0.307);
};
identifier = ID0x6000133d55e0;
};
closed = 1;
nodes = (
(279,486,l),
(279,730,l),
(842,730,l),
(842,729,l),
(640,486,l)
);
},
{
attr = {
gradient = {
colors = (
(
(64,255),
0
),
(
(191,255),
1
)
);
end = (0.8437,0.8454);
start = (0.2604,0.1278);
};
identifier = ID0x6000133d55e0;
};
closed = 1;
nodes = (
(279,263,l),
(279,467,l),
(688,467,l),
(688,466,l),
(688,263,l)
);
},
{
attr = {
gradient = {
colors = (
(
(64,255),
0
),
(
(191,255),
1
)
);
end = (0.2497,0.9606);
start = (0.5205,-0.1117);
};
identifier = ID0x6000133d55e0;
};
closed = 1;
nodes = (
(227,0,l),
(25,243,l),
(25,244,l),
(791,244,l),
(791,0,l)
);
},
{
attr = {
gradient = {
colors = (
(
(191,255),
0
),
(
(64,255),
1
)
);
end = (0.195,-0.0223);
start = (0.6548,1.0053);
};
identifier = ID0x6000133d5500;
};
closed = 1;
nodes = (
(250,788,l),
(250,900,l),
(396,900,l),
(396,788,l)
);
},
{
attr = {
gradient = {
colors = (
(
(191,255),
0
),
(
(64,255),
1
)
);
end = (0.2548,0.0057);
start = (0.6548,1.02);
};
identifier = ID0x6000133d5500;
};
closed = 1;
nodes = (
(498,788,l),
(498,900,l),
(644,900,l),
(644,788,l)
);
}
);
width = 832;
}
);
unicode = 203;
},
{
glyphname = Edotaccent;
lastChange = "2022-04-06 11:27:52 +0000";
layers = (
{
attr = {
color = 1;
};
layerId = "33AE93C6-B8B3-427A-A53B-F24970E840CE";
shapes = (
{
attr = {
gradient = {
colors = (
(
(64,255),
0
),
(
(191,255),
1
)
);
end = (0.5074,0.9658);
start = (0.6091,0.0797);
};
identifier = ID0x6000133d5420;
};
closed = 1;
nodes = (
(76,700,l),
(77,700,l),
(77,24,l),
(53,24,l),
(53,700,l)
);
},
{
attr = {
gradient = {
colors = (
(
(64,255),
0
),
(
(191,255),
1
)
);
end = (0.8878,0.5878);
start = (0.0693,0.513);
};
identifier = ID0x6000133d5420;
};
closed = 1;
nodes = (
(77,676,l),
(77,700,l),
(220,700,l),
(220,699,l),
(197,676,l)
);
},
{
attr = {
gradient = {
colors = (
(
(64,255),
0
),
(
(191,255),
1
)
);
end = (0.8878,0.5878);
start = (0.0693,0.513);
};
identifier = ID0x6000133d5420;
};
closed = 1;
nodes = (
(77,353,l),
(77,376,l),
(77,377,l),
(196,377,l),
(196,353,l)
);
},
{
attr = {
gradient = {
colors = (
(
(191,255),
0
),
(
(64,255),
1
)
);
end = (0.8878,0.5878);
start = (0.0693,0.513);
};
identifier = ID0x6000133d5420;
};
closed = 1;
nodes = (
(77,0,l),
(53,23,l),
(53,24,l),
(220,24,l),
(220,0,l)
);
},
{
attr = {
gradient = {
colors = (
(
(191,255),
0
),
(
(64,255),
1
)
);
end = (1.0106,0.0609);
start = (0.045,0.9981);
};
identifier = ID0x6000133d5340;
};
closed = 1;
nodes = (
(123,811,l),
(123,845,l),
(153,845,l),
(153,811,l)
);
}
);
width = 273;
},
{
attr = {
color = 1;
};
layerId = "E87239EE-82B8-404C-B23A-53843E270889";
shapes = (
{
attr = {
gradient = {
colors = (
(
(64,255),
0
),
(
(191,255),
1
)
);
end = (0.4877,0.9217);
start = (0.4155,-0.0037);
};
identifier = ID0x6000133d5260;
};
closed = 1;
nodes = (
(278,730,l),
(279,730,l),
(279,244,l),
(25,244,l),
(25,730,l)
);
},
{
attr = {
gradient = {
colors = (
(
(64,255),
0
),
(
(191,255),
1
)
);
end = (0.713,0.9264);
start = (0.0306,0.307);
};
identifier = ID0x6000133d5260;
};
closed = 1;
nodes = (
(279,486,l),
(279,730,l),
(842,730,l),
(842,729,l),
(640,486,l)
);
},
{
attr = {
gradient = {
colors = (
(
(64,255),
0
),
(
(191,255),
1
)
);
end = (0.8437,0.8454);
start = (0.2604,0.1278);
};
identifier = ID0x6000133d5260;
};
closed = 1;
nodes = (
(279,263,l),
(279,467,l),
(688,467,l),
(688,466,l),
(688,263,l)
);
},
{
attr = {
gradient = {
colors = (
(
(64,255),
0
),
(
(191,255),
1
)
);
end = (0.2497,0.9606);
start = (0.5205,-0.1117);
};
identifier = ID0x6000133d5260;
};
closed = 1;
nodes = (
(227,0,l),
(25,243,l),
(25,244,l),
(791,244,l),
(791,0,l)
);
},
{
attr = {
gradient = {
colors = (
(
(191,255),
0
),
(
(64,255),
1
)
);
end = (0.7053,1.0789);
start = (0.3543,0.0329);
};
identifier = ID0x6000133d5180;
};
closed = 1;
nodes = (
(358,768,l),
(358,900,l),
(534,900,l),
(534,768,l)
);
}
);
width = 832;
}
);
unicode = 278;
},
{
glyphname = Edotbelow;
lastChange = "2022-04-06 11:27:52 +0000";
layers = (
{
attr = {
color = 1;
};
layerId = "33AE93C6-B8B3-427A-A53B-F24970E840CE";
shapes = (
{
attr = {
gradient = {
colors = (
(
(64,255),
0
),
(
(191,255),
1
)
);
end = (0.5074,0.9658);
start = (0.6091,0.0797);
};
identifier = ID0x6000133d50a0;
};
closed = 1;
nodes = (
(76,700,l),
(77,700,l),
(77,24,l),
(53,24,l),
(53,700,l)
);
},
{
attr = {
gradient = {
colors = (
(
(64,255),
0
),
(
(191,255),
1
)
);
end = (0.8878,0.5878);
start = (0.0693,0.513);
};
identifier = ID0x6000133d50a0;
};
closed = 1;
nodes = (
(77,676,l),
(77,700,l),
(220,700,l),
(220,699,l),
(197,676,l)
);
},
{
attr = {
gradient = {
colors = (
(
(64,255),
0
),
(
(191,255),
1
)
);
end = (0.8878,0.5878);
start = (0.0693,0.513);
};
identifier = ID0x6000133d50a0;
};
closed = 1;
nodes = (
(77,353,l),
(77,376,l),
(77,377,l),
(196,377,l),
(196,353,l)
);
},
{
attr = {
gradient = {
colors = (
(
(191,255),
0
),
(
(64,255),
1
)
);
end = (0.8878,0.5878);
start = (0.0693,0.513);
};
identifier = ID0x6000133d50a0;
};
closed = 1;
nodes = (
(77,0,l),
(53,23,l),
(53,24,l),
(220,24,l),
(220,0,l)
);
},
{
attr = {
gradient = {
colors = (
(
(191,255),
0
),
(
(64,255),
1
)
);
end = (1.0106,0.0609);
start = (0.045,0.9981);
};
identifier = ID0x6000133d4fc0;
};
closed = 1;
nodes = (
(121,-119,l),
(121,-85,l),
(151,-85,l),
(151,-119,l)
);
}
);
width = 273;
},
{
attr = {
color = 1;
};
layerId = "E87239EE-82B8-404C-B23A-53843E270889";
shapes = (
{
attr = {
gradient = {
colors = (
(
(64,255),
0
),
(
(191,255),
1
)
);
end = (0.4877,0.9217);
start = (0.4155,-0.0037);
};
identifier = ID0x6000133d4ee0;
};
closed = 1;
nodes = (
(278,730,l),
(279,730,l),
(279,244,l),
(25,244,l),
(25,730,l)
);
},
{
attr = {
gradient = {
colors = (
(
(64,255),
0
),
(
(191,255),
1
)
);
end = (0.713,0.9264);
start = (0.0306,0.307);
};
identifier = ID0x6000133d4ee0;
};
closed = 1;
nodes = (
(279,486,l),
(279,730,l),
(842,730,l),
(842,729,l),
(640,486,l)
);
},
{
attr = {
gradient = {
colors = (
(
(64,255),
0
),
(
(191,255),
1
)
);
end = (0.8437,0.8454);
start = (0.2604,0.1278);
};
identifier = ID0x6000133d4ee0;
};
closed = 1;
nodes = (
(279,263,l),
(279,467,l),
(688,467,l),
(688,466,l),
(688,263,l)
);
},
{
attr = {
gradient = {
colors = (
(
(64,255),
0
),
(
(191,255),
1
)
);
end = (0.2497,0.9606);
start = (0.5205,-0.1117);
};
identifier = ID0x6000133d4ee0;
};
closed = 1;
nodes = (
(227,0,l),
(25,243,l),
(25,244,l),
(791,244,l),
(791,0,l)
);
},
{
attr = {
gradient = {
colors = (
(
(191,255),
0
),
(
(64,255),
1
)
);
end = (0.8798,-0.0104);
start = (0.1135,0.9935);
};
identifier = ID0x6000133d4e00;
};
closed = 1;
nodes = (
(344,-172,l),
(344,-40,l),
(520,-40,l),
(520,-172,l)
);
}
);
width = 832;
}
);
unicode = 7864;
},
{
glyphname = Egrave;
lastChange = "2022-04-06 11:27:52 +0000";
layers = (
{
attr = {
color = 1;
};
layerId = "33AE93C6-B8B3-427A-A53B-F24970E840CE";
shapes = (
{
attr = {
gradient = {
colors = (
(
(64,255),
0
),
(
(191,255),
1
)
);
end = (0.5074,0.9658);
start = (0.6091,0.0797);
};
identifier = ID0x6000133d4d20;
};
closed = 1;
nodes = (
(76,700,l),
(77,700,l),
(77,24,l),
(53,24,l),
(53,700,l)
);
},
{
attr = {
gradient = {
colors = (
(
(64,255),
0
),
(
(191,255),
1
)
);
end = (0.8878,0.5878);
start = (0.0693,0.513);
};
identifier = ID0x6000133d4d20;
};
closed = 1;
nodes = (
(77,676,l),
(77,700,l),
(220,700,l),
(220,699,l),
(197,676,l)
);
},
{
attr = {
gradient = {
colors = (
(
(64,255),
0
),
(
(191,255),
1
)
);
end = (0.8878,0.5878);
start = (0.0693,0.513);
};
identifier = ID0x6000133d4d20;
};
closed = 1;
nodes = (
(77,353,l),
(77,376,l),
(77,377,l),
(196,377,l),
(196,353,l)
);
},
{
attr = {
gradient = {
colors = (
(
(191,255),
0
),
(
(64,255),
1
)
);
end = (0.8878,0.5878);
start = (0.0693,0.513);
};
identifier = ID0x6000133d4d20;
};
closed = 1;
nodes = (
(77,0,l),
(53,23,l),
(53,24,l),
(220,24,l),
(220,0,l)
);
},
{
attr = {
gradient = {
colors = (
(
(191,255),
0
),
(
(64,255),
1
)
);
end = (0.7053,1.0789);
start = (0.3543,0.0329);
};
identifier = ID0x6000133d4c40;
};
closed = 1;
nodes = (
(138,770,l),
(106,859,l),
(106,860,l),
(137,860,l),
(162,770,l)
);
}
);
width = 273;
},
{
attr = {
color = 1;
};
layerId = "E87239EE-82B8-404C-B23A-53843E270889";
shapes = (
{
attr = {
gradient = {
colors = (
(
(64,255),
0
),
(
(191,255),
1
)
);
end = (0.4877,0.9217);
start = (0.4155,-0.0037);
};
identifier = ID0x6000133d4b60;
};
closed = 1;
nodes = (
(278,730,l),
(279,730,l),
(279,244,l),
(25,244,l),
(25,730,l)
);
},
{
attr = {
gradient = {
colors = (
(
(64,255),
0
),
(
(191,255),
1
)
);
end = (0.713,0.9264);
start = (0.0306,0.307);
};
identifier = ID0x6000133d4b60;
};
closed = 1;
nodes = (
(279,486,l),
(279,730,l),
(842,730,l),
(842,729,l),
(640,486,l)
);
},
{
attr = {
gradient = {
colors = (
(
(64,255),
0
),
(
(191,255),
1
)
);
end = (0.8437,0.8454);
start = (0.2604,0.1278);
};
identifier = ID0x6000133d4b60;
};
closed = 1;
nodes = (
(279,263,l),
(279,467,l),
(688,467,l),
(688,466,l),
(688,263,l)
);
},
{
attr = {
gradient = {
colors = (
(
(64,255),
0
),
(
(191,255),
1
)
);
end = (0.2497,0.9606);
start = (0.5205,-0.1117);
};
identifier = ID0x6000133d4b60;
};
closed = 1;
nodes = (
(227,0,l),
(25,243,l),
(25,244,l),
(791,244,l),
(791,0,l)
);
},
{
attr = {
gradient = {
colors = (
(
(191,255),
0
),
(
(64,255),
1
)
);
end = (0.7053,1.0789);
start = (0.3543,0.0329);
};
identifier = ID0x6000133d4a80;
};
closed = 1;
nodes = (
(388,760,l),
(273,899,l),
(273,900,l),
(479,900,l),
(514,760,l)
);
}
);
width = 832;
}
);
unicode = 200;
},
{
glyphname = Ehookabove;
lastChange = "2022-04-06 11:27:52 +0000";
layers = (
{
attr = {
color = 1;
};
layerId = "33AE93C6-B8B3-427A-A53B-F24970E840CE";
shapes = (
{
attr = {
gradient = {
colors = (
(
(64,255),
0
),
(
(191,255),
1
)
);
end = (0.5074,0.9658);
start = (0.6091,0.0797);
};
identifier = ID0x6000133d49a0;
};
closed = 1;
nodes = (
(76,700,l),
(77,700,l),
(77,24,l),
(53,24,l),
(53,700,l)
);
},
{
attr = {
gradient = {
colors = (
(
(64,255),
0
),
(
(191,255),
1
)
);
end = (0.8878,0.5878);
start = (0.0693,0.513);
};
identifier = ID0x6000133d49a0;
};
closed = 1;
nodes = (
(77,676,l),
(77,700,l),
(220,700,l),
(220,699,l),
(197,676,l)
);
},
{
attr = {
gradient = {
colors = (
(
(64,255),
0
),
(
(191,255),
1
)
);
end = (0.8878,0.5878);
start = (0.0693,0.513);
};
identifier = ID0x6000133d49a0;
};
closed = 1;
nodes = (
(77,353,l),
(77,376,l),
(77,377,l),
(196,377,l),
(196,353,l)
);
},
{
attr = {
gradient = {
colors = (
(
(191,255),
0
),
(
(64,255),
1
)
);
end = (0.8878,0.5878);
start = (0.0693,0.513);
};
identifier = ID0x6000133d49a0;
};
closed = 1;
nodes = (
(77,0,l),
(53,23,l),
(53,24,l),
(220,24,l),
(220,0,l)
);
},
{
attr = {
gradient = {
colors = (
(
(64,255),
0
),
(
(191,255),
1
)
);
end = (0.0416,0.8836);
start = (0.6428,0.1867);
};
identifier = ID0x6000133d48c0;
};
closed = 1;
nodes = (
(102,846,l),
(102,870,l),
(161,870,l),
(179,847,l),
(179,846,l)
);
},
{
attr = {
gradient = {
colors = (
(
(191,255),
0
),
(
(64,255),
1
)
);
end = (0.2224,-0.0167);
start = (0.6536,0.9461);
};
identifier = ID0x6000133d48c0;
};
closed = 1;
nodes = (
(123,739,l),
(123,740,l),
(161,870,l),
(179,847,l),
(179,846,l),
(146,739,l)
);
}
);
width = 273;
},
{
attr = {
color = 1;
};
layerId = "E87239EE-82B8-404C-B23A-53843E270889";
shapes = (
{
attr = {
gradient = {
colors = (
(
(64,255),
0
),
(
(191,255),
1
)
);
end = (0.4877,0.9217);
start = (0.4155,-0.0037);
};
identifier = ID0x6000133d4700;
};
closed = 1;
nodes = (
(278,730,l),
(279,730,l),
(279,244,l),
(25,244,l),
(25,730,l)
);
},
{
attr = {
gradient = {
colors = (
(
(64,255),
0
),
(
(191,255),
1
)
);
end = (0.713,0.9264);
start = (0.0306,0.307);
};
identifier = ID0x6000133d4700;
};
closed = 1;
nodes = (
(279,486,l),
(279,730,l),
(842,730,l),
(842,729,l),
(640,486,l)
);
},
{
attr = {
gradient = {
colors = (
(
(64,255),
0
),
(
(191,255),
1
)
);
end = (0.8437,0.8454);
start = (0.2604,0.1278);
};
identifier = ID0x6000133d4700;
};
closed = 1;
nodes = (
(279,263,l),
(279,467,l),
(688,467,l),
(688,466,l),
(688,263,l)
);
},
{
attr = {
gradient = {
colors = (
(
(64,255),
0
),
(
(191,255),
1
)
);
end = (0.2497,0.9606);
start = (0.5205,-0.1117);
};
identifier = ID0x6000133d4700;
};
closed = 1;
nodes = (
(227,0,l),
(25,243,l),
(25,244,l),
(791,244,l),
(791,0,l)
);
},
{
attr = {
gradient = {
colors = (
(
(64,255),
0
),
(
(191,255),
1
)
);
end = (0.0611,0.8551);
start = (0.4734,0.0581);
};
identifier = ID0x60001332f560;
};
closed = 1;
nodes = (
(296,798,l),
(296,900,l),
(557,900,l),
(664,799,l),
(664,798,l)
);
},
{
attr = {
gradient = {
colors = (
(
(191,255),
0
),
(
(64,255),
1
)
);
end = (0.372,0.0258);
start = (0.6171,0.8745);
};
identifier = ID0x60001332f560;
};
closed = 1;
nodes = (
(406,760,l),
(405,760,l),
(557,900,l),
(664,799,l),
(664,798,l),
(523,760,l)
);
}
);
width = 832;
}
);
unicode = 7866;
},
{
glyphname = Einvertedbreve;
lastChange = "2022-04-06 11:27:52 +0000";
layers = (
{
attr = {
color = 1;
};
layerId = "33AE93C6-B8B3-427A-A53B-F24970E840CE";
shapes = (
{
attr = {
gradient = {
colors = (
(
(64,255),
0
),
(
(191,255),
1
)
);
end = (0.5074,0.9658);
start = (0.6091,0.0797);
};
identifier = ID0x60001332f640;
};
closed = 1;
nodes = (
(76,700,l),
(77,700,l),
(77,24,l),
(53,24,l),
(53,700,l)
);
},
{
attr = {
gradient = {
colors = (
(
(64,255),
0
),
(
(191,255),
1
)
);
end = (0.8878,0.5878);
start = (0.0693,0.513);
};
identifier = ID0x60001332f640;
};
closed = 1;
nodes = (
(77,676,l),
(77,700,l),
(220,700,l),
(220,699,l),
(197,676,l)
);
},
{
attr = {
gradient = {
colors = (
(
(64,255),
0
),
(
(191,255),
1
)
);
end = (0.8878,0.5878);
start = (0.0693,0.513);
};
identifier = ID0x60001332f640;
};
closed = 1;
nodes = (
(77,353,l),
(77,376,l),
(77,377,l),
(196,377,l),
(196,353,l)
);
},
{
attr = {
gradient = {
colors = (
(
(191,255),
0
),
(
(64,255),
1
)
);
end = (0.8878,0.5878);
start = (0.0693,0.513);
};
identifier = ID0x60001332f640;
};
closed = 1;
nodes = (
(77,0,l),
(53,23,l),
(53,24,l),
(220,24,l),
(220,0,l)
);
},
{
attr = {
gradient = {
colors = (
(
(191,255),
0
),
(
(64,255),
1
)
);
end = (0.9151,0.9808);
start = (0.1869,0.1486);
};
identifier = ID0x60001332f8e0;
};
closed = 1;
nodes = (
(92,781,l),
(60,781,l),
(60,782,l),
(91,818,l),
(123,818,l)
);
},
{
attr = {
gradient = {
colors = (
(
(191,255),
0
),
(
(64,255),
1
)
);
end = (0.1433,0.9663);
start = (0.524,0.0643);
};
identifier = ID0x60001332f8e0;
};
closed = 1;
nodes = (
(185,818,l),
(216,782,l),
(216,781,l),
(184,781,l),
(153,818,l)
);
},
{
attr = {
gradient = {
colors = (
(
(191,255),
0
),
(
(64,255),
1
)
);
end = (0.7884,0.8995);
start = (0.0818,0.0967);
};
identifier = ID0x60001332f8e0;
};
closed = 1;
nodes = (
(185,818,l),
(91,818,l),
(110,840,l),
(166,840,l)
);
}
);
width = 273;
},
{
attr = {
color = 1;
};
layerId = "E87239EE-82B8-404C-B23A-53843E270889";
shapes = (
{
attr = {
gradient = {
colors = (
(
(64,255),
0
),
(
(191,255),
1
)
);
end = (0.4877,0.9217);
start = (0.4155,-0.0037);
};
identifier = ID0x60001332f9c0;
};
closed = 1;
nodes = (
(278,730,l),
(279,730,l),
(279,244,l),
(25,244,l),
(25,730,l)
);
},
{
attr = {
gradient = {
colors = (
(
(64,255),
0
),
(
(191,255),
1
)
);
end = (0.713,0.9264);
start = (0.0306,0.307);
};
identifier = ID0x60001332f9c0;
};
closed = 1;
nodes = (
(279,486,l),
(279,730,l),
(842,730,l),
(842,729,l),
(640,486,l)
);
},
{
attr = {
gradient = {
colors = (
(
(64,255),
0
),
(
(191,255),
1
)
);
end = (0.8437,0.8454);
start = (0.2604,0.1278);
};
identifier = ID0x60001332f9c0;
};
closed = 1;
nodes = (
(279,263,l),
(279,467,l),
(688,467,l),
(688,466,l),
(688,263,l)
);
},
{
attr = {
gradient = {
colors = (
(
(64,255),
0
),
(
(191,255),
1
)
);
end = (0.2497,0.9606);
start = (0.5205,-0.1117);
};
identifier = ID0x60001332f9c0;
};
closed = 1;
nodes = (
(227,0,l),
(25,243,l),
(25,244,l),
(791,244,l),
(791,0,l)
);
},
{
attr = {
gradient = {
colors = (
(
(191,255),
0
),
(
(64,255),
1
)
);
end = (0.8943,0.8385);
start = (0.1895,0.1088);
};
identifier = ID0x60001332f720;
};
closed = 1;
nodes = (
(352,760,l),
(196,760,l),
(196,762,l),
(250,820,l),
(409,820,l)
);
},
{
attr = {
gradient = {
colors = (
(
(191,255),
0
),
(
(64,255),
1
)
);
end = (0.2192,0.9094);
start = (0.8253,0.0969);
};
identifier = ID0x60001332f720;
};
closed = 1;
nodes = (
(643,820,l),
(697,761,l),
(697,760,l),
(541,760,l),
(484,820,l)
);
},
{
attr = {
gradient = {
colors = (
(
(64,255),
0
),
(
(191,255),
1
)
);
end = (0.1967,0.8302);
start = (0.9557,0.1416);
};
identifier = ID0x60001332f720;
};
closed = 1;
nodes = (
(643,820,l),
(250,820,l),
(324,900,l),
(569,900,l)
);
}
);
width = 832;
}
);
unicode = 518;
},
